<?xml version="1.0" standalone="no"?>
<!DOCTYPE svg PUBLIC "-//W3C//DTD SVG 20010904//EN"
 "http://www.w3.org/TR/2001/REC-SVG-20010904/DTD/svg10.dtd">
<svg version="1.0" xmlns="http://www.w3.org/2000/svg"
 width="632.000000pt" height="395.000000pt" viewBox="0 0 632.000000 395.000000"
 preserveAspectRatio="xMidYMid meet">

<g transform="translate(0.000000,395.000000) scale(0.100000,-0.100000)"
fill="#000000" stroke="none">
<path d="M1783 3172 c-8 -5 -9 -30 -3 -92 5 -47 14 -143 20 -215 6 -71 17
-200 25 -285 8 -85 19 -209 25 -275 27 -316 41 -468 50 -555 12 -112 25 -258
45 -505 8 -99 19 -220 25 -270 6 -49 13 -133 15 -185 3 -52 9 -129 15 -170 5
-41 12 -115 16 -165 8 -104 17 -135 40 -135 16 0 70 -14 279 -75 44 -12 118
-33 165 -45 47 -12 120 -33 162 -46 42 -13 83 -24 89 -24 7 0 49 -11 93 -24
326 -98 322 -98 478 -48 35 11 108 32 163 47 91 25 146 40 350 96 39 11 102
29 140 41 39 11 81 22 95 24 14 2 58 15 99 29 41 14 84 25 97 25 12 0 26 6 31
13 9 11 27 168 38 337 2 36 13 157 24 270 11 113 25 264 31 335 6 72 13 153
15 180 3 28 12 127 20 220 8 94 20 215 25 270 5 55 14 156 20 225 6 69 17 195
25 280 25 270 54 603 57 665 l3 60 -1380 2 c-759 2 -1385 -1 -1392 -5z m2257
-582 c0 -6 -4 -52 -9 -103 -5 -51 -15 -150 -21 -222 -6 -71 -17 -200 -25 -285
-14 -147 -30 -327 -75 -840 -30 -348 -27 -327 -58 -334 -28 -6 -72 -18 -297
-81 -71 -20 -188 -52 -260 -71 l-129 -36 -116 31 c-63 17 -171 47 -240 66 -69
20 -177 50 -240 67 -63 17 -116 32 -118 33 -2 2 -51 521 -52 548 0 4 78 7 174
7 l173 0 6 -37 c4 -21 9 -82 13 -135 4 -53 10 -100 13 -105 3 -5 53 -22 111
-38 58 -15 143 -38 190 -51 l85 -23 110 31 c60 16 148 40 195 52 l85 22 7 85
c3 46 11 138 17 204 6 66 11 130 11 143 l0 22 -605 0 -605 0 0 28 c0 39 -19
251 -25 290 l-6 32 635 0 c596 0 635 1 640 18 9 33 29 309 23 325 -5 14 -33
16 -224 15 -120 0 -417 1 -659 1 l-441 1 -12 128 c-6 70 -14 148 -17 175 l-6
47 876 0 c599 0 876 -3 876 -10z"/>
</g>
</svg>
