<?xml version="1.0" standalone="no"?>
<!DOCTYPE svg PUBLIC "-//W3C//DTD SVG 20010904//EN"
 "http://www.w3.org/TR/2001/REC-SVG-20010904/DTD/svg10.dtd">
<svg version="1.0" xmlns="http://www.w3.org/2000/svg"
 width="574.000000pt" height="434.000000pt" viewBox="0 0 574.000000 434.000000"
 preserveAspectRatio="xMidYMid meet">

<g transform="translate(0.000000,434.000000) scale(0.100000,-0.100000)"
fill="#000000" stroke="none">
<path d="M3980 3624 c-20 -11 -257 -14 -1267 -14 -829 0 -1251 3 -1269 10 -23
9 -30 7 -46 -10 -19 -20 -19 -28 -9 -208 7 -103 13 -200 15 -217 2 -16 7 -84
10 -150 4 -66 11 -167 16 -225 10 -114 20 -241 50 -690 11 -162 25 -358 30
-435 20 -275 40 -570 40 -588 0 -10 12 -31 28 -46 22 -23 100 -52 402 -151
206 -67 455 -149 553 -182 l178 -59 252 84 c139 47 315 105 392 130 489 158
483 156 502 187 8 12 25 197 48 512 19 271 39 554 45 628 5 74 17 234 25 355
47 690 64 935 71 1009 5 52 4 67 -5 62 -7 -4 -17 -4 -24 2 -8 5 -21 4 -37 -4z
m-323 -331 c-3 -32 -11 -134 -17 -228 -6 -93 -14 -185 -16 -202 l-5 -33 -655
0 -655 0 6 -67 c4 -38 10 -102 13 -143 l7 -75 630 -5 630 -5 -3 -100 c-2 -55
-9 -179 -17 -275 -8 -96 -19 -254 -25 -350 -6 -96 -17 -240 -25 -318 -11 -124
-16 -147 -35 -167 -28 -29 -727 -265 -786 -265 -55 0 -753 235 -782 263 -29
30 -38 88 -47 315 l-8 182 255 0 256 0 6 -22 c3 -13 6 -39 6 -59 l0 -36 158
-52 157 -51 149 49 c82 28 152 54 156 58 6 7 30 236 30 285 0 17 -37 18 -597
20 l-598 3 -6 100 c-10 157 -38 542 -54 750 -8 105 -18 247 -21 318 -4 70 -11
127 -16 127 -13 0 -9 28 5 33 6 3 439 6 961 6 l949 1 -6 -57z m-1917 -2248
c19 -7 116 -39 215 -70 99 -32 308 -100 465 -152 157 -53 290 -95 295 -95 6 0
129 41 275 90 431 146 763 252 787 252 14 0 20 -6 19 -16 -2 -12 -143 -63
-522 -191 -285 -97 -532 -177 -549 -180 -21 -3 -186 49 -535 167 -278 94 -514
173 -525 175 -22 5 -47 34 -40 46 5 8 53 -3 115 -26z"/>
</g>
</svg>
