<?xml version="1.0" encoding="UTF-8"?>
<svg version="1.1" xmlns="http://www.w3.org/2000/svg" width="331" height="331">
<path d="M0 0 C0 0.99 0 1.98 0 3 C-0.65226562 3.15855469 -1.30453125 3.31710938 -1.9765625 3.48046875 C-7.81585844 5.03933684 -11.80365997 6.58279997 -16 11 C-16 11.99 -16 12.98 -16 14 C-9.54764224 17.62413867 -3.42492254 19.27631604 3.8125 20.6875 C4.82892578 20.89955078 5.84535156 21.11160156 6.89257812 21.33007812 C19.23609015 23.82395532 31.32751568 24.18647286 43.87597656 24.18530273 C46.46696844 24.18747234 49.05752147 24.20563823 51.6484375 24.22460938 C66.33799617 24.27478847 81.20832959 23.55463588 95.5625 20.1875 C96.29863525 20.01863281 97.03477051 19.84976563 97.79321289 19.67578125 C107.85763094 17.24660839 107.85763094 17.24660839 115.56640625 10.84375 C116.27603516 9.93109375 116.27603516 9.93109375 117 9 C117.99 9 118.98 9 120 9 C122 12 122 12 122.5625 14.3125 C121.64055575 18.71734473 118.65431447 20.6101313 115 23 C78.78534246 42.52618662 17.33692471 37.61881278 -20.59765625 26.9921875 C-25.86242434 25.19238791 -31.0011682 22.9988318 -35 19 C-35.5 16.3125 -35.5 16.3125 -35 13 C-29.11812256 4.72796035 -16.62588654 2.0175028 -7.21875 0.26171875 C-4.79436213 -0.02425658 -2.43899508 -0.04723406 0 0 Z " fill="#017590" transform="translate(106,227)"/>
<path d="M0 0 C1.65 0 3.3 0 5 0 C8.77183347 8.11928811 7.96108926 17.32903765 5.0625 25.625 C-1.39034728 40.54267784 -14.09519039 52.52650555 -26.76953125 62.375 C-33.71580395 67.89438598 -40.91004555 75.96894886 -42 85 C-42.09960023 100.11931501 -36.65323725 109.91247542 -27 121 C-25.515 121.99 -25.515 121.99 -24 123 C-24.495 124.485 -24.495 124.485 -25 126 C-37.86114846 119.6805715 -48.91246275 110.38584754 -54.9375 97.125 C-57.87085023 88.49749931 -58.03244909 80.89345833 -54.328125 72.48046875 C-48.79920205 62.15439207 -39.88982151 54.63487684 -30.9140625 47.40234375 C-10.8555441 31.595317 -10.8555441 31.595317 -0.68359375 9.08203125 C-0.60238281 8.00308594 -0.52117187 6.92414062 -0.4375 5.8125 C-0.35371094 4.72582031 -0.26992187 3.63914063 -0.18359375 2.51953125 C-0.09271484 1.27236328 -0.09271484 1.27236328 0 0 Z " fill="#F29010" transform="translate(179,41)"/>
<path d="M0 0 C0 0.66 0 1.32 0 2 C-1.8359375 3.2265625 -1.8359375 3.2265625 -4.375 4.625 C-15.58528418 11.15110028 -26.03253141 19.20382384 -30 32 C-32.34914858 41.02844418 -26.14569617 49.36399345 -22 57 C-19.40461017 61.84083946 -18.22895192 65.49557343 -19 71 C-21.36295443 78.48268902 -26.44519588 84.68762887 -33 89 C-34.32 89 -35.64 89 -37 89 C-35 84 -35 84 -33.8125 81.75 C-32.30914133 76.66170911 -32.98891502 72.19672208 -35.19921875 67.39453125 C-36.75359209 64.56728525 -38.36336084 61.78040537 -40 59 C-44.46600942 51.30797925 -47.57737004 45.02908367 -46 36 C-41.73645626 21.40920587 -29.64536802 12.68173431 -16.96875 5.54296875 C-6.30379747 0 -6.30379747 0 0 0 Z " fill="#F29110" transform="translate(202,84)"/>
<path d="M0 0 C0 0.66 0 1.32 0 2 C-1.18078125 2.26554688 -2.3615625 2.53109375 -3.578125 2.8046875 C-5.13547811 3.16119002 -6.69276642 3.51797572 -8.25 3.875 C-9.02730469 4.04902344 -9.80460937 4.22304687 -10.60546875 4.40234375 C-11.35957031 4.57636719 -12.11367187 4.75039062 -12.890625 4.9296875 C-13.92751465 5.16534424 -13.92751465 5.16534424 -14.98535156 5.40576172 C-17.17408129 6.05134681 -19.03098737 6.84617351 -21 8 C-21.33 8.66 -21.66 9.32 -22 10 C5.17433234 18.25131549 38.59509725 16.90374975 66.125 10.625 C69.87263155 9.86975211 71.83906611 9.98443295 75.1875 11.875 C76.115625 12.57625 77.04375 13.2775 78 14 C78 14.66 78 15.32 78 16 C71.29364221 18.54557319 64.61393219 20.43332437 57.5625 21.6875 C56.90838135 21.80649658 56.2542627 21.92549316 55.58032227 22.0480957 C43.93662438 24.00588561 32.15517503 24.20640766 20.375 24.1875 C19.67511963 24.18689575 18.97523926 24.1862915 18.25415039 24.18566895 C-27.92218281 24.07781719 -27.92218281 24.07781719 -39 13 C-39.125 10.625 -39.125 10.625 -38 8 C-32.72928083 4.35772222 -26.69361012 2.99057833 -20.5 1.8125 C-19.69691406 1.64814453 -18.89382812 1.48378906 -18.06640625 1.31445312 C-4.3144818 -1.4381606 -4.3144818 -1.4381606 0 0 Z " fill="#01758F" transform="translate(132,165)"/>
<path d="M0 0 C0 0.66 0 1.32 0 2 C-0.99 2.495 -0.99 2.495 -2 3 C-2 3.66 -2 4.32 -2 5 C-0.2675 5.7115625 -0.2675 5.7115625 1.5 6.4375 C2.1496875 6.70433594 2.799375 6.97117188 3.46875 7.24609375 C9.46037127 9.03063527 15.73352651 9.15780871 21.9453125 9.16796875 C22.67765106 9.17129715 23.40998962 9.17462555 24.16452026 9.17805481 C25.70570251 9.18308292 27.24689549 9.18546442 28.78808594 9.18530273 C31.09849884 9.18747508 33.4084221 9.20563591 35.71875 9.22460938 C46.13264295 9.2638118 55.98272747 8.36358605 66.23144531 6.37207031 C69.65934113 5.91139013 70.97478718 6.63585264 73.875 8.4375 C74.65617187 8.91058594 75.43734375 9.38367188 76.2421875 9.87109375 C76.82226562 10.24363281 77.40234375 10.61617187 78 11 C78 11.66 78 12.32 78 13 C68.37693149 16.53115399 59.26254426 18.98902771 49 20 C47.88496094 20.11085937 46.76992187 20.22171875 45.62109375 20.3359375 C25.97906337 22.05200627 0.43622624 22.39467333 -17 12 C-19 10 -19 10 -19.125 7.625 C-17.58478157 4.031157 -15.54145447 3.32091035 -12.05859375 1.78125 C-7.97041249 0.22975806 -4.35135722 -0.12432449 0 0 Z " fill="#00758F" transform="translate(122,193)"/>
<path d="M0 0 C-0.33 1.32 -0.66 2.64 -1 4 C7.35512705 5.87666063 15.33076975 6.27582447 23.875 6.1875 C25.05191406 6.18685547 26.22882813 6.18621094 27.44140625 6.18554688 C34.40380634 6.15107955 41.21697053 5.7858312 48.1340332 4.97412109 C52.86557885 5.01684567 56.29087981 7.23014022 60 10 C60 10.99 60 11.98 60 13 C39.6156455 21.41518442 13.31276138 22.33903278 -7.640625 15.0859375 C-11.82497219 13.23458964 -14.13963517 11.18582086 -16 7 C-11.26268805 1.70535723 -7.15031119 -0.42060654 0 0 Z " fill="#017590" transform="translate(129,220)"/>
<path d="M0 0 C0.66 0 1.32 0 2 0 C1.57605422 4.80471884 -0.46610693 7.8711149 -4 11 C-24.64842313 25.81872261 -55.71504641 26.22053216 -80.0625 26.1875 C-80.88392487 26.18689575 -81.70534973 26.1862915 -82.55166626 26.18566895 C-100.99985204 26.1487991 -118.06505058 24.41409747 -136 20 C-136 19.34 -136 18.68 -136 18 C-132.05994555 16.56172819 -128.35250616 17.30870385 -124.3125 17.875 C-86.38264553 22.73047836 -34.58559906 24.9580357 -2 2 C-1.34 1.34 -0.68 0.68 0 0 Z " fill="#01758F" transform="translate(236,247)"/>
<path d="M0 0 C3.98844711 3.12608017 5.09033319 6.03818105 6 11 C6 18.09113938 3.58362275 22.64277004 -1 28 C-8.83455957 35.58682646 -20.24071082 41.85296696 -31 44 C-31.66 43.67 -32.32 43.34 -33 43 C-33 42.34 -33 41.68 -33 41 C-31.18889095 39.84612429 -29.3232679 38.77733859 -27.4375 37.75 C-18.39771597 32.59200558 -11.39990091 27.19970272 -8 17 C-7.50245596 12.1876888 -7.27975876 8.28042886 -9.6875 4 C-13.75650452 0.48086095 -17.75247886 -0.26778775 -23 -1 C-23 -1.66 -23 -2.32 -23 -3 C-14.38843608 -6.11482099 -7.54181907 -5.17575818 0 0 Z " fill="#007590" transform="translate(238,167)"/>
</svg>
