<?xml version="1.0" encoding="UTF-8"?>
<svg version="1.1" xmlns="http://www.w3.org/2000/svg" width="500" height="500">
<path d="M0 0 C0.94294922 -0.02449219 1.88589844 -0.04898438 2.85742188 -0.07421875 C12.78796788 -0.11516946 20.39383787 2.79295949 27.6875 9.5 C29.15316406 10.80324219 29.15316406 10.80324219 30.6484375 12.1328125 C37.17905756 19.25649101 37.88341107 27.75529256 37.5625 37 C37.54445312 38.00417969 37.52640625 39.00835937 37.5078125 40.04296875 C37.46123997 42.48802652 37.39587028 44.93096812 37.3125 47.375 C23.77465582 47.53109674 13.3692541 43.84884639 3.28515625 34.51171875 C0.82500555 31.84696146 -0.95014239 29.05435541 -2.6171875 25.84375 C-2.97039062 25.3590625 -3.32359375 24.874375 -3.6875 24.375 C-4.6775 24.375 -5.6675 24.375 -6.6875 24.375 C-3.61499177 32.88809596 1.95078348 38.41710928 9.3125 43.375 C9.3125 44.035 9.3125 44.695 9.3125 45.375 C9.9725 45.705 10.6325 46.035 11.3125 46.375 C10.43207031 46.62894531 9.55164063 46.88289063 8.64453125 47.14453125 C7.48308594 47.48871094 6.32164062 47.83289063 5.125 48.1875 C3.97644531 48.52394531 2.82789063 48.86039063 1.64453125 49.20703125 C-1.4615641 50.29580324 -3.88637444 51.68658408 -6.6875 53.375 C-7.6775 53.375 -8.6675 53.375 -9.6875 53.375 C-9.6875 54.035 -9.6875 54.695 -9.6875 55.375 C-11.31303283 57.08180947 -12.97865995 58.75160195 -14.6875 60.375 C-9.5182755 58.9779123 -5.2401071 56.51223133 -0.6640625 53.8125 C5.67781758 50.74975477 11.7759582 50.0573073 18.75 50.1875 C19.49064697 50.1968457 20.23129395 50.20619141 20.99438477 50.21582031 C23.10129016 50.25189508 25.20636709 50.30826375 27.3125 50.375 C28.81296875 50.41947266 28.81296875 50.41947266 30.34375 50.46484375 C32.75 50.625 32.75 50.625 36.3125 51.375 C38.21305166 54.15730407 38.54771346 56.365913 38.44775391 59.68457031 C38.41749619 60.9454245 38.41749619 60.9454245 38.3866272 62.23175049 C38.35443085 63.12980408 38.3222345 64.02785767 38.2890625 64.953125 C38.26403656 65.8796991 38.23901062 66.80627319 38.21322632 67.76092529 C38.13115313 70.71599601 38.03451432 73.67038574 37.9375 76.625 C37.8792475 78.63018065 37.82194449 80.63538913 37.765625 82.640625 C37.62559308 87.55247395 37.47249782 92.46376251 37.3125 97.375 C32.56591797 95.47705078 32.56591797 95.47705078 30.28515625 94.55859375 C29.65480469 94.31238281 29.02445313 94.06617188 28.375 93.8125 C27.74722656 93.56371094 27.11945313 93.31492187 26.47265625 93.05859375 C16.1274395 89.78479098 3.15621866 89.93943496 -6.61328125 94.84375 C-8.55799821 95.91321821 -10.48910003 97.00800817 -12.40234375 98.1328125 C-14.6875 99.375 -14.6875 99.375 -16.6875 99.375 C-16.75066406 98.78074219 -16.81382812 98.18648438 -16.87890625 97.57421875 C-18.01586236 89.87882111 -21.07299045 81.8735824 -27.48046875 77.015625 C-29.23263946 76.07874369 -29.23263946 76.07874369 -31.6875 75.375 C-31.49921228 77.81980079 -31.49921228 77.81980079 -30.6875 80.375 C-30.089375 80.66375 -29.49125 80.9525 -28.875 81.25 C-24.77384499 83.35916544 -23.29587724 87.52193259 -21.921875 91.70703125 C-20.05975713 99.28680591 -20.74178816 105.81904387 -24.5 112.6875 C-26.75547577 115.45851309 -29.02358789 117.99149969 -31.6875 120.375 C-32.3475 120.375 -33.0075 120.375 -33.6875 120.375 C-33.6875 121.035 -33.6875 121.695 -33.6875 122.375 C-35.1725 122.87 -35.1725 122.87 -36.6875 123.375 C-37.42073796 125.39008358 -37.42073796 125.39008358 -37.6875 127.375 C-36.78257812 126.86839844 -36.78257812 126.86839844 -35.859375 126.3515625 C-35.06015625 125.90554687 -34.2609375 125.45953125 -33.4375 125 C-32.64859375 124.55914062 -31.8596875 124.11828125 -31.046875 123.6640625 C-28.94835803 122.51752177 -26.8338923 121.42850448 -24.6875 120.375 C-24.6875 119.715 -24.6875 119.055 -24.6875 118.375 C-24.0275 118.375 -23.3675 118.375 -22.6875 118.375 C-22.57664062 117.80523437 -22.46578125 117.23546875 -22.3515625 116.6484375 C-20.28891502 109.58690318 -14.72559566 103.392232 -8.6875 99.375 C1.33813645 93.99118146 12.45180891 92.54410409 23.5625 95.5 C28.68397782 97.4135561 33.58125407 99.24373499 37.3125 103.375 C38.42172649 107.71242712 38.16822066 111.80908541 37.875 116.25 C37.83439453 117.4153125 37.79378906 118.580625 37.75195312 119.78125 C37.6461343 122.65011602 37.49849238 125.51039942 37.3125 128.375 C36.3946875 128.54515625 35.476875 128.7153125 34.53125 128.890625 C25.51470004 130.67120419 18.65568504 132.72639612 11.3125 138.375 C10.6525 138.375 9.9925 138.375 9.3125 138.375 C9.3125 139.035 9.3125 139.695 9.3125 140.375 C8.6525 140.375 7.9925 140.375 7.3125 140.375 C7.3125 141.695 7.3125 143.015 7.3125 144.375 C10.59014516 142.8393201 13.49698825 140.95250788 16.5 138.9375 C23.58842284 134.40090938 28.86600774 132.375 37.3125 132.375 C37.3125 153.825 37.3125 175.275 37.3125 197.375 C34.0125 198.035 30.7125 198.695 27.3125 199.375 C18.76944607 201.77180124 10.43241664 206.5619995 5.52734375 214.12890625 C5.12644531 214.87011719 4.72554688 215.61132812 4.3125 216.375 C7.87510827 215.97915464 9.25798259 214.43252151 11.640625 211.91015625 C19.08976811 205.07017204 27.2019321 201.21865101 37.3125 201.375 C37.37071935 205.27077024 37.4061703 209.16642802 37.4375 213.0625 C37.46263672 214.71668945 37.46263672 214.71668945 37.48828125 216.40429688 C37.49472656 217.47099609 37.50117188 218.53769531 37.5078125 219.63671875 C37.51828613 220.61600342 37.52875977 221.59528809 37.53955078 222.60424805 C37.29847685 225.54612772 36.54305542 227.70737726 35.3125 230.375 C34.6525 230.375 33.9925 230.375 33.3125 230.375 C32.9825 231.695 32.6525 233.015 32.3125 234.375 C31.6525 234.375 30.9925 234.375 30.3125 234.375 C29.6525 235.695 28.9925 237.015 28.3125 238.375 C27.6525 238.375 26.9925 238.375 26.3125 238.375 C26.3125 239.035 26.3125 239.695 26.3125 240.375 C13.12359409 247.39157299 0.99518138 252.08879097 -14.2109375 248.2734375 C-19.6335909 246.30622885 -24.89509211 243.57707015 -29.6875 240.375 C-30.0175 239.385 -30.3475 238.395 -30.6875 237.375 C-31.3475 237.375 -32.0075 237.375 -32.6875 237.375 C-34.37890625 234.92578125 -34.37890625 234.92578125 -36.25 231.6875 C-36.87003906 230.63175781 -37.49007812 229.57601562 -38.12890625 228.48828125 C-41.74027672 221.27459137 -41.82948973 212.38192986 -39.5625 204.6875 C-35.3626049 193.63305913 -27.03494598 188.12107328 -16.6875 183.375 C-11.34436598 181.03737886 -6.41964297 181.17108978 -0.6875 181.375 C-1.0175 180.055 -1.3475 178.735 -1.6875 177.375 C-3.6365625 177.5915625 -3.6365625 177.5915625 -5.625 177.8125 C-10.3125 178.33333333 -15 178.85416667 -19.6875 179.375 C-19.543125 178.64796875 -19.39875 177.9209375 -19.25 177.171875 C-17.89300991 169.82151204 -17.44921938 162.84112603 -17.6875 155.375 C-18.6775 155.375 -19.6675 155.375 -20.6875 155.375 C-20.71328125 156.48617187 -20.7390625 157.59734375 -20.765625 158.7421875 C-21.09632989 168.54428034 -21.41045912 177.43995283 -28.125 185.1875 C-28.970625 185.909375 -29.81625 186.63125 -30.6875 187.375 C-38.00451487 194.31678334 -42.37797276 200.48860269 -44.6875 210.375 C-54.57916293 209.89637115 -62.57048029 206.30472971 -69.6875 199.375 C-69.6875 198.715 -69.6875 198.055 -69.6875 197.375 C-70.3475 197.375 -71.0075 197.375 -71.6875 197.375 C-75.99283559 189.90818182 -79.17185268 183.07251532 -76.9140625 174.40625 C-75.50733302 170.3870229 -74.0546687 166.92575305 -71.6875 163.375 C-71.0275 163.375 -70.3675 163.375 -69.6875 163.375 C-69.6875 162.715 -69.6875 162.055 -69.6875 161.375 C-69.0275 161.375 -68.3675 161.375 -67.6875 161.375 C-67.6875 160.715 -67.6875 160.055 -67.6875 159.375 C-63.26603291 155.09616088 -56.94816428 151.375 -50.6875 151.375 C-50.6875 150.055 -50.6875 148.735 -50.6875 147.375 C-51.31914062 147.67535156 -51.95078125 147.97570312 -52.6015625 148.28515625 C-60.90957768 151.81666126 -68.88878253 152.72954938 -77.57958984 149.71972656 C-84.57085235 146.87150094 -90.95636859 143.35848972 -95.6875 137.375 C-95.6875 136.715 -95.6875 136.055 -95.6875 135.375 C-96.3475 135.375 -97.0075 135.375 -97.6875 135.375 C-102.59982475 125.71028665 -103.58084473 118.66135975 -100.6484375 108.12890625 C-99.42568215 104.62466835 -98.10613482 102.18373721 -95.6875 99.375 C-95.0275 99.375 -94.3675 99.375 -93.6875 99.375 C-93.6875 98.715 -93.6875 98.055 -93.6875 97.375 C-93.0275 97.375 -92.3675 97.375 -91.6875 97.375 C-91.6875 96.715 -91.6875 96.055 -91.6875 95.375 C-80.87789603 86.26891528 -67.18389998 85.29430404 -53.6875 85.375 C-53.6875 84.385 -53.6875 83.395 -53.6875 82.375 C-59.9575 82.045 -66.2275 81.715 -72.6875 81.375 C-77.34109494 73.58022848 -78.96330134 67.45238301 -77.6875 58.375 C-76.6565006 55.17137956 -75.372074 52.28540239 -73.6875 49.375 C-73.0275 49.375 -72.3675 49.375 -71.6875 49.375 C-71.6875 48.715 -71.6875 48.055 -71.6875 47.375 C-71.0275 47.375 -70.3675 47.375 -69.6875 47.375 C-69.6875 46.715 -69.6875 46.055 -69.6875 45.375 C-69.0275 45.375 -68.3675 45.375 -67.6875 45.375 C-67.6875 44.715 -67.6875 44.055 -67.6875 43.375 C-54.44190956 35.63217323 -43.14644677 33.05057592 -27.8125 36.875 C-26.09930886 37.35809306 -24.38878738 37.85152696 -22.6875 38.375 C-23.0175 37.385 -23.3475 36.395 -23.6875 35.375 C-26.70390055 34.11859742 -26.70390055 34.11859742 -30.25 33.1875 C-31.44753906 32.84332031 -32.64507812 32.49914062 -33.87890625 32.14453125 C-34.80574219 31.89058594 -35.73257813 31.63664062 -36.6875 31.375 C-35.72254075 20.37446458 -31.81010343 13.91835781 -23.6875 6.375 C-21.11709211 4.66597657 -18.57088238 3.45333813 -15.6875 2.375 C-15.00558594 2.02179688 -14.32367188 1.66859375 -13.62109375 1.3046875 C-9.11468171 -0.12344308 -4.69903629 0.00629476 0 0 Z " fill="#444446" transform="translate(216.6875,75.625)"/>
<path d="M0 0 C5.92128583 3.23994885 9.03183374 6.8518525 10.9453125 13.26953125 C11.82236622 19.34359475 10.23296456 25.48109874 7.3125 30.8125 C6.6525 30.8125 5.9925 30.8125 5.3125 30.8125 C5.3125 31.4725 5.3125 32.1325 5.3125 32.8125 C-1.24090196 36.00027173 -6.52186041 37.96344243 -13.6875 35.8125 C-18.61588725 33.83801099 -21.90687069 32.06623798 -24.75 27.5 C-25.059375 26.613125 -25.36875 25.72625 -25.6875 24.8125 C-29.6475 24.8125 -33.6075 24.8125 -37.6875 24.8125 C-37.6875 25.4725 -37.6875 26.1325 -37.6875 26.8125 C-39.10978034 27.72682308 -40.53350906 28.63897969 -41.96484375 29.5390625 C-44.48748672 31.4038734 -46.32940095 33.70014057 -48.29296875 36.12890625 C-52.08267008 40.70414791 -52.08267008 40.70414791 -54.58862305 41.15307617 C-55.28511963 41.13736572 -55.98161621 41.12165527 -56.69921875 41.10546875 C-57.45654297 41.09580078 -58.21386719 41.08613281 -58.99414062 41.07617188 C-59.77982422 41.05103516 -60.56550781 41.02589844 -61.375 41 C-62.57092773 40.97969727 -62.57092773 40.97969727 -63.79101562 40.95898438 C-65.75679967 40.92367089 -67.72223582 40.86986447 -69.6875 40.8125 C-69.71438151 39.16675434 -69.73384123 37.52088587 -69.75 35.875 C-69.76160156 34.95847656 -69.77320313 34.04195312 -69.78515625 33.09765625 C-69.6875 30.8125 -69.6875 30.8125 -68.6875 29.8125 C-66.43206376 29.56988335 -64.17804477 29.42917867 -61.9140625 29.2890625 C-59.27357228 28.72390494 -58.4724322 27.7644434 -56.6875 25.8125 C-56.0275 25.8125 -55.3675 25.8125 -54.6875 25.8125 C-54.45289063 25.26078125 -54.21828125 24.7090625 -53.9765625 24.140625 C-51.17273961 19.07675094 -46.88841911 14.45445999 -41.6875 11.8125 C-36.40028472 10.65464324 -31.01867528 11.21048523 -25.6875 11.8125 C-25.26017578 10.65621094 -25.26017578 10.65621094 -24.82421875 9.4765625 C-22.83064994 4.80434968 -19.77033387 2.40499401 -15.375 0 C-9.68846292 -1.8312577 -5.68653708 -1.8312577 0 0 Z M-13.625 12.4375 C-14.93816255 15.37280453 -14.90441118 17.63113606 -14.6875 20.8125 C-14.0275 20.8125 -13.3675 20.8125 -12.6875 20.8125 C-12.0275 22.1325 -11.3675 23.4525 -10.6875 24.8125 C-6.00137006 24.43635875 -6.00137006 24.43635875 -1.75 22.625 C-0.12715379 19.85661529 -0.23827924 17.95704533 -0.6875 14.8125 C-2.12411311 12.29243156 -2.12411311 12.29243156 -4.6875 10.8125 C-9.54544701 10.10571813 -9.54544701 10.10571813 -13.625 12.4375 Z " fill="#4E4E4F" transform="translate(354.6875,135.1875)"/>
<path d="M0 0 C1.17691406 0.00257813 2.35382813 0.00515625 3.56640625 0.0078125 C5.32791016 0.00394531 5.32791016 0.00394531 7.125 0 C10.12890625 0.1328125 10.12890625 0.1328125 12.12890625 1.1328125 C12.12890625 1.7928125 12.12890625 2.4528125 12.12890625 3.1328125 C13.11890625 3.4628125 14.10890625 3.7928125 15.12890625 4.1328125 C15.12890625 4.7928125 15.12890625 5.4528125 15.12890625 6.1328125 C15.78890625 6.1328125 16.44890625 6.1328125 17.12890625 6.1328125 C17.12890625 6.7928125 17.12890625 7.4528125 17.12890625 8.1328125 C17.78890625 8.1328125 18.44890625 8.1328125 19.12890625 8.1328125 C19.12890625 8.7928125 19.12890625 9.4528125 19.12890625 10.1328125 C19.70640625 10.4009375 20.28390625 10.6690625 20.87890625 10.9453125 C23.18440668 12.16210439 25.14946817 13.43615129 27.12890625 15.1328125 C27.12890625 15.7928125 27.12890625 16.4528125 27.12890625 17.1328125 C31.41890625 17.1328125 35.70890625 17.1328125 40.12890625 17.1328125 C40.45890625 16.2459375 40.78890625 15.3590625 41.12890625 14.4453125 C43.76408246 10.0808019 46.31925725 7.8702516 51.12890625 6.1328125 C57.5183579 5.38519271 63.22883844 5.40717821 69.12890625 8.1328125 C69.12890625 8.7928125 69.12890625 9.4528125 69.12890625 10.1328125 C69.72703125 10.3390625 70.32515625 10.5453125 70.94140625 10.7578125 C75.09884701 13.37106098 75.94826504 17.34573295 77.00390625 21.9453125 C77.56730706 28.07229635 75.62297038 33.22373055 71.87890625 38.0078125 C66.96672176 41.80359142 62.29568193 43.69318163 56.109375 43.41796875 C50.01083071 42.5398746 46.09989302 39.65532521 42.12890625 35.1328125 C41.54109375 34.07320313 41.54109375 34.07320313 40.94140625 32.9921875 C39.16963634 30.78021524 39.16963634 30.78021524 35.80078125 30.76953125 C33.85945313 30.79466797 33.85945313 30.79466797 31.87890625 30.8203125 C28.0631903 30.75467362 24.96361282 30.66422916 21.65625 28.55859375 C19.99984649 26.82482107 18.5683047 25.04575897 17.12890625 23.1328125 C16.46890625 22.8028125 15.80890625 22.4728125 15.12890625 22.1328125 C15.12890625 21.4728125 15.12890625 20.8128125 15.12890625 20.1328125 C14.46890625 20.1328125 13.80890625 20.1328125 13.12890625 20.1328125 C13.12890625 19.4728125 13.12890625 18.8128125 13.12890625 18.1328125 C12.55140625 17.8646875 11.97390625 17.5965625 11.37890625 17.3203125 C9.12890625 16.1328125 9.12890625 16.1328125 7.44140625 14.5703125 C3.91938263 12.38094647 0.20503247 12.38539297 -3.87109375 12.1328125 C-3.89796654 10.32039198 -3.9174309 8.50786017 -3.93359375 6.6953125 C-3.94519531 5.68597656 -3.95679688 4.67664063 -3.96875 3.63671875 C-3.8287467 0.04703423 -3.62581346 0.1677247 0 0 Z M52.75390625 18.6328125 C50.68774891 21.8115161 50.77388452 23.63032125 51.45703125 27.28515625 C52.0675782 29.38218048 52.0675782 29.38218048 54.31640625 31.2578125 C57.99935828 32.4036198 59.70224119 31.80807097 63.12890625 30.1328125 C65.45934183 26.63715914 65.71653869 25.2462396 65.12890625 21.1328125 C62.70795534 18.50435152 61.08275933 17.31893017 57.56640625 16.6328125 C55.02091654 17.00543704 55.02091654 17.00543704 52.75390625 18.6328125 Z " fill="#4D4D4D" transform="translate(288.87109375,222.8671875)"/>
<path d="M0 0 C2.82023066 2.37182578 4.81087142 4.54833839 6.8671875 7.6328125 C7.08980119 10.28393918 7.19169753 12.79590008 7.1796875 15.4453125 C7.19580078 16.14462891 7.21191406 16.84394531 7.22851562 17.56445312 C7.23298633 22.34363161 6.49511133 25.63532481 3.8671875 29.6328125 C-2.93525584 35.2796284 -10.69908577 35.22766783 -19.1328125 34.6328125 C-19.1328125 33.9728125 -19.1328125 33.3128125 -19.1328125 32.6328125 C-19.7928125 32.6328125 -20.4528125 32.6328125 -21.1328125 32.6328125 C-21.38160156 33.21933594 -21.63039063 33.80585938 -21.88671875 34.41015625 C-23.30692446 36.94337583 -24.84464996 38.34266603 -27.0703125 40.1953125 C-30.01587293 42.66471383 -30.01587293 42.66471383 -32.76171875 45.34765625 C-34.1328125 46.6328125 -34.1328125 46.6328125 -36.1328125 46.6328125 C-36.1328125 47.2928125 -36.1328125 47.9528125 -36.1328125 48.6328125 C-38.89898813 50.01590031 -41.1429925 49.74491446 -44.234375 49.73046875 C-46.05195313 49.72563477 -46.05195313 49.72563477 -47.90625 49.72070312 C-49.17726563 49.71232422 -50.44828125 49.70394531 -51.7578125 49.6953125 C-53.0365625 49.69080078 -54.3153125 49.68628906 -55.6328125 49.68164062 C-58.79952542 49.66982453 -61.96614606 49.65335065 -65.1328125 49.6328125 C-66.43941607 45.33553853 -65.7924887 42.03065385 -65.1328125 37.6328125 C-64.13483643 37.63450439 -64.13483643 37.63450439 -63.11669922 37.63623047 C-60.07939266 37.62406643 -57.04456485 37.5663523 -54.0078125 37.5078125 C-52.96109375 37.51039063 -51.914375 37.51296875 -50.8359375 37.515625 C-43.95905452 37.38802472 -43.95905452 37.38802472 -38.515625 33.578125 C-37.33613281 32.12019531 -37.33613281 32.12019531 -36.1328125 30.6328125 C-35.4728125 30.6328125 -34.8128125 30.6328125 -34.1328125 30.6328125 C-34.1328125 29.9728125 -34.1328125 29.3128125 -34.1328125 28.6328125 C-33.4728125 28.6328125 -32.8128125 28.6328125 -32.1328125 28.6328125 C-32.1328125 27.9728125 -32.1328125 27.3128125 -32.1328125 26.6328125 C-31.63652344 26.24738281 -31.14023437 25.86195312 -30.62890625 25.46484375 C-27.73510795 21.92126306 -29.17123475 16.74484127 -29.41796875 12.39453125 C-29.08530029 8.00604187 -27.94261291 5.97042072 -25.1328125 2.6328125 C-24.4728125 2.6328125 -23.8128125 2.6328125 -23.1328125 2.6328125 C-23.1328125 1.9728125 -23.1328125 1.3128125 -23.1328125 0.6328125 C-15.44072879 -3.48155785 -7.77782561 -4.98578565 0 0 Z M-16.5703125 10.7578125 C-18.39247211 13.54526998 -18.39247211 13.54526998 -18.0703125 16.7578125 C-16.92956437 20.35488135 -16.92956437 20.35488135 -14.1328125 22.6328125 C-11.21840551 23.30002786 -11.21840551 23.30002786 -8.1328125 22.6328125 C-5.09007833 20.5903774 -5.09007833 20.5903774 -3.1328125 17.6328125 C-3.05221175 14.32818166 -3.88323998 12.97481929 -5.8203125 10.3203125 C-8.0747942 8.42087037 -8.0747942 8.42087037 -11.1328125 8.0703125 C-14.27908283 8.39784252 -14.27908283 8.39784252 -16.5703125 10.7578125 Z " fill="#4B4B4C" transform="translate(327.1328125,94.3671875)"/>
<path d="M0 0 C1.20970459 0.00523682 2.41940918 0.01047363 3.66577148 0.01586914 C4.97094727 0.0190918 6.27612305 0.02231445 7.62084961 0.02563477 C9.00952213 0.03399138 10.39819401 0.04245634 11.78686523 0.05102539 C13.17944179 0.05603873 14.57202005 0.06060193 15.96459961 0.06469727 C19.38456394 0.07653105 22.80444367 0.09301659 26.22436523 0.11352539 C26.22436523 0.77352539 26.22436523 1.43352539 26.22436523 2.11352539 C27.08868164 2.48670898 27.08868164 2.48670898 27.97045898 2.86743164 C30.54593235 4.29130687 32.24448081 5.93780682 34.28686523 8.05102539 C35.29426758 9.08549805 35.29426758 9.08549805 36.32202148 10.14086914 C38.22436523 12.11352539 38.22436523 12.11352539 39.57983398 13.89477539 C42.1834791 15.82431762 44.34352756 15.0874029 47.47436523 14.67602539 C52.78174841 14.15118417 56.36247286 13.88515805 61.22436523 16.11352539 C63.97436523 18.48852539 63.97436523 18.48852539 66.22436523 21.11352539 C66.75803711 21.67426758 67.29170898 22.23500977 67.84155273 22.81274414 C69.81567671 26.09737415 69.62197716 28.74845334 69.59936523 32.55102539 C69.6109668 34.4981543 69.6109668 34.4981543 69.62280273 36.48461914 C69.20902474 40.2532442 68.41446174 42.08024173 66.22436523 45.11352539 C65.77061523 45.83540039 65.31686523 46.55727539 64.84936523 47.30102539 C61.18761779 51.38528216 55.93389539 51.71512159 50.71655273 52.14086914 C44.27813103 52.07022815 39.66611259 48.34867984 35.22436523 44.11352539 C32.44346895 40.24648779 33.00118637 35.91751417 33.09936523 31.36352539 C33.10838867 30.57075195 33.11741211 29.77797852 33.12670898 28.96118164 C33.15019512 27.01183258 33.18606386 25.06263965 33.22436523 23.11352539 C32.56436523 23.11352539 31.90436523 23.11352539 31.22436523 23.11352539 C31.22436523 22.45352539 31.22436523 21.79352539 31.22436523 21.11352539 C30.56436523 21.11352539 29.90436523 21.11352539 29.22436523 21.11352539 C29.22436523 20.45352539 29.22436523 19.79352539 29.22436523 19.11352539 C28.64686523 18.86602539 28.06936523 18.61852539 27.47436523 18.36352539 C24.92557143 16.94752883 23.27713308 15.16629324 21.22436523 13.11352539 C18.28304632 12.13308575 16.39934859 11.99731337 13.33764648 12.01586914 C12.39985352 12.0190918 11.46206055 12.02231445 10.49584961 12.02563477 C9.03115234 12.03820312 9.03115234 12.03820312 7.53686523 12.05102539 C6.54879883 12.05553711 5.56073242 12.06004883 4.54272461 12.06469727 C2.10321049 12.07648236 -0.33618166 12.09293528 -2.77563477 12.11352539 C-2.9696511 10.30171134 -3.15567851 8.48904007 -3.33813477 6.67602539 C-3.44254883 5.66668945 -3.54696289 4.65735352 -3.65454102 3.61743164 C-3.69450195 2.79114258 -3.73446289 1.96485352 -3.77563477 1.11352539 C-2.77563477 0.11352539 -2.77563477 0.11352539 0 0 Z M46.41186523 27.73852539 C44.47275871 30.27013668 44.22742164 30.95764895 44.16186523 34.30102539 C45.38991708 37.55175087 46.06773927 38.66318373 49.22436523 40.11352539 C53.15944024 40.11352539 54.75118617 39.52755707 57.72436523 36.92602539 C59.55651316 34.17269922 59.55651316 34.17269922 58.72436523 30.98852539 C57.15989221 27.9899521 56.19172616 26.68448118 53.22436523 25.11352539 C49.07053902 24.65864656 49.07053902 24.65864656 46.41186523 27.73852539 Z " fill="#4C4C4C" transform="translate(264.775634765625,256.886474609375)"/>
<path d="M0 0 C4.10692196 5.13365246 6.34321922 9.89917966 5.8125 16.5 C4.87194214 22.73903381 2.98108577 26.45671523 -2.0625 30.3125 C-7.49203534 34.16474016 -11.37198597 34.54653789 -18 34 C-23.10322149 32.7794555 -26.05497715 30.31235489 -29 26 C-29.34909424 25.29520508 -29.69818848 24.59041016 -30.05786133 23.86425781 C-32.64954001 21.37650691 -34.80165176 21.54546533 -38.28605652 21.54681396 C-39.54244682 21.57778168 -39.54244682 21.57778168 -40.82421875 21.609375 C-41.68561966 21.61503479 -42.54702057 21.62069458 -43.43452454 21.62652588 C-46.18608148 21.6489187 -48.93633663 21.6991192 -51.6875 21.75 C-53.55271557 21.7700613 -55.41795155 21.78831272 -57.28320312 21.8046875 C-61.85597042 21.84879287 -66.4277645 21.91783943 -71 22 C-71 17.38 -71 12.76 -71 8 C-51.2 8.495 -51.2 8.495 -31 9 C-30.34 7.35 -29.68 5.7 -29 4 C-21.17858881 -4.62360721 -10.09931776 -6.97333846 0 0 Z M-18.3125 9.625 C-20.50197249 12.7064798 -20.61793165 14.29241009 -20 18 C-18.5 20.5 -18.5 20.5 -16 22 C-11.89222251 22.50299316 -10.49124017 22.32749345 -7 20 C-6.16097774 16.15448132 -5.74639475 13.76081574 -7 10 C-10.89806918 7.35488163 -14.3949401 6.87212007 -18.3125 9.625 Z " fill="#59595A" transform="translate(380,185)"/>
<path d="M0 0 C1.4540625 0.0309375 1.4540625 0.0309375 2.9375 0.0625 C3.411875 1.17625 3.88625 2.29 4.375 3.4375 C5.19056463 5.32960994 6.01606355 7.21962709 6.9375 9.0625 C8.2575 6.0925 9.5775 3.1225 10.9375 0.0625 C12.9175 0.0625 14.8975 0.0625 16.9375 0.0625 C17.13666016 1.66931641 17.13666016 1.66931641 17.33984375 3.30859375 C17.5180056 4.70575769 17.69640319 6.10289159 17.875 7.5 C17.96201172 8.20705078 18.04902344 8.91410156 18.13867188 9.64257812 C18.31966191 13.15067968 18.31966191 13.15067968 19.9375 16.0625 C20.58793719 14.33505984 21.23264844 12.6054631 21.875 10.875 C22.23464844 9.91207031 22.59429687 8.94914062 22.96484375 7.95703125 C23.84906562 5.3256722 24.46318586 2.79355092 24.9375 0.0625 C27.2475 0.0625 29.5575 0.0625 31.9375 0.0625 C34.09044651 5.35080549 36.21683894 10.61373997 37.9375 16.0625 C38.2675 12.4325 38.5975 8.8025 38.9375 5.0625 C39.5975 5.0625 40.2575 5.0625 40.9375 5.0625 C40.9375 4.4025 40.9375 3.7425 40.9375 3.0625 C41.5975 3.0625 42.2575 3.0625 42.9375 3.0625 C42.9375 2.4025 42.9375 1.7425 42.9375 1.0625 C45.55427378 -0.24588689 47.51951522 -0.03455508 50.4375 0 C51.90703125 0.01353516 51.90703125 0.01353516 53.40625 0.02734375 C54.2415625 0.03894531 55.076875 0.05054688 55.9375 0.0625 C56.5975 0.0625 57.2575 0.0625 57.9375 0.0625 C59.60715451 0.38052943 61.27428518 0.71234951 62.9375 1.0625 C63.4325 4.5275 63.4325 4.5275 63.9375 8.0625 C66.9075 8.5575 66.9075 8.5575 69.9375 9.0625 C69.4425 4.6075 69.4425 4.6075 68.9375 0.0625 C70.9175 0.0625 72.8975 0.0625 74.9375 0.0625 C75.93040126 3.04120377 75.99274548 4.65432885 75.81640625 7.73046875 C75.76806641 8.62314453 75.71972656 9.51582031 75.66992188 10.43554688 C75.61384766 11.36431641 75.55777344 12.29308594 75.5 13.25 C75.44779297 14.19037109 75.39558594 15.13074219 75.34179688 16.09960938 C75.21218082 18.42091501 75.07721819 20.74178409 74.9375 23.0625 C73.2875 23.0625 71.6375 23.0625 69.9375 23.0625 C68.33024365 19.84798731 68.88001815 16.62637464 68.9375 13.0625 C67.2875 13.0625 65.6375 13.0625 63.9375 13.0625 C63.6075 16.0325 63.2775 19.0025 62.9375 22.0625 C61.2875 22.3925 59.6375 22.7225 57.9375 23.0625 C57.9375 16.4625 57.9375 9.8625 57.9375 3.0625 C57.2775 3.0625 56.6175 3.0625 55.9375 3.0625 C55.9375 4.0525 55.9375 5.0425 55.9375 6.0625 C54.0503125 5.9696875 54.0503125 5.9696875 52.125 5.875 C49.54280019 5.89331347 48.19298035 5.93088891 45.875 7.125 C44.38511939 10.2040866 45.26267482 12.81106958 45.9375 16.0625 C46.824375 16.206875 47.71125 16.35125 48.625 16.5 C51.40867646 16.97269978 54.17233757 17.49320185 56.9375 18.0625 C56.2775 19.7125 55.6175 21.3625 54.9375 23.0625 C47.78343383 23.80771523 43.63526694 22.40957015 37.9375 18.0625 C38.4325 20.5375 38.4325 20.5375 38.9375 23.0625 C36.9575 23.0625 34.9775 23.0625 32.9375 23.0625 C32.4425 20.0925 32.4425 20.0925 31.9375 17.0625 C29.52872743 17.17591534 29.52872743 17.17591534 26.9375 18.0625 C26.545625 18.908125 26.15375 19.75375 25.75 20.625 C25.151875 21.429375 24.55375 22.23375 23.9375 23.0625 C20.57104651 23.52156184 17.31536985 23.34768601 13.9375 23.0625 C13.2775 20.7525 12.6175 18.4425 11.9375 16.0625 C11.525 17.031875 11.1125 18.00125 10.6875 19 C8.9375 22.0625 8.9375 22.0625 6.75 22.9375 C6.151875 22.97875 5.55375 23.02 4.9375 23.0625 C3.9475 20.7525 2.9575 18.4425 1.9375 16.0625 C1.2775 18.3725 0.6175 20.6825 -0.0625 23.0625 C-1.7125 23.0625 -3.3625 23.0625 -5.0625 23.0625 C-4.92433041 19.41633329 -4.77568466 15.77066926 -4.625 12.125 C-4.56602539 10.56362305 -4.56602539 10.56362305 -4.50585938 8.97070312 C-4.46396484 7.98134766 -4.42207031 6.99199219 -4.37890625 5.97265625 C-4.34224854 5.05621338 -4.30559082 4.13977051 -4.26782227 3.19555664 C-3.94038156 -0.20616682 -3.5122888 0.07167936 0 0 Z " fill="#565656" transform="translate(192.0625,350.9375)"/>
<path d="M0 0 C4.62 0 9.24 0 14 0 C14 1.65 14 3.3 14 5 C11.36 5 8.72 5 6 5 C8.39509338 7.89932357 10.31245243 8.50168276 14 9 C14 10.32 14 11.64 14 13 C11.36 13 8.72 13 6 13 C6 14.32 6 15.64 6 17 C8.97 17 11.94 17 15 17 C16.98 11.39 18.96 5.78 21 0 C23.31 0 25.62 0 28 0 C29.52425098 2.80081117 30.39338784 5.31236413 31 8.4375 C31.69846842 11.81343068 32.68567296 14.80806291 34 18 C34 18.99 34 19.98 34 21 C34.66 21 35.32 21 36 21 C36 14.07 36 7.14 36 0 C40.95 0 45.9 0 51 0 C52.30909091 8.72727273 52.30909091 8.72727273 51 12 C50.67 12.33 50.34 12.66 50 13 C50.66 13.33 51.32 13.66 52 14 C51.67 14.99 51.34 15.98 51 17 C51.495 17.99 51.495 17.99 52 19 C51.98839844 17.71222656 51.97679687 16.42445313 51.96484375 15.09765625 C51.9554673 13.41927228 51.94636695 11.74088674 51.9375 10.0625 C51.92912109 9.21236328 51.92074219 8.36222656 51.91210938 7.48632812 C51.90888672 6.67744141 51.90566406 5.86855469 51.90234375 5.03515625 C51.89710693 4.2862915 51.89187012 3.53742676 51.88647461 2.76586914 C52 1 52 1 53 0 C54.99958364 -0.04080783 57.00045254 -0.04254356 59 0 C59.66 1.32 60.32 2.64 61 4 C61.66 4 62.32 4 63 4 C63.99 6.475 63.99 6.475 65 9 C65.33 7.35 65.66 5.7 66 4 C65.01 3.505 65.01 3.505 64 3 C64.66 3 65.32 3 66 3 C66 2.01 66 1.02 66 0 C67.98 0 69.96 0 72 0 C71.67 7.26 71.34 14.52 71 22 C69.02 22 67.04 22 65 22 C63.1015625 19.8125 63.1015625 19.8125 61.625 17 C61.12226563 16.071875 60.61953125 15.14375 60.1015625 14.1875 C59.73804688 13.465625 59.37453125 12.74375 59 12 C58.67 15.3 58.34 18.6 58 22 C54.04 22 50.08 22 46 22 C45.505 18.535 45.505 18.535 45 15 C44.01 15.33 43.02 15.66 42 16 C41.67 17.98 41.34 19.96 41 22 C36.37078475 23.0161692 32.65537393 22.83796731 28 22 C27.505 19.525 27.505 19.525 27 17 C25.35 17 23.7 17 22 17 C21.01 19.475 21.01 19.475 20 22 C13.22261602 23.41852223 6.87230691 22.63763672 0 22 C0 14.74 0 7.48 0 0 Z M41 4 C41 5.32 41 6.64 41 8 C41.99 8.33 42.98 8.66 44 9 C44 7.68 44 6.36 44 5 C43.01 4.67 42.02 4.34 41 4 Z " fill="#3A3A3A" transform="translate(197,388)"/>
<path d="M0 0 C0.33 -0.33 0.66 -0.66 1 -1 C3.9375 -1.1875 3.9375 -1.1875 7 -1 C9 1 9 1 9 4 C9.66 4 10.32 4 11 4 C11.66 5.32 12.32 6.64 13 8 C13.33 5.03 13.66 2.06 14 -1 C15.65 -1 17.3 -1 19 -1 C19 6.59 19 14.18 19 22 C14 22 14 22 11.75 20.8125 C9.59483626 18.58036613 9.46391783 17.01546591 9 14 C8.34 13.34 7.68 12.68 7 12 C6.67 15.3 6.34 18.6 6 22 C4.35 21.67 2.7 21.34 1 21 C1 15.06 1 9.12 1 3 C0.34 3 -0.32 3 -1 3 C-0.98839844 4.28777344 -0.97679687 5.57554687 -0.96484375 6.90234375 C-0.9554673 8.58072772 -0.94636695 10.25911326 -0.9375 11.9375 C-0.92912109 12.78763672 -0.92074219 13.63777344 -0.91210938 14.51367188 C-0.90888672 15.32255859 -0.90566406 16.13144531 -0.90234375 16.96484375 C-0.89710693 17.7137085 -0.89187012 18.46257324 -0.88647461 19.23413086 C-1 21 -1 21 -2 22 C-3.65 22 -5.3 22 -7 22 C-7.33 14.74 -7.66 7.48 -8 0 C-5.15266466 -1.42366767 -3.07246902 -0.52297345 0 0 Z " fill="#676767" transform="translate(277,352)"/>
<path d="M0 0 C1.65 0 3.3 0 5 0 C6.30909091 8.72727273 6.30909091 8.72727273 5 12 C4.67 12.33 4.34 12.66 4 13 C4.66 13.33 5.32 13.66 6 14 C5.67 14.99 5.34 15.98 5 17 C5.33 17.66 5.66 18.32 6 19 C5.98839844 17.71222656 5.97679687 16.42445313 5.96484375 15.09765625 C5.9554673 13.41927228 5.94636695 11.74088674 5.9375 10.0625 C5.92912109 9.21236328 5.92074219 8.36222656 5.91210938 7.48632812 C5.90888672 6.67744141 5.90566406 5.86855469 5.90234375 5.03515625 C5.89710693 4.2862915 5.89187012 3.53742676 5.88647461 2.76586914 C6 1 6 1 7 0 C8.99958364 -0.04080783 11.00045254 -0.04254356 13 0 C13.66 1.32 14.32 2.64 15 4 C15.66 4 16.32 4 17 4 C17.66 5.65 18.32 7.3 19 9 C19.33 7.35 19.66 5.7 20 4 C19.34 3.67 18.68 3.34 18 3 C18.66 3 19.32 3 20 3 C20 2.01 20 1.02 20 0 C21.98 0 23.96 0 26 0 C25.67 7.26 25.34 14.52 25 22 C23.02 22 21.04 22 19 22 C17.1015625 19.8125 17.1015625 19.8125 15.625 17 C15.12226563 16.071875 14.61953125 15.14375 14.1015625 14.1875 C13.73804688 13.465625 13.37453125 12.74375 13 12 C12.67 15.3 12.34 18.6 12 22 C8.04 22 4.08 22 0 22 C-0.63620854 17.94417058 -1 14.09781054 -1 10 C-1.33 9.67 -1.66 9.34 -2 9 C-2.36442233 7.33985384 -2.69972883 5.67293936 -3 4 C-2.01 4 -1.02 4 0 4 C0 3.01 0 2.02 0 1 C0 0.67 0 0.34 0 0 Z " fill="#707070" transform="translate(243,388)"/>
<path d="M0 0 C12.21 0 24.42 0 37 0 C36.34 0.66 35.68 1.32 35 2 C35.37125 2.763125 35.7425 3.52625 36.125 4.3125 C36.41375 5.199375 36.7025 6.08625 37 7 C36.34 7.99 35.68 8.98 35 10 C32.30459685 10.26686213 29.84152536 10.34818073 27.1484375 10.29296875 C26.37440582 10.28872391 25.60037415 10.28447906 24.80288696 10.28010559 C22.32657323 10.26328998 19.85106842 10.22563395 17.375 10.1875 C15.69792841 10.17245682 14.02084408 10.15876778 12.34375 10.14648438 C8.22885419 10.11337721 4.11456431 10.06157637 0 10 C0 6.7 0 3.4 0 0 Z " fill="#3E3E3F" transform="translate(310,195)"/>
<path d="M0 0 C1.98 0 3.96 0 6 0 C7.6796875 1.75 7.6796875 1.75 8.875 4 C9.28492188 4.7425 9.69484375 5.485 10.1171875 6.25 C10.55417969 7.11625 10.55417969 7.11625 11 8 C10.979375 6.865625 10.95875 5.73125 10.9375 4.5625 C11 1 11 1 12 0 C13.98 0 15.96 0 18 0 C18 7.26 18 14.52 18 22 C16.35 22.33 14.7 22.66 13 23 C12.01941648 21.54261898 11.04057868 20.08406325 10.0625 18.625 C9.51722656 17.81289063 8.97195313 17.00078125 8.41015625 16.1640625 C7 14 7 14 6 12 C5.67 15.3 5.34 18.6 5 22 C3.35 22 1.7 22 0 22 C0 14.74 0 7.48 0 0 Z " fill="#626262" transform="translate(279,388)"/>
<path d="M0 0 C1.125 3.75 1.125 3.75 0 6 C-1.98567708 5.93489583 -3.97135417 5.86979167 -5.95703125 5.8046875 C-8.31359719 5.86745538 -8.31359719 5.86745538 -11 8 C-11.58345476 10.95746492 -11.58345476 10.95746492 -11 14 C-8.73599988 16.26400012 -7.05224368 16.98258544 -4 18 C-4 16.68 -4 15.36 -4 14 C-4.99 14 -5.98 14 -7 14 C-7 12.35 -7 10.7 -7 9 C-4.03 9 -1.06 9 2 9 C2.02686553 10.97909398 2.04633375 12.95828971 2.0625 14.9375 C2.07410156 16.03964844 2.08570313 17.14179688 2.09765625 18.27734375 C2 21 2 21 1 22 C-1.10131921 22.12602054 -3.20743788 22.1757922 -5.3125 22.1875 C-6.46363281 22.20167969 -7.61476563 22.21585937 -8.80078125 22.23046875 C-11.85093943 22.01073818 -13.49495262 21.69164376 -16 20 C-18.49531175 15.75797002 -18.23124998 11.77916622 -18 7 C-16.82195726 3.46587178 -15.3945434 2.54234878 -12.1875 0.78515625 C-8.20987569 -0.64252676 -4.16225039 -0.30149097 0 0 Z " fill="#5C5C5C" transform="translate(316,388)"/>
<path d="M0 0 C1.79244141 0.01740234 1.79244141 0.01740234 3.62109375 0.03515625 C5.41740234 0.04869141 5.41740234 0.04869141 7.25 0.0625 C8.17683594 0.07410156 9.10367187 0.08570313 10.05859375 0.09765625 C10.05859375 1.74765625 10.05859375 3.39765625 10.05859375 5.09765625 C5.30859375 6.22265625 5.30859375 6.22265625 3.05859375 5.09765625 C2.72859375 6.41765625 2.39859375 7.73765625 2.05859375 9.09765625 C4.69859375 9.09765625 7.33859375 9.09765625 10.05859375 9.09765625 C10.05859375 10.41765625 10.05859375 11.73765625 10.05859375 13.09765625 C7.74859375 13.42765625 5.43859375 13.75765625 3.05859375 14.09765625 C3.05859375 15.41765625 3.05859375 16.73765625 3.05859375 18.09765625 C5.69859375 18.09765625 8.33859375 18.09765625 11.05859375 18.09765625 C11.05859375 19.74765625 11.05859375 21.39765625 11.05859375 23.09765625 C6.43859375 23.09765625 1.81859375 23.09765625 -2.94140625 23.09765625 C-3.13516268 19.45205459 -3.32170964 15.80633769 -3.50390625 12.16015625 C-3.55998047 11.11923828 -3.61605469 10.07832031 -3.67382812 9.00585938 C-3.72216797 8.01650391 -3.77050781 7.02714844 -3.8203125 6.0078125 C-3.86744385 5.09136963 -3.9145752 4.17492676 -3.96313477 3.23071289 C-3.92888622 -0.13141718 -3.3982351 0.11282321 0 0 Z " fill="#737373" transform="translate(301.94140625,350.90234375)"/>
<path d="M0 0 C1.98 0 3.96 0 6 0 C6.99290126 2.97870377 7.05524548 4.59182885 6.87890625 7.66796875 C6.83056641 8.56064453 6.78222656 9.45332031 6.73242188 10.37304688 C6.67634766 11.30181641 6.62027344 12.23058594 6.5625 13.1875 C6.51029297 14.12787109 6.45808594 15.06824219 6.40429688 16.03710938 C6.27468082 18.35841501 6.13971819 20.67928409 6 23 C4.35 23 2.7 23 1 23 C-0.60725635 19.78548731 -0.05748185 16.56387464 0 13 C-1.65 13 -3.3 13 -5 13 C-5.33 15.97 -5.66 18.94 -6 22 C-7.65 22.33 -9.3 22.66 -11 23 C-11 16.4 -11 9.8 -11 3 C-10.67 4.32 -10.34 5.64 -10 7 C-9.34 7 -8.68 7 -8 7 C-7.67 6.01 -7.34 5.02 -7 4 C-7 5.65 -7 7.3 -7 9 C-4.36 9 -1.72 9 1 9 C0.67 6.03 0.34 3.06 0 0 Z " fill="#515151" transform="translate(261,351)"/>
<path d="M0 0 C0 3.96 0 7.92 0 12 C-6.27 12 -12.54 12 -19 12 C-19 8.04 -19 4.08 -19 0 C-16.39619004 -0.19476139 -13.79224467 -0.38108614 -11.1875 -0.5625 C-10.44951172 -0.61857422 -9.71152344 -0.67464844 -8.95117188 -0.73242188 C-5.63211484 -0.95769724 -3.18767436 -1.06255812 0 0 Z " fill="#595959" transform="translate(281,194)"/>
<path d="M0 0 C0.66 -0.33 1.32 -0.66 2 -1 C2.33 5.27 2.66 11.54 3 18 C3.33 18 3.66 18 4 18 C4.04898437 17.36191406 4.09796875 16.72382813 4.1484375 16.06640625 C4.22320312 15.24011719 4.29796875 14.41382813 4.375 13.5625 C4.44460938 12.73878906 4.51421875 11.91507812 4.5859375 11.06640625 C4.72257812 10.38449219 4.85921875 9.70257813 5 9 C5.66 8.67 6.32 8.34 7 8 C7.33 8.99 7.66 9.98 8 11 C7.67 11.33 7.34 11.66 7 12 C6.76712992 13.68183948 6.58735834 15.3712416 6.4375 17.0625 C6.35371094 17.98160156 6.26992188 18.90070313 6.18359375 19.84765625 C6.12300781 20.55792969 6.06242187 21.26820313 6 22 C4.35 21.67 2.7 21.34 1 21 C1 15.06 1 9.12 1 3 C0.34 3 -0.32 3 -1 3 C-0.98839844 4.28777344 -0.97679687 5.57554687 -0.96484375 6.90234375 C-0.9554673 8.58072772 -0.94636695 10.25911326 -0.9375 11.9375 C-0.92912109 12.78763672 -0.92074219 13.63777344 -0.91210938 14.51367188 C-0.90888672 15.32255859 -0.90566406 16.13144531 -0.90234375 16.96484375 C-0.89710693 17.7137085 -0.89187012 18.46257324 -0.88647461 19.23413086 C-1 21 -1 21 -2 22 C-3.65 22 -5.3 22 -7 22 C-7.33 14.74 -7.66 7.48 -8 0 C-5.15247365 -1.42376318 -3.08125973 -0.51354329 0 0 Z " fill="#4C4C4C" transform="translate(277,352)"/>
<path d="M0 0 C0.99 0 1.98 0 3 0 C2.67 1.65 2.34 3.3 2 5 C4.31 5.66 6.62 6.32 9 7 C9 6.34 9 5.68 9 5 C9.99 5.33 10.98 5.66 12 6 C10.52359743 9.16256725 8.96523276 11.12499545 6 13 C0.4119322 13.94881171 -5.37765179 13.39444091 -11 13 C-11.02688151 11.35425434 -11.04634123 9.70838587 -11.0625 8.0625 C-11.07410156 7.14597656 -11.08570313 6.22945312 -11.09765625 5.28515625 C-11 3 -11 3 -10 2 C-7.68182911 1.67902249 -5.36220643 1.48779044 -3.03125 1.28125 C-1.00819407 1.20934163 -1.00819407 1.20934163 0 0 Z " fill="#565656" transform="translate(296,163)"/>
<path d="M0 0 C1.1859375 0.00257813 2.371875 0.00515625 3.59375 0.0078125 C4.7796875 0.00523437 5.965625 0.00265625 7.1875 0 C10.09375 0.1328125 10.09375 0.1328125 11.09375 1.1328125 C11.16601502 2.98568752 11.1775622 4.84115128 11.15625 6.6953125 C11.14722656 7.70722656 11.13820313 8.71914062 11.12890625 9.76171875 C11.11730469 10.54417969 11.10570312 11.32664063 11.09375 12.1328125 C7.66685364 13.27511129 5.48272782 13.04142326 1.90625 12.6953125 C0.81957031 12.59347656 -0.26710938 12.49164063 -1.38671875 12.38671875 C-2.21816406 12.30292969 -3.04960937 12.21914062 -3.90625 12.1328125 C-3.93312279 10.32039198 -3.95258715 8.50786017 -3.96875 6.6953125 C-3.98035156 5.68597656 -3.99195313 4.67664063 -4.00390625 3.63671875 C-3.86315013 0.02773183 -3.64991859 0.16679735 0 0 Z " fill="#434343" transform="translate(265.90625,222.8671875)"/>
<path d="M0 0 C4.62 0 9.24 0 14 0 C14 1.65 14 3.3 14 5 C11.36 5 8.72 5 6 5 C8.39509338 7.89932357 10.31245243 8.50168276 14 9 C14 10.32 14 11.64 14 13 C11.36 13 8.72 13 6 13 C6 14.32 6 15.64 6 17 C6.66 17.33 7.32 17.66 8 18 C7.01 18 6.02 18 5 18 C4.67 17.01 4.34 16.02 4 15 C3.34 15 2.68 15 2 15 C1.67 17.31 1.34 19.62 1 22 C0.67 22 0.34 22 0 22 C0 14.74 0 7.48 0 0 Z " fill="#8A8A8A" transform="translate(197,388)"/>
<path d="M0 0 C1.98 0 3.96 0 6 0 C6 5.61 6 11.22 6 17 C8.64 17 11.28 17 14 17 C14 18.65 14 20.3 14 22 C9.38 22 4.76 22 0 22 C0 14.74 0 7.48 0 0 Z " fill="#797979" transform="translate(182,388)"/>
<path d="M0 0 C1.79244141 0.01740234 1.79244141 0.01740234 3.62109375 0.03515625 C5.41740234 0.04869141 5.41740234 0.04869141 7.25 0.0625 C8.17683594 0.07410156 9.10367187 0.08570313 10.05859375 0.09765625 C9.88457031 0.68417969 9.71054687 1.27070313 9.53125 1.875 C8.8502784 5.07725488 9.53389356 7.89115506 10.05859375 11.09765625 C10.05859375 12.08765625 10.05859375 13.07765625 10.05859375 14.09765625 C9.41921875 13.95328125 8.77984375 13.80890625 8.12109375 13.66015625 C4.12014587 12.92528827 0.10354479 12.51184514 -3.94140625 12.09765625 C-3.96827904 10.28523573 -3.9877434 8.47270392 -4.00390625 6.66015625 C-4.01550781 5.65082031 -4.02710938 4.64148438 -4.0390625 3.6015625 C-3.89749299 -0.02827964 -3.67773118 0.12210263 0 0 Z " fill="#595959" transform="translate(288.94140625,222.90234375)"/>
<path d="M0 0 C1.93166016 0.01740234 1.93166016 0.01740234 3.90234375 0.03515625 C5.19269531 0.04417969 6.48304688 0.05320313 7.8125 0.0625 C8.81152344 0.07410156 9.81054688 0.08570313 10.83984375 0.09765625 C10.83984375 3.72765625 10.83984375 7.35765625 10.83984375 11.09765625 C5.88984375 11.09765625 0.93984375 11.09765625 -4.16015625 11.09765625 C-4.2578125 3.3828125 -4.2578125 3.3828125 -4.16015625 1.09765625 C-3.16015625 0.09765625 -3.16015625 0.09765625 0 0 Z " fill="#4E4E4E" transform="translate(266.16015625,164.90234375)"/>
<path d="M0 0 C1.65 0 3.3 0 5 0 C6.30909091 8.72727273 6.30909091 8.72727273 5 12 C4.67 12.33 4.34 12.66 4 13 C4.66 13.33 5.32 13.66 6 14 C5.67 14.99 5.34 15.98 5 17 C5.33 17.66 5.66 18.32 6 19 C6 13.06 6 7.12 6 1 C6.66 0.67 7.32 0.34 8 0 C8 7.26 8 14.52 8 22 C5.36 22 2.72 22 0 22 C-0.63620854 17.94417058 -1 14.09781054 -1 10 C-1.33 9.67 -1.66 9.34 -2 9 C-2.36442233 7.33985384 -2.69972883 5.67293936 -3 4 C-2.01 4 -1.02 4 0 4 C0 3.01 0 2.02 0 1 C0 0.67 0 0.34 0 0 Z " fill="#7B7B7B" transform="translate(243,388)"/>
<path d="M0 0 C1.98 0 3.96 0 6 0 C8.63088617 3.85056904 8.0557121 7.69853631 7.6875 12.125 C7.61499023 13.21748047 7.61499023 13.21748047 7.54101562 14.33203125 C7.1489279 19.70214421 7.1489279 19.70214421 6 22 C2.9375 22.625 2.9375 22.625 0 23 C-0.19689005 19.72966072 -0.38089008 16.45872059 -0.5625 13.1875 C-0.61857422 12.25873047 -0.67464844 11.32996094 -0.73242188 10.37304688 C-0.78076172 9.48037109 -0.82910156 8.58769531 -0.87890625 7.66796875 C-0.9260376 6.84578857 -0.97316895 6.0236084 -1.02172852 5.17651367 C-1 3 -1 3 0 0 Z " fill="#595959" transform="translate(270,388)"/>
<path d="M0 0 C0.9075 0.00257813 1.815 0.00515625 2.75 0.0078125 C4.11125 0.00394531 4.11125 0.00394531 5.5 0 C7.75 0.1328125 7.75 0.1328125 8.75 1.1328125 C8.84851171 2.96397133 8.87972629 4.79901183 8.875 6.6328125 C8.87757813 7.633125 8.88015625 8.6334375 8.8828125 9.6640625 C8.75 12.1328125 8.75 12.1328125 7.75 13.1328125 C5.89712498 13.20507752 4.04166122 13.2166247 2.1875 13.1953125 C1.17558594 13.18628906 0.16367187 13.17726562 -0.87890625 13.16796875 C-1.66136719 13.15636719 -2.44382812 13.14476562 -3.25 13.1328125 C-3.27686553 11.15371852 -3.29633375 9.17452279 -3.3125 7.1953125 C-3.32410156 6.09316406 -3.33570313 4.99101562 -3.34765625 3.85546875 C-3.21617759 0.18984382 -3.21617759 0.18984382 0 0 Z " fill="#666666" transform="translate(292.25,192.8671875)"/>
<path d="M0 0 C1.98 0 3.96 0 6 0 C5.67 7.26 5.34 14.52 5 22 C3.02 22 1.04 22 -1 22 C-3 19 -3 19 -3 15 C-2.34 15 -1.68 15 -1 15 C-0.67 11.37 -0.34 7.74 0 4 C-0.66 3.67 -1.32 3.34 -2 3 C-1.34 3 -0.68 3 0 3 C0 2.01 0 1.02 0 0 Z " fill="#393939" transform="translate(263,388)"/>
<path d="M0 0 C3.3 0 6.6 0 10 0 C11 4 11 4 10 6 C7.525 5.01 7.525 5.01 5 4 C5 5.32 5 6.64 5 8 C6.98 8 8.96 8 11 8 C11 8.66 11 9.32 11 10 C10.34 10 9.68 10 9 10 C9.33 11.65 9.66 13.3 10 15 C9.34 15 8.68 15 8 15 C8 14.34 8 13.68 8 13 C6.68 13 5.36 13 4 13 C3.67 13.99 3.34 14.98 3 16 C2.01 16 1.02 16 0 16 C0 10.72 0 5.44 0 0 Z " fill="#505050" transform="translate(233,388)"/>
<path d="M0 0 C1.65 0 3.3 0 5 0 C7 2 7 2 7 5 C7.66 5 8.32 5 9 5 C9.33 6.98 9.66 8.96 10 11 C9.01 11.66 8.02 12.32 7 13 C6.01 12.01 5.02 11.02 4 10 C3.67 13.63 3.34 17.26 3 21 C2.01 21 1.02 21 0 21 C0 14.07 0 7.14 0 0 Z " fill="#3F3F3F" transform="translate(279,351)"/>
<path d="M0 0 C1.125 3.75 1.125 3.75 0 6 C-1.7634375 5.8453125 -1.7634375 5.8453125 -3.5625 5.6875 C-8.55075526 5.67865558 -11.43245064 7.66839967 -15 11 C-16.88303962 13.14176007 -16.88303962 13.14176007 -18 15 C-18.125 7.375 -18.125 7.375 -17 4 C-11.35044762 -0.20711348 -6.91851255 -0.50113974 0 0 Z " fill="#6C6C6C" transform="translate(316,388)"/>
<path d="M0 0 C1.98 0 3.96 0 6 0 C6.99290126 2.97870377 7.05524548 4.59182885 6.87890625 7.66796875 C6.83056641 8.56064453 6.78222656 9.45332031 6.73242188 10.37304688 C6.67634766 11.30181641 6.62027344 12.23058594 6.5625 13.1875 C6.51029297 14.12787109 6.45808594 15.06824219 6.40429688 16.03710938 C6.27468082 18.35841501 6.13971819 20.67928409 6 23 C4.35 23 2.7 23 1 23 C-0.4783226 20.04335481 -0.06032783 17.25770263 0 14 C0.66 14 1.32 14 2 14 C2.33 12.02 2.66 10.04 3 8 C2.34 8 1.68 8 1 8 C0.67 5.36 0.34 2.72 0 0 Z " fill="#606060" transform="translate(261,351)"/>
<path d="M0 0 C2.27639147 2.27639147 2.41956684 3.22894883 3 6.3125 C3.69314651 9.73972439 4.66685824 12.76237002 6 16 C6 16.99 6 17.98 6 19 C6.66 19 7.32 19 8 19 C8 17.35 8 15.7 8 14 C8.99 13.67 9.98 13.34 11 13 C11.33 12.34 11.66 11.68 12 11 C13.32 11 14.64 11 16 11 C15.67 11.66 15.34 12.32 15 13 C14.31744011 15.32873375 13.64949225 17.66182791 13 20 C8.37078475 21.0161692 4.65537393 20.83796731 0 20 C0.33 19.34 0.66 18.68 1 18 C1.66 18.33 2.32 18.66 3 19 C2.67 17.68 2.34 16.36 2 15 C2.66 15 3.32 15 4 15 C3.67 14.34 3.34 13.68 3 13 C1.35 13 -0.3 13 -2 13 C-1.67 11.68 -1.34 10.36 -1 9 C-0.01 9 0.98 9 2 9 C2 8.34 2 7.68 2 7 C1.34 7 0.68 7 0 7 C0 4.69 0 2.38 0 0 Z " fill="#696969" transform="translate(225,390)"/>
<path d="M0 0 C2.31 0 4.62 0 7 0 C10.07692308 5.41538462 10.07692308 5.41538462 9.6875 8.375 C9.460625 8.91125 9.23375 9.4475 9 10 C9 9.34 9 8.68 9 8 C7.68 8.33 6.36 8.66 5 9 C5.33 10.32 5.66 11.64 6 13 C4.68 13 3.36 13 2 13 C2 12.01 2 11.02 2 10 C0.68 10.33 -0.64 10.66 -2 11 C-1.85892253 9.54119891 -1.71197585 8.08296449 -1.5625 6.625 C-1.48128906 5.81289063 -1.40007812 5.00078125 -1.31640625 4.1640625 C-1 2 -1 2 0 0 Z " fill="#686868" transform="translate(217,351)"/>
<path d="M0 0 C0.33 0.66 0.66 1.32 1 2 C-6.59 2 -14.18 2 -22 2 C-21.67 4.97 -21.34 7.94 -21 11 C-12.75 11 -4.5 11 4 11 C4 11.66 4 12.32 4 13 C-4.91 13 -13.82 13 -23 13 C-24 9 -24 9 -23 1 C-15.41 0.67 -7.82 0.34 0 0 Z " fill="#737373" transform="translate(285,131)"/>
<path d="M0 0 C0.335939 1.4577353 0.66866624 2.91621106 1 4.375 C1.185625 5.18710937 1.37125 5.99921875 1.5625 6.8359375 C2 9 2 9 2 11 C1.34 11 0.68 11 0 11 C-0.33 11.66 -0.66 12.32 -1 13 C-2.65 11.68 -4.3 10.36 -6 9 C-6.99 9.495 -6.99 9.495 -8 10 C-8 7.03 -8 4.06 -8 1 C-5.07175348 0.02391783 -3.04386724 -0.08226668 0 0 Z " fill="#404040" transform="translate(307,283)"/>
<path d="M0 0 C1.65 0 3.3 0 5 0 C6.59456558 6.17894161 6.59456558 12.82105839 5 19 C4.01 19.33 3.02 19.66 2 20 C2 17.03 2 14.06 2 11 C1.34 10.67 0.68 10.34 0 10 C0 6.7 0 3.4 0 0 Z " fill="#565656" transform="translate(204,352)"/>
<path d="M0 0 C1.98 0 3.96 0 6 0 C7.60355101 3.50776784 8.22036864 6.14354879 8 10 C6.35 9.67 4.7 9.34 3 9 C3.33 10.32 3.66 11.64 4 13 C2.68 13 1.36 13 0 13 C0 8.71 0 4.42 0 0 Z " fill="#4B4B4B" transform="translate(189,351)"/>
<path d="M0 0 C0.33 0 0.66 0 1 0 C1 2.97 1 5.94 1 9 C1.66 8.34 2.32 7.68 3 7 C3 5.68 3 4.36 3 3 C4.32 3.33 5.64 3.66 7 4 C7.33 3.34 7.66 2.68 8 2 C8.66 2 9.32 2 10 2 C10.33 2.66 10.66 3.32 11 4 C12.65 4 14.3 4 16 4 C13.35751295 8.93264249 13.35751295 8.93264249 11 11 C7.46452018 11.64232381 4.6281243 11.33862493 1 11 C0.01 8.03 -0.98 5.06 -2 2 C-1.34 2 -0.68 2 0 2 C0 1.34 0 0.68 0 0 Z " fill="#6F6F6F" transform="translate(205,363)"/>
<path d="M0 0 C0.66 0 1.32 0 2 0 C2.33 5.28 2.66 10.56 3 16 C5.97 16 8.94 16 12 16 C12 17.32 12 18.64 12 20 C10.18757948 20.02687279 8.37504767 20.04633715 6.5625 20.0625 C5.55316406 20.07410156 4.54382813 20.08570313 3.50390625 20.09765625 C1 20 1 20 0 19 C-0.08651611 17.58429877 -0.10704904 16.164405 -0.09765625 14.74609375 C-0.09443359 13.89208984 -0.09121094 13.03808594 -0.08789062 12.15820312 C-0.07951172 11.26037109 -0.07113281 10.36253906 -0.0625 9.4375 C-0.05798828 8.53580078 -0.05347656 7.63410156 -0.04882812 6.70507812 C-0.03700225 4.46998686 -0.0205222 2.23502563 0 0 Z " fill="#424242" transform="translate(184,390)"/>
<path d="M0 0 C4.29 0 8.58 0 13 0 C13 1.65 13 3.3 13 5 C10.03 5 7.06 5 4 5 C4 5.66 4 6.32 4 7 C3.01 7 2.02 7 1 7 C1 8.65 1 10.3 1 12 C0.67 12 0.34 12 0 12 C0 8.04 0 4.08 0 0 Z " fill="#393939" transform="translate(198,388)"/>
<path d="M0 0 C0.91007812 0.00902344 1.82015625 0.01804687 2.7578125 0.02734375 C3.45648438 0.03894531 4.15515625 0.05054688 4.875 0.0625 C4.875 1.7125 4.875 3.3625 4.875 5.0625 C1.49682575 5.90704356 -0.79965243 6.17094919 -4.125 5.0625 C-4.24875 5.701875 -4.3725 6.34125 -4.5 7 C-4.70625 7.680625 -4.9125 8.36125 -5.125 9.0625 C-6.115 9.5575 -6.115 9.5575 -7.125 10.0625 C-7.125 7.0925 -7.125 4.1225 -7.125 1.0625 C-4.60024538 -0.19987731 -2.81299534 -0.03606404 0 0 Z " fill="#3B3B3B" transform="translate(307.125,350.9375)"/>
<path d="M0 0 C0.33 0 0.66 0 1 0 C1.33 6.27 1.66 12.54 2 19 C2.33 19 2.66 19 3 19 C3.04898437 18.36191406 3.09796875 17.72382813 3.1484375 17.06640625 C3.22320312 16.24011719 3.29796875 15.41382813 3.375 14.5625 C3.44460938 13.73878906 3.51421875 12.91507812 3.5859375 12.06640625 C3.72257812 11.38449219 3.85921875 10.70257813 4 10 C4.66 9.67 5.32 9.34 6 9 C6.33 9.99 6.66 10.98 7 12 C6.67 12.33 6.34 12.66 6 13 C5.76712992 14.68183948 5.58735834 16.3712416 5.4375 18.0625 C5.35371094 18.98160156 5.26992188 19.90070313 5.18359375 20.84765625 C5.12300781 21.55792969 5.06242187 22.26820313 5 23 C3.35 22.67 1.7 22.34 0 22 C0 16.06 0 10.12 0 4 C-0.66 4 -1.32 4 -2 4 C-2 9.94 -2 15.88 -2 22 C-2.33 22 -2.66 22 -3 22 C-3 15.73 -3 9.46 -3 3 C-2.34 3 -1.68 3 -1 3 C-0.67 2.01 -0.34 1.02 0 0 Z " fill="#B3B3B3" transform="translate(278,351)"/>
<path d="M0 0 C0.86625 0.556875 0.86625 0.556875 1.75 1.125 C2.08 0.465 2.41 -0.195 2.75 -0.875 C6.05 -0.545 9.35 -0.215 12.75 0.125 C10.4824275 2.3925725 9.76759214 2.3909911 6.75 3.125 C5.0175 3.8675 5.0175 3.8675 3.25 4.625 C-2.25 6.98214286 -2.25 6.98214286 -4.25 7.125 C-6 5.6875 -6 5.6875 -7.25 4.125 C-6.25 1.125 -6.25 1.125 -4.4375 -0.1875 C-2.25 -0.875 -2.25 -0.875 0 0 Z " fill="#414143" transform="translate(313.25,241.875)"/>
<path d="M0 0 C0.33 0 0.66 0 1 0 C1.33 3.96 1.66 7.92 2 12 C3.65 12.33 5.3 12.66 7 13 C6.01 15.97 5.02 18.94 4 22 C2.35 22 0.7 22 -1 22 C-0.67 14.74 -0.34 7.48 0 0 Z " fill="#7A7A7A" transform="translate(188,352)"/>
<path d="M0 0 C1.32 0 2.64 0 4 0 C4 2.73443983 3.94619449 5.38779091 3.78125 8.109375 C3.73613281 8.86347656 3.69101563 9.61757813 3.64453125 10.39453125 C3.59683594 11.17183594 3.54914063 11.94914062 3.5 12.75 C3.42845703 13.93916016 3.42845703 13.93916016 3.35546875 15.15234375 C3.23804206 17.10162682 3.1191637 19.05082235 3 21 C2.01 21.33 1.02 21.66 0 22 C0 14.74 0 7.48 0 0 Z " fill="#3D3D3D" transform="translate(251,388)"/>
<path d="M0 0 C1.65 0 3.3 0 5 0 C4.67 5.28 4.34 10.56 4 16 C-1 14 -1 14 -2 12 C-1.34 12 -0.68 12 0 12 C0 8.04 0 4.08 0 0 Z " fill="#323232" transform="translate(291,351)"/>
<path d="M0 0 C0.33 0 0.66 0 1 0 C1 7.26 1 14.52 1 22 C-0.65 22.33 -2.3 22.66 -4 23 C-6.50298434 20.06171403 -7.46930939 17.82097239 -8 14 C-5.69 14.33 -3.38 14.66 -1 15 C-0.67 10.05 -0.34 5.1 0 0 Z " fill="#757575" transform="translate(296,388)"/>
<path d="M0 0 C1.98 0.495 1.98 0.495 4 1 C4 2.65 4 4.3 4 6 C4.66 6 5.32 6 6 6 C5.67 7.32 5.34 8.64 5 10 C5 9.01 5 8.02 5 7 C4.01 7 3.02 7 2 7 C2 10.63 2 14.26 2 18 C1.01 18 0.02 18 -1 18 C-1.02690844 15.37493198 -1.04679404 12.75013827 -1.0625 10.125 C-1.07087891 9.37863281 -1.07925781 8.63226563 -1.08789062 7.86328125 C-1.11328125 2.2265625 -1.11328125 2.2265625 0 0 Z " fill="#3A3A3A" transform="translate(281,391)"/>
<path d="M0 0 C0.33 0 0.66 0 1 0 C1 1.98 1 3.96 1 6 C3.31 6 5.62 6 8 6 C8.33 6.99 8.66 7.98 9 9 C6.11788698 9.96070434 4.30149956 10.10581883 1.3125 10.0625 C-0.110625 10.041875 -1.53375 10.02125 -3 10 C-3 7.03 -3 4.06 -3 1 C-2.67 1.66 -2.34 2.32 -2 3 C-1.34 3 -0.68 3 0 3 C0 2.01 0 1.02 0 0 Z " fill="#3E3E3E" transform="translate(201,400)"/>
<path d="M0 0 C1.32 0 2.64 0 4 0 C4 6.93 4 13.86 4 21 C3.67 21 3.34 21 3 21 C2.690625 19.906875 2.38125 18.81375 2.0625 17.6875 C1.41662103 15.44592006 0.7376883 13.2130649 0 11 C-0.0685495 9.10529184 -0.08480372 7.2083166 -0.0625 5.3125 C-0.05347656 4.31863281 -0.04445313 3.32476562 -0.03515625 2.30078125 C-0.02355469 1.54152344 -0.01195312 0.78226562 0 0 Z " fill="#383838" transform="translate(292,388)"/>
<path d="M0 0 C2 2 2 2 2.5 4.5625 C2.665 5.366875 2.83 6.17125 3 7 C3.66 7.33 4.32 7.66 5 8 C5 9.65 5 11.3 5 13 C0.545 13.495 0.545 13.495 -4 14 C-3.79503906 13.32453125 -3.59007812 12.6490625 -3.37890625 11.953125 C-3.10949219 11.06109375 -2.84007812 10.1690625 -2.5625 9.25 C-2.16224609 7.92742187 -2.16224609 7.92742187 -1.75390625 6.578125 C-1.11531506 4.39434165 -0.53224167 2.21164502 0 0 Z " fill="#6A6A6A" transform="translate(218,388)"/>
<path d="M0 0 C1.98 0 3.96 0 6 0 C6 2.97 6 5.94 6 9 C6.66 9 7.32 9 8 9 C8 9.66 8 10.32 8 11 C7.01 11 6.02 11 5 11 C4.67 11.66 4.34 12.32 4 13 C3.87625 12.195625 3.7525 11.39125 3.625 10.5625 C3.315625 9.2940625 3.315625 9.2940625 3 8 C2.34 7.67 1.68 7.34 1 7 C0.59270772 4.67843403 0.25561323 2.3431213 0 0 Z " fill="#3B3B3B" transform="translate(219,388)"/>
<path d="M0 0 C13.25 0 13.25 0 18 1 C18.33 3.64 18.66 6.28 19 9 C18.34 9 17.68 9 17 9 C16.67 8.34 16.34 7.68 16 7 C15.34 7 14.68 7 14 7 C14 5.68 14 4.36 14 3 C13.01 3 12.02 3 11 3 C11 3.99 11 4.98 11 6 C10.34 5.67 9.68 5.34 9 5 C9.33 3.68 9.66 2.36 10 1 C6.7 1 3.4 1 0 1 C0 0.67 0 0.34 0 0 Z " fill="#878787" transform="translate(237,351)"/>
<path d="M0 0 C0.66 0.66 1.32 1.32 2 2 C1.34 3.65 0.68 5.3 0 7 C-2.97 6.67 -5.94 6.34 -9 6 C-9.33 6.66 -9.66 7.32 -10 8 C-10.33 6.68 -10.66 5.36 -11 4 C-10.34 4 -9.68 4 -9 4 C-9 3.34 -9 2.68 -9 2 C-6.94921875 1.77213542 -4.8984375 1.54427083 -2.84765625 1.31640625 C-0.98859771 1.18113386 -0.98859771 1.18113386 0 0 Z " fill="#373737" transform="translate(263,358)"/>
<path d="M0 0 C0.33 0.66 0.66 1.32 1 2 C3.64 1.34 6.28 0.68 9 0 C9 0.66 9 1.32 9 2 C8.34 2 7.68 2 7 2 C7.33 3.65 7.66 5.3 8 7 C7.34 7 6.68 7 6 7 C6 6.34 6 5.68 6 5 C4.68 5 3.36 5 2 5 C1.67 5.99 1.34 6.98 1 8 C0.01 8 -0.98 8 -2 8 C-2.125 5.125 -2.125 5.125 -2 2 C-1.34 1.34 -0.68 0.68 0 0 Z " fill="#3C3C3C" transform="translate(235,396)"/>
<path d="M0 0 C1.98 0 3.96 0 6 0 C5.67 7.26 5.34 14.52 5 22 C4.01 21.67 3.02 21.34 2 21 C2.66 21 3.32 21 4 21 C3.67 15.72 3.34 10.44 3 5 C1.35 4.67 -0.3 4.34 -2 4 C-1.34 3.67 -0.68 3.34 0 3 C0 2.01 0 1.02 0 0 Z " fill="#6B6B6B" transform="translate(263,388)"/>
<path d="M0 0 C0.33 0.66 0.66 1.32 1 2 C1.639375 2.103125 2.27875 2.20625 2.9375 2.3125 C5 3 5 3 6.3125 5.4375 C7 8 7 8 6 10 C5.34 10 4.68 10 4 10 C3.67 10.99 3.34 11.98 3 13 C-0.42857143 4.57142857 -0.42857143 4.57142857 0 0 Z " fill="#5A5A5A" transform="translate(256,393)"/>
<path d="M0 0 C2.64 0 5.28 0 8 0 C7.67 0.99 7.34 1.98 7 3 C7 2.34 7 1.68 7 1 C5.35 1 3.7 1 2 1 C1.34 2.65 0.68 4.3 0 6 C-6.625 7.25 -6.625 7.25 -10 5 C-9.01 5 -8.02 5 -7 5 C-7.33 4.01 -7.66 3.02 -8 2 C-6.68 1.67 -5.36 1.34 -4 1 C-4 2.32 -4 3.64 -4 5 C-3.34 5 -2.68 5 -2 5 C-1.34 3.35 -0.68 1.7 0 0 Z " fill="#7D7D7D" transform="translate(217,404)"/>
<path d="M0 0 C0.33 0 0.66 0 1 0 C1 4.29 1 8.58 1 13 C0.34 13 -0.32 13 -1 13 C-0.67 14.65 -0.34 16.3 0 18 C-1.98 18 -3.96 18 -6 18 C-6 16.35 -6 14.7 -6 13 C-4.35 12.34 -2.7 11.68 -1 11 C-0.67 7.37 -0.34 3.74 0 0 Z " fill="#777777" transform="translate(231,356)"/>
<path d="M0 0 C1.79244141 0.01740234 1.79244141 0.01740234 3.62109375 0.03515625 C5.41740234 0.04869141 5.41740234 0.04869141 7.25 0.0625 C8.17683594 0.07410156 9.10367187 0.08570313 10.05859375 0.09765625 C10.05859375 0.42765625 10.05859375 0.75765625 10.05859375 1.09765625 C6.42859375 1.42765625 2.79859375 1.75765625 -0.94140625 2.09765625 C-1.27140625 5.06765625 -1.60140625 8.03765625 -1.94140625 11.09765625 C0.69859375 11.09765625 3.33859375 11.09765625 6.05859375 11.09765625 C6.05859375 11.42765625 6.05859375 11.75765625 6.05859375 12.09765625 C2.75859375 12.09765625 -0.54140625 12.09765625 -3.94140625 12.09765625 C-3.96827904 10.28523573 -3.9877434 8.47270392 -4.00390625 6.66015625 C-4.01550781 5.65082031 -4.02710938 4.64148438 -4.0390625 3.6015625 C-3.89749299 -0.02827964 -3.67773118 0.12210263 0 0 Z " fill="#838383" transform="translate(265.94140625,222.90234375)"/>
<path d="M0 0 C0.33 0 0.66 0 1 0 C1 6.27 1 12.54 1 19 C1.99 19 2.98 19 4 19 C3.90460938 18.24074219 3.80921875 17.48148437 3.7109375 16.69921875 C3.60007812 15.70535156 3.48921875 14.71148437 3.375 13.6875 C3.25898438 12.70136719 3.14296875 11.71523438 3.0234375 10.69921875 C3 8 3 8 5 5 C5 5.99 5 6.98 5 8 C5.66 8 6.32 8 7 8 C6.67 8.66 6.34 9.32 6 10 C5.77377919 11.70363822 5.59111527 13.41328701 5.4375 15.125 C5.31181641 16.49011719 5.31181641 16.49011719 5.18359375 17.8828125 C5.12300781 18.58148438 5.06242187 19.28015625 5 20 C3.35 20 1.7 20 0 20 C0 13.4 0 6.8 0 0 Z " fill="#747474" transform="translate(279,390)"/>
<path d="M0 0 C3.422771 4.56369467 3.25517608 6.79682213 2.75 12.125 C2.69714844 12.85332031 2.64429688 13.58164062 2.58984375 14.33203125 C2.16567651 19.66864698 2.16567651 19.66864698 1 22 C0.01 21.67 -0.98 21.34 -2 21 C-1.34 21 -0.68 21 0 21 C0 14.07 0 7.14 0 0 Z " fill="#818181" transform="translate(275,388)"/>
<path d="M0 0 C5.94 0.99 5.94 0.99 12 2 C12 2.99 12 3.98 12 5 C7.71 5 3.42 5 -1 5 C-0.67 3.35 -0.34 1.7 0 0 Z " fill="#393939" transform="translate(300,368)"/>
<path d="M0 0 C0.66 0.66 1.32 1.32 2 2 C2.99 1.67 3.98 1.34 5 1 C5.33 3.64 5.66 6.28 6 9 C4.34385343 9.38218767 2.67542976 9.71395102 1 10 C0 9 0 9 -0.09765625 6.93359375 C-0.08605469 6.10988281 -0.07445312 5.28617187 -0.0625 4.4375 C-0.05347656 3.61121094 -0.04445313 2.78492188 -0.03515625 1.93359375 C-0.02355469 1.29550781 -0.01195312 0.65742188 0 0 Z " fill="#494949" transform="translate(299,396)"/>
<path d="M0 0 C1.32 0 2.64 0 4 0 C3.67 0.66 3.34 1.32 3 2 C2.31744011 4.32873375 1.64949225 6.66182791 1 9 C-0.65 9 -2.3 9 -4 9 C-4 7.02 -4 5.04 -4 3 C-3.01 2.67 -2.02 2.34 -1 2 C-0.67 1.34 -0.34 0.68 0 0 Z " fill="#575757" transform="translate(237,401)"/>
<path d="M0 0 C2.375 -0.125 2.375 -0.125 5 0 C7 2 7 2 7 5 C7.66 5 8.32 5 9 5 C9.33 6.32 9.66 7.64 10 9 C9.34 9 8.68 9 8 9 C8 8.01 8 7.02 8 6 C7.01 6.33 6.02 6.66 5 7 C2.3125 5.8125 2.3125 5.8125 0 4 C0 2.68 0 1.36 0 0 Z " fill="#5C5C5C" transform="translate(279,351)"/>
<path d="M0 0 C1.32 0.33 2.64 0.66 4 1 C4.28571429 8.42857143 4.28571429 8.42857143 2 12 C1.34 12 0.68 12 0 12 C0 8.04 0 4.08 0 0 Z " fill="#434343" transform="translate(232,357)"/>
<path d="M0 0 C0.33 0 0.66 0 1 0 C1 2.97 1 5.94 1 9 C1.66 8.34 2.32 7.68 3 7 C3 5.68 3 4.36 3 3 C3.99 3 4.98 3 6 3 C6.625 5.875 6.625 5.875 7 9 C6.34 9.66 5.68 10.32 5 11 C2.375 10.625 2.375 10.625 0 10 C-0.66 7.36 -1.32 4.72 -2 2 C-1.34 2 -0.68 2 0 2 C0 1.34 0 0.68 0 0 Z " fill="#959595" transform="translate(205,363)"/>
<path d="M0 0 C1.98 0 3.96 0 6 0 C4.02 0.99 4.02 0.99 2 2 C2 4.64 2 7.28 2 10 C1.01 10 0.02 10 -1 10 C-1.33 10.66 -1.66 11.32 -2 12 C-2.66 11.01 -3.32 10.02 -4 9 C-3.3203125 6.73828125 -3.3203125 6.73828125 -2.125 4.3125 C-1.73570312 3.50425781 -1.34640625 2.69601562 -0.9453125 1.86328125 C-0.63335937 1.24839844 -0.32140625 0.63351562 0 0 Z " fill="#636363" transform="translate(203,351)"/>
<path d="M0 0 C0.66 1.32 1.32 2.64 2 4 C-1.75 8.875 -1.75 8.875 -4 10 C-4.99 9.34 -5.98 8.68 -7 8 C-6.34 8 -5.68 8 -5 8 C-5 6.35 -5 4.7 -5 3 C-4.01 3 -3.02 3 -2 3 C-2 2.34 -2 1.68 -2 1 C-1.34 0.67 -0.68 0.34 0 0 Z " fill="#444445" transform="translate(355,187)"/>
<path d="M0 0 C0.99 0.495 0.99 0.495 2 1 C2 2.65 2 4.3 2 6 C2.33 6 2.66 6 3 6 C3 9.63 3 13.26 3 17 C2.01 17 1.02 17 0 17 C0 11.39 0 5.78 0 0 Z " fill="#393939" transform="translate(279,355)"/>
<path d="M0 0 C3.3 0 6.6 0 10 0 C10 1.65 10 3.3 10 5 C7.75 5.75 7.75 5.75 5 6 C2.6875 4.0625 2.6875 4.0625 1 2 C1.99 2 2.98 2 4 2 C2.68 1.34 1.36 0.68 0 0 Z " fill="#6E6E6E" transform="translate(302,351)"/>
<path d="M0 0 C1.65 0 3.3 0 5 0 C4.67 1.98 4.34 3.96 4 6 C0.71303767 6.79953138 -0.71023192 7.09658936 -4 6 C-3.34 4.68 -2.68 3.36 -2 2 C-1.34 2 -0.68 2 0 2 C0 1.34 0 0.68 0 0 Z " fill="#3E3E3F" transform="translate(219,129)"/>
<path d="M0 0 C0.33 0.99 0.66 1.98 1 3 C0.67 3.66 0.34 4.32 0 5 C0.99 5.33 1.98 5.66 3 6 C-0.465 7.485 -0.465 7.485 -4 9 C-4.66 7.35 -5.32 5.7 -6 4 C-4.02 3.34 -2.04 2.68 0 2 C0 1.34 0 0.68 0 0 Z " fill="#464646" transform="translate(219,359)"/>
<path d="M0 0 C0.99 0.33 1.98 0.66 3 1 C3 5.29 3 9.58 3 14 C2.01 13.67 1.02 13.34 0 13 C0.33 11.02 0.66 9.04 1 7 C0.34 7 -0.32 7 -1 7 C-0.67 4.69 -0.34 2.38 0 0 Z " fill="#434344" transform="translate(331,281)"/>
<path d="M0 0 C1.98 0.495 1.98 0.495 4 1 C4.33 2.32 4.66 3.64 5 5 C4.38125 5.2475 3.7625 5.495 3.125 5.75 C0.64931313 7.20628639 0.04874998 8.37812506 -1 11 C-1.125 3.375 -1.125 3.375 0 0 Z " fill="#6F6F6F" transform="translate(299,392)"/>
<path d="M0 0 C1.65 0 3.3 0 5 0 C5 3.3 5 6.6 5 10 C3 9 3 9 2 6 C1.34 6.66 0.68 7.32 0 8 C0 5.36 0 2.72 0 0 Z " fill="#3A3A3A" transform="translate(204,352)"/>
<path d="M0 0 C0.66 0 1.32 0 2 0 C2 3.96 2 7.92 2 12 C1.01 12.33 0.02 12.66 -1 13 C-0.67 11.68 -0.34 10.36 0 9 C-0.66 8.67 -1.32 8.34 -2 8 C-1.34 8 -0.68 8 0 8 C-0.2784375 6.2984375 -0.2784375 6.2984375 -0.5625 4.5625 C-0.7790625 2.7990625 -0.7790625 2.7990625 -1 1 C-0.67 0.67 -0.34 0.34 0 0 Z " fill="#6A6A6A" transform="translate(316,397)"/>
<path d="M0 0 C2.97 0 5.94 0 9 0 C9 1.32 9 2.64 9 4 C5.7 4 2.4 4 -1 4 C-0.67 2.68 -0.34 1.36 0 0 Z " fill="#3F3F3F" transform="translate(238,352)"/>
<path d="M0 0 C1.65 0 3.3 0 5 0 C5 3.11227195 4.54372951 5.94152152 4 9 C2.68 8.67 1.36 8.34 0 8 C0 5.36 0 2.72 0 0 Z " fill="#6B6B6B" transform="translate(189,364)"/>
<path d="M0 0 C2.64 0 5.28 0 8 0 C9.125 3.75 9.125 3.75 8 6 C6.02 5.34 4.04 4.68 2 4 C2 3.01 2 2.02 2 1 C1.34 0.67 0.68 0.34 0 0 Z " fill="#383838" transform="translate(235,388)"/>
<path d="M0 0 C4.29 0 8.58 0 13 0 C13.33 0.99 13.66 1.98 14 3 C7.07 2.505 7.07 2.505 0 2 C0 1.34 0 0.68 0 0 Z " fill="#676767" transform="translate(222,170)"/>
<path d="M0 0 C0.33 0 0.66 0 1 0 C1 2.97 1 5.94 1 9 C-0.32 9.33 -1.64 9.66 -3 10 C-3.66 8.68 -4.32 7.36 -5 6 C-4.360625 5.7525 -3.72125 5.505 -3.0625 5.25 C-0.81258459 4.18437567 -0.81258459 4.18437567 -0.25 1.875 C-0.1675 1.25625 -0.085 0.6375 0 0 Z " fill="#505050" transform="translate(265,400)"/>
<path d="M0 0 C2.76223278 2.76223278 2.57856291 5.20706617 3 9 C1.68 9.33 0.36 9.66 -1 10 C-2.46726798 6.18510326 -1.43336419 3.70988378 0 0 Z " fill="#555555" transform="translate(218,388)"/>
<path d="M0 0 C1.5625 1.8125 1.5625 1.8125 3 4 C2.67 4.99 2.34 5.98 2 7 C1.01 7.33 0.02 7.66 -1 8 C-1 7.34 -1 6.68 -1 6 C-1.99 6 -2.98 6 -4 6 C-4.33 4.68 -4.66 3.36 -5 2 C-2.525 2.495 -2.525 2.495 0 3 C0 2.01 0 1.02 0 0 Z " fill="#5C5C5C" transform="translate(197,358)"/>
<path d="M0 0 C1.65 0 3.3 0 5 0 C4.505 0.7425 4.505 0.7425 4 1.5 C2.56363642 5.09090894 2.87148538 8.14456127 3 12 C2.34 11.67 1.68 11.34 1 11 C0.5859375 8.49609375 0.5859375 8.49609375 0.375 5.4375 C0.30023438 4.42558594 0.22546875 3.41367187 0.1484375 2.37109375 C0.09945313 1.58863281 0.05046875 0.80617188 0 0 Z " fill="#595959" transform="translate(291,351)"/>
<path d="M0 0 C1.98 0 3.96 0 6 0 C5.67 1.32 5.34 2.64 5 4 C2.69 4 0.38 4 -2 4 C-1.34 2.68 -0.68 1.36 0 0 Z " fill="#464646" transform="translate(310,388)"/>
<path d="M0 0 C0.8971875 0.5259375 0.8971875 0.5259375 1.8125 1.0625 C4.10813214 2.33304698 4.10813214 2.33304698 7 1 C7.99 1.66 8.98 2.32 10 3 C7 4.5 7 4.5 4 6 C1.375 4.5625 1.375 4.5625 -1 3 C-0.67 2.01 -0.34 1.02 0 0 Z " fill="#565656" transform="translate(228,113)"/>
<path d="M0 0 C1.4606285 2.64738916 2 3.89448334 2 7 C2.66 7 3.32 7 4 7 C3.67 7.66 3.34 8.32 3 9 C0.69 8.67 -1.62 8.34 -4 8 C-3.67 7.34 -3.34 6.68 -3 6 C-2.34 6.33 -1.68 6.66 -1 7 C-1.33 5.68 -1.66 4.36 -2 3 C-1.34 3 -0.68 3 0 3 C0 2.01 0 1.02 0 0 Z " fill="#7B7B7B" transform="translate(229,402)"/>
<path d="M0 0 C1.67542976 0.28604898 3.34385343 0.61781233 5 1 C4.34 2.65 3.68 4.3 3 6 C0.03 6 -2.94 6 -6 6 C-6 5.67 -6 5.34 -6 5 C-2.535 4.505 -2.535 4.505 1 4 C1 3.34 1 2.68 1 2 C0.34 1.67 -0.32 1.34 -1 1 C-0.67 0.67 -0.34 0.34 0 0 Z " fill="#8B8B8B" transform="translate(244,368)"/>
<path d="M0 0 C0.66 0.99 1.32 1.98 2 3 C1.67 3.33 1.34 3.66 1 4 C0.76712992 5.68183948 0.58735834 7.3712416 0.4375 9.0625 C0.31181641 10.44115234 0.31181641 10.44115234 0.18359375 11.84765625 C0.12300781 12.55792969 0.06242187 13.26820313 0 14 C-1.32 14 -2.64 14 -4 14 C-3.68160156 13.43667969 -3.36320312 12.87335938 -3.03515625 12.29296875 C-1.93294941 9.85147661 -1.64397458 7.9703111 -1.4375 5.3125 C-1.09964413 1.09964413 -1.09964413 1.09964413 0 0 Z " fill="#8F8F8F" transform="translate(283,360)"/>
<path d="M0 0 C0.515625 0.2475 1.03125 0.495 1.5625 0.75 C0.5725 0.75 -0.4175 0.75 -1.4375 0.75 C-1.705625 1.389375 -1.97375 2.02875 -2.25 2.6875 C-3.4375 4.75 -3.4375 4.75 -6.4375 5.75 C-7.4275 5.09 -8.4175 4.43 -9.4375 3.75 C-3.0375 -0.31153846 -3.0375 -0.31153846 0 0 Z M-8.4375 5.75 C-7.7775 6.08 -7.1175 6.41 -6.4375 6.75 C-7.4275 6.75 -8.4175 6.75 -9.4375 6.75 C-9.1075 6.42 -8.7775 6.09 -8.4375 5.75 Z " fill="#676768" transform="translate(243.4375,279.25)"/>
<path d="M0 0 C2.31 0.33 4.62 0.66 7 1 C7.33 1.99 7.66 2.98 8 4 C5.36 4 2.72 4 0 4 C0 2.68 0 1.36 0 0 Z " fill="#3C3C3C" transform="translate(238,369)"/>
<path d="M0 0 C0 1.65 0 3.3 0 5 C-2.97 4.67 -5.94 4.34 -9 4 C-9 3.67 -9 3.34 -9 3 C-7.35 3 -5.7 3 -4 3 C-4 2.34 -4 1.68 -4 1 C-2 0 -2 0 0 0 Z " fill="#636366" transform="translate(172,281)"/>
<path d="M0 0 C-0.125 1.75 -0.125 1.75 -1 4 C-3.58581657 5.92560809 -6.1181072 7.5590536 -9 9 C-9 8.01 -9 7.02 -9 6 C-8.34 6 -7.68 6 -7 6 C-7 5.34 -7 4.68 -7 4 C-2.52941176 0 -2.52941176 0 0 0 Z " fill="#717171" transform="translate(156,231)"/>
<path d="M0 0 C0.66 0.33 1.32 0.66 2 1 C1.71125 1.556875 1.4225 2.11375 1.125 2.6875 C-0.0413253 5.08494645 -1.0339881 7.51596939 -2 10 C-2.66 10 -3.32 10 -4 10 C-4.33 10.66 -4.66 11.32 -5 12 C-4.52389341 7.00088076 -2.96837781 4.02167317 0 0 Z " fill="#767677" transform="translate(121,175)"/>
<path d="M0 0 C1.98 0 3.96 0 6 0 C6.33 0.99 6.66 1.98 7 3 C3.52674819 4.1577506 0.63932552 4.06866652 -3 4 C-1.68 3.34 -0.36 2.68 1 2 C0.67 1.34 0.34 0.68 0 0 Z " fill="#373737" transform="translate(203,406)"/>
<path d="M0 0 C1.98 0 3.96 0 6 0 C6.36923077 4.55384615 6.36923077 4.55384615 4.5 6.8125 C4.005 7.204375 3.51 7.59625 3 8 C3 6.35 3 4.7 3 3 C2.01 2.67 1.02 2.34 0 2 C0 1.34 0 0.68 0 0 Z " fill="#3F3F3F" transform="translate(310,397)"/>
<path d="M0 0 C0 1.65 0 3.3 0 5 C-2.64 5 -5.28 5 -8 5 C-5.54299754 1.19164619 -5.54299754 1.19164619 -2.875 0.25 C-1 0 -1 0 0 0 Z " fill="#5A5A5A" transform="translate(211,388)"/>
<path d="M0 0 C3.3 0 6.6 0 10 0 C10.33 0.99 10.66 1.98 11 3 C7.37 3 3.74 3 0 3 C0 2.01 0 1.02 0 0 Z " fill="#797979" transform="translate(209,322)"/>
<path d="M0 0 C0.66 0.66 1.32 1.32 2 2 C1.34 3.65 0.68 5.3 0 7 C-0.66 7 -1.32 7 -2 7 C-2 6.34 -2 5.68 -2 5 C-3.32 4.67 -4.64 4.34 -6 4 C-4 2.66666667 -2 1.33333333 0 0 Z " fill="#3F3F3F" transform="translate(263,358)"/>
<path d="M0 0 C2.31 0.66 4.62 1.32 7 2 C5.25 3.5625 5.25 3.5625 3 5 C0.75 4.6875 0.75 4.6875 -1 4 C-0.67 2.68 -0.34 1.36 0 0 Z M7 0 C7.66 0.66 8.32 1.32 9 2 C8.34 2 7.68 2 7 2 C7 1.34 7 0.68 7 0 Z " fill="#3D3D3D" transform="translate(331,250)"/>
<path d="M0 0 C0.99 0 1.98 0 3 0 C2.125 4.75 2.125 4.75 1 7 C0.34 7 -0.32 7 -1 7 C-1.04254356 5.00045254 -1.04080783 2.99958364 -1 1 C-0.67 0.67 -0.34 0.34 0 0 Z " fill="#434343" transform="translate(214,402)"/>
<path d="M0 0 C1.32 0.33 2.64 0.66 4 1 C3.67 3.31 3.34 5.62 3 8 C2.01 8 1.02 8 0 8 C0 5.36 0 2.72 0 0 Z " fill="#3E3E3E" transform="translate(206,364)"/>
<path d="M0 0 C1.07349791 4.29399165 0.79682816 5.19495213 -1 9 C-2.32 8.67 -3.64 8.34 -5 8 C-3.35 5.36 -1.7 2.72 0 0 Z " fill="#6F6F6F" transform="translate(199,183)"/>
<path d="M0 0 C0.66 0.33 1.32 0.66 2 1 C1.67 3.31 1.34 5.62 1 8 C0.67 7.01 0.34 6.02 0 5 C-2.01508358 4.26676204 -2.01508358 4.26676204 -4 4 C-2.68 2.68 -1.36 1.36 0 0 Z M2 2 C2.99 2.495 2.99 2.495 4 3 C3.01 3.495 3.01 3.495 2 4 C2 3.34 2 2.68 2 2 Z " fill="#373739" transform="translate(195,105)"/>
<path d="M0 0 C0.33 1.32 0.66 2.64 1 4 C-1.31 3.67 -3.62 3.34 -6 3 C-6 2.34 -6 1.68 -6 1 C-4.02 0.67 -2.04 0.34 0 0 Z " fill="#4B4B4B" transform="translate(195,406)"/>
<path d="M0 0 C2.475 0.99 2.475 0.99 5 2 C4.01 2.495 4.01 2.495 3 3 C3 3.66 3 4.32 3 5 C3.66 5 4.32 5 5 5 C4.67 6.32 4.34 7.64 4 9 C0 2.25 0 2.25 0 0 Z " fill="#565656" transform="translate(178,301)"/>
<path d="M0 0 C0.33 0.99 0.66 1.98 1 3 C1.66 3 2.32 3 3 3 C2.67 3.66 2.34 4.32 2 5 C1.77532169 6.53668865 1.59203195 8.07968054 1.4375 9.625 C1.35371094 10.44226563 1.26992188 11.25953125 1.18359375 12.1015625 C1.12300781 12.72804688 1.06242187 13.35453125 1 14 C0.67 14 0.34 14 0 14 C-0.19532961 12.2300132 -0.38098882 10.45895721 -0.5625 8.6875 C-0.66691406 7.70136719 -0.77132813 6.71523438 -0.87890625 5.69921875 C-1 3 -1 3 0 0 Z " fill="#ACACAC" transform="translate(283,395)"/>
<path d="M0 0 C3.3 0.33 6.6 0.66 10 1 C7.23776722 3.76223278 4.79293383 3.57856291 1 4 C0.67 2.68 0.34 1.36 0 0 Z " fill="#3A3A3B" transform="translate(316,241)"/>
<path d="M0 0 C0.99 0.33 1.98 0.66 3 1 C2.67 1.99 2.34 2.98 2 4 C0.02 4.33 -1.96 4.66 -4 5 C-4 4.34 -4 3.68 -4 3 C-2.1875 1.3125 -2.1875 1.3125 0 0 Z " fill="#6B6B6D" transform="translate(129,168)"/>
<path d="M0 0 C0.99 0.33 1.98 0.66 3 1 C2.67 1.99 2.34 2.98 2 4 C2.99 4.33 3.98 4.66 5 5 C2.125 5.125 2.125 5.125 -1 5 C-1.66 4.34 -2.32 3.68 -3 3 C-2.01 2.01 -1.02 1.02 0 0 Z " fill="#3B3B3C" transform="translate(235,161)"/>
<path d="M0 0 C2.97 0 5.94 0 9 0 C9 0.33 9 0.66 9 1 C7.02 1 5.04 1 3 1 C3 1.66 3 2.32 3 3 C3.66 3.33 4.32 3.66 5 4 C3.35 3.67 1.7 3.34 0 3 C0 2.01 0 1.02 0 0 Z " fill="#383838" transform="translate(186,406)"/>
<path d="M0 0 C0.66 0.33 1.32 0.66 2 1 C2 2.32 2 3.64 2 5 C-0.31 5 -2.62 5 -5 5 C-3.35 3.35 -1.7 1.7 0 0 Z " fill="#868686" transform="translate(209,396)"/>
<path d="M0 0 C0.99 0 1.98 0 3 0 C3.33 1.65 3.66 3.3 4 5 C2.68 5 1.36 5 0 5 C0 3.35 0 1.7 0 0 Z " fill="#3B3B3B" transform="translate(263,368)"/>
<path d="M0 0 C1.32 0.33 2.64 0.66 4 1 C2.68 2.32 1.36 3.64 0 5 C-0.99 4.67 -1.98 4.34 -3 4 C-2.67 3.34 -2.34 2.68 -2 2 C-1.34 2 -0.68 2 0 2 C0 1.34 0 0.68 0 0 Z " fill="#616161" transform="translate(235,352)"/>
<path d="M0 0 C1.98 0.66 3.96 1.32 6 2 C4.25 3.125 4.25 3.125 2 4 C-0.25 3.125 -0.25 3.125 -2 2 C-1.34 1.34 -0.68 0.68 0 0 Z " fill="#3E3E3F" transform="translate(312,297)"/>
<path d="M0 0 C1.32 0 2.64 0 4 0 C4 1.65 4 3.3 4 5 C2.68 5.33 1.36 5.66 0 6 C0.66 4.68 1.32 3.36 2 2 C1.34 2 0.68 2 0 2 C0 1.34 0 0.68 0 0 Z " fill="#5C5C5D" transform="translate(382,197)"/>
<path d="M0 0 C0.6875 1.75 0.6875 1.75 1 4 C-0.4375 6.25 -0.4375 6.25 -2 8 C-2.66 6.35 -3.32 4.7 -4 3 C-3.01 2.67 -2.02 2.34 -1 2 C-0.67 1.34 -0.34 0.68 0 0 Z " fill="#676767" transform="translate(289,360)"/>
<path d="M0 0 C0.66 0 1.32 0 2 0 C1.6875 1.875 1.6875 1.875 1 4 C0.01 4.66 -0.98 5.32 -2 6 C-2 2 -2 2 0 0 Z " fill="#616161" transform="translate(190,186)"/>
<path d="M0 0 C0.99 0.33 1.98 0.66 3 1 C3 3.31 3 5.62 3 8 C0.9375 5.6875 0.9375 5.6875 -1 3 C-0.67 2.01 -0.34 1.02 0 0 Z " fill="#3C3C3E" transform="translate(250,178)"/>
<path d="M0 0 C0.93423645 3.01031744 1.04449911 3.86650268 0 7 C-1.5 5.6875 -1.5 5.6875 -3 4 C-3 3.01 -3 2.02 -3 1 C-2.01 0.67 -1.02 0.34 0 0 Z " fill="#5F5F61" transform="translate(189,146)"/>
<path d="" fill="#808080" transform="translate(0,0)"/>
<path d="" fill="#FFFFFF" transform="translate(0,0)"/>
<path d="" fill="#FFFFFF" transform="translate(0,0)"/>
<path d="" fill="#000000" transform="translate(0,0)"/>
<path d="" fill="#555555" transform="translate(0,0)"/>
<path d="" fill="#808080" transform="translate(0,0)"/>
</svg>
