<?xml version="1.0" standalone="no"?>
<!DOCTYPE svg PUBLIC "-//W3C//DTD SVG 20010904//EN"
 "http://www.w3.org/TR/2001/REC-SVG-20010904/DTD/svg10.dtd">
<svg version="1.0" xmlns="http://www.w3.org/2000/svg"
 width="657.000000pt" height="380.000000pt" viewBox="0 0 657.000000 380.000000"
 preserveAspectRatio="xMidYMid meet">

<g transform="translate(0.000000,380.000000) scale(0.100000,-0.100000)"
fill="#000000" stroke="none">
<path d="M2046 3210 c-67 -21 -113 -100 -100 -171 10 -50 25 -75 115 -195 44
-60 85 -116 89 -125 5 -8 29 -77 54 -152 52 -156 108 -274 161 -337 27 -32 35
-49 30 -64 -23 -70 -56 -212 -65 -280 -27 -194 34 -428 140 -531 29 -29 48
-38 84 -42 40 -5 48 -2 74 23 29 29 41 73 57 202 4 28 10 52 14 52 4 0 24 -35
45 -77 49 -100 108 -175 198 -253 40 -35 95 -84 122 -109 49 -46 49 -46 -12
26 -124 147 -272 407 -345 607 -7 18 -8 18 -27 1 -64 -58 -91 -136 -115 -327
-5 -38 -10 -48 -25 -48 -31 0 -77 68 -107 159 -26 79 -28 98 -28 236 0 148 1
151 38 254 20 58 37 117 37 132 0 19 -15 45 -46 80 -58 65 -104 160 -150 309
-46 146 -65 183 -159 309 -112 150 -128 205 -66 231 23 9 39 7 91 -10 87 -29
167 -71 227 -119 50 -39 54 -41 150 -47 151 -10 272 -58 446 -177 100 -68 263
-219 335 -310 98 -123 196 -285 217 -357 9 -31 143 -321 210 -454 28 -54 61
-107 75 -117 14 -11 84 -39 155 -64 114 -40 148 -57 271 -140 151 -102 197
-141 173 -149 -8 -2 -63 -7 -124 -9 -82 -4 -130 -12 -189 -31 -105 -35 -108
-38 -89 -84 39 -95 154 -192 329 -277 62 -30 151 -84 198 -119 47 -36 86 -61
86 -56 0 14 -139 169 -201 224 -29 26 -84 66 -123 89 -72 43 -164 122 -154
133 9 8 123 34 223 49 120 19 165 33 165 51 0 24 -138 155 -255 242 -102 76
-260 163 -347 191 -20 7 -42 19 -48 27 -19 21 -176 346 -221 454 -72 172 -83
194 -150 295 -85 128 -111 161 -217 269 -104 106 -212 192 -352 281 -123 78
-223 112 -364 127 -90 9 -104 13 -140 42 -120 97 -307 162 -390 136z"/>
<path d="M2490 2750 c0 -5 12 -24 28 -42 15 -18 36 -51 46 -73 l18 -40 19 24
c45 55 -1 141 -75 141 -20 0 -36 -4 -36 -10z"/>
</g>
</svg>
