<?xml version="1.0" encoding="UTF-8"?>
<svg version="1.1" xmlns="http://www.w3.org/2000/svg" width="500" height="500">
<path d="M0 0 C4.43727178 -0.11756758 8.87413528 -0.18770716 13.3125 -0.25 C14.55580078 -0.28351563 15.79910156 -0.31703125 17.08007812 -0.3515625 C27.75665845 -0.46365258 36.37628176 1.48430178 45 8 C45.63550781 8.43054688 46.27101563 8.86109375 46.92578125 9.3046875 C55.83854583 15.51508843 61.04116036 23.69194654 63.53753662 34.27986145 C64.03490062 37.2052801 64.14136027 39.9496267 64.16113281 42.91674805 C64.17074036 44.08533859 64.1803479 45.25392914 64.19024658 46.45793152 C64.1966214 48.3408062 64.1966214 48.3408062 64.203125 50.26171875 C64.20882507 51.56268997 64.21452515 52.86366119 64.22039795 54.20405579 C64.23088084 56.95692329 64.23674061 59.70976185 64.24023438 62.46264648 C64.24570099 65.96482302 64.26970065 69.46660724 64.29820633 72.96866131 C64.32148387 76.33717171 64.3232926 79.70563222 64.328125 83.07421875 C64.3404718 84.31934738 64.3528186 85.56447601 64.36553955 86.84733582 C64.33422705 99.20447656 61.38002694 110.87717519 52.8828125 120.20703125 C40.31307123 132.17697159 27.31004839 135.18638142 10.53295898 135.11352539 C9.18499489 135.11374443 9.18499489 135.11374443 7.80979919 135.1139679 C4.87187188 135.11327733 1.93400984 135.10552543 -1.00390625 135.09765625 C-3.0537055 135.09578902 -5.1035052 135.09436656 -7.15330505 135.09336853 C-12.52411145 135.08956733 -17.89489041 135.07975773 -23.26568604 135.06866455 C-28.75589629 135.05839868 -34.24611102 135.05385986 -39.73632812 135.04882812 C-50.49089741 135.03813313 -61.24544642 135.02108577 -72 135 C-72 136.32 -72 137.64 -72 139 C-70.76305138 138.99666908 -70.76305138 138.99666908 -69.50111389 138.99327087 C-61.74601743 138.97326948 -53.99093339 138.95802665 -46.23581791 138.94818783 C-42.248428 138.94295964 -38.26105933 138.93586316 -34.27368164 138.92456055 C-30.42874886 138.91372939 -26.58383655 138.90772268 -22.73888969 138.90512276 C-21.26881017 138.90326892 -19.79873182 138.89964909 -18.32866096 138.89426994 C-16.27645533 138.88705645 -14.22433533 138.88600919 -12.17211914 138.88647461 C-11.00185684 138.884254 -9.83159454 138.88203339 -8.62586975 138.87974548 C-6 139 -6 139 -5 140 C-4.74501788 143.30448256 -4.8147523 146.62437089 -4.8125 149.9375 C-4.80025391 150.85080078 -4.78800781 151.76410156 -4.77539062 152.70507812 C-4.74201885 168.42318474 -9.57065786 180.18885228 -20 192 C-30.51279634 201.7444192 -43.53335966 203.62103216 -57.375 203.53125 C-58.71533487 203.53395635 -60.05566781 203.53784816 -61.39599609 203.54284668 C-64.18281041 203.54868834 -66.96910617 203.54035463 -69.75585938 203.52148438 C-73.289147 203.49869685 -76.82121842 203.51184918 -80.35446167 203.53577423 C-83.11556808 203.55037896 -85.87639641 203.54556017 -88.63751221 203.53526306 C-90.56092133 203.53137939 -92.48434226 203.5433104 -94.40771484 203.55578613 C-108.6016827 203.40644124 -119.63472949 199.69654338 -130 190 C-143.57912837 174.36194242 -143.17885005 156.59118488 -143.13037109 136.9609375 C-143.12499447 134.37233668 -143.13035736 131.7839082 -143.13671875 129.1953125 C-143.14707426 110.61552918 -142.08457419 95.55371936 -129 81 C-122.78959752 75.44983964 -115.92804435 72.35561701 -108 70 C-107.4101683 69.82294022 -106.82033661 69.64588043 -106.21263123 69.4634552 C-103.48488701 68.89210502 -100.94050054 68.86752158 -98.15258789 68.8581543 C-96.97358414 68.85111984 -95.79458038 68.84408539 -94.57984924 68.83683777 C-93.30697556 68.83267349 -92.03410187 68.82850922 -90.72265625 68.82421875 C-88.70877653 68.80695413 -86.6948967 68.78966515 -84.68102932 68.77101612 C-79.72838206 68.72565656 -74.77584131 68.68780156 -69.82299805 68.67407227 C-66.36863532 68.66387257 -62.91487493 68.63424516 -59.46075249 68.59275246 C-57.53080402 68.57476082 -55.60069965 68.57706612 -53.67066956 68.58000183 C-41.93882825 68.41976219 -31.98787539 65.78974688 -22.12109375 59.3671875 C-20 58 -20 58 -17.78515625 57.0078125 C-15.64908631 56.06502699 -15.64908631 56.06502699 -15 53 C-14.34 53 -13.68 53 -13 53 C-13 52.34 -13 51.68 -13 51 C-12.34 51 -11.68 51 -11 51 C-10.62875 49.9790625 -10.62875 49.9790625 -10.25 48.9375 C-9 46 -9 46 -7.125 43.0625 C0.36851521 29.78747118 -0.202085 14.7905313 0 0 Z M-45 161 C-48.07841184 165.30977658 -48.45865747 168.79183449 -47.6171875 173.875 C-46.54006466 177.58357485 -45.27920669 178.96689185 -42 181 C-36.81916908 181.87125084 -32.54534659 181.88305519 -27.9375 179.25 C-25.2364647 176.11331384 -24.16319735 174.25117971 -23.625 170.125 C-24.21853572 165.17886897 -26.49258292 162.22223006 -30.3125 159.125 C-35.72727715 156.8583491 -40.4687725 157.22397709 -45 161 Z " fill="#FDCE3D" transform="translate(324,184)"/>
<path d="M0 0 C1.28961136 -0.0066568 2.57922272 -0.0133136 3.90791321 -0.02017212 C6.63029324 -0.03209251 9.35254692 -0.03585859 12.07495117 -0.03466797 C15.52647109 -0.03446552 18.97716085 -0.06171343 22.42848492 -0.09621239 C25.7648318 -0.12409758 29.10103866 -0.12263776 32.4375 -0.125 C34.26785042 -0.14655655 34.26785042 -0.14655655 36.13517761 -0.16854858 C49.69543926 -0.09750222 61.35927511 3.36849906 71.18359375 12.88671875 C79.07376283 21.20245089 84.7573455 29.8116151 84.84130859 41.62573242 C84.8540683 42.851082 84.866828 44.07643158 84.87997437 45.33891296 C84.88220001 46.65148575 84.88442566 47.96405853 84.88671875 49.31640625 C84.89315675 50.69395583 84.89988584 52.07150409 84.90689087 53.4490509 C84.91883733 56.33300947 84.92257465 59.21684853 84.92138672 62.10083008 C84.9211842 65.76781689 84.9484272 69.43402285 84.98293114 73.10082531 C85.00535015 75.94673568 85.00921965 78.79246297 85.00816727 81.63845253 C85.01162712 83.63843677 85.03320115 85.63836387 85.05526733 87.63822937 C85.00724165 97.32499436 82.93688802 104.76635517 78.55078125 113.3359375 C77.89078125 113.3359375 77.23078125 113.3359375 76.55078125 113.3359375 C76.29683594 113.903125 76.04289063 114.4703125 75.78125 115.0546875 C70.97511093 123.96511676 63.83451887 129.09747683 54.36328125 132.0234375 C52.76289492 132.47457002 51.15885983 132.91304246 49.55078125 133.3359375 C48.96394058 133.51033356 48.37709991 133.68472961 47.7724762 133.8644104 C45.03223101 134.44599333 42.47384689 134.47617702 39.67163086 134.49365234 C38.48617172 134.50391449 37.30071259 134.51417664 36.07933044 134.52474976 C34.80018265 134.53205109 33.52103485 134.53935242 32.203125 134.546875 C30.86755053 134.55985418 29.53198396 134.57367197 28.19642639 134.58828735 C22.53865719 134.64962079 16.88090771 134.70370144 11.22290039 134.73730469 C7.75565956 134.75844456 4.28879986 134.79390396 0.82177925 134.83806229 C-1.12044472 134.8588252 -3.06281369 134.86423751 -5.00514221 134.86923218 C-15.03006901 135.00676782 -24.13588605 136.13938419 -32.51171875 142.0234375 C-37.29186885 145.3359375 -37.29186885 145.3359375 -39.44921875 145.3359375 C-39.44921875 145.9959375 -39.44921875 146.6559375 -39.44921875 147.3359375 C-41.82421875 149.9609375 -41.82421875 149.9609375 -44.44921875 152.3359375 C-45.10921875 152.3359375 -45.76921875 152.3359375 -46.44921875 152.3359375 C-46.69671875 153.0371875 -46.94421875 153.7384375 -47.19921875 154.4609375 C-48.44921875 157.3359375 -48.44921875 157.3359375 -50.32421875 159.8359375 C-58.19895013 171.75126139 -57.15428048 186.35397512 -57.30737305 200.04199219 C-57.44921875 202.3359375 -57.44921875 202.3359375 -58.44921875 203.3359375 C-62.56604892 203.64925913 -66.69696298 203.61468132 -70.82421875 203.6484375 C-71.96761719 203.67744141 -73.11101562 203.70644531 -74.2890625 203.73632812 C-87.53879436 203.8343068 -99.44130145 199.18048761 -109.19921875 190.0859375 C-119.60693807 178.86818342 -121.92098855 166.03046008 -121.8828125 151.15234375 C-121.89067528 149.3262986 -121.89067528 149.3262986 -121.8986969 147.46336365 C-121.90507886 144.90616615 -121.90383021 142.34893915 -121.89526367 139.79174805 C-121.88674865 135.91205867 -121.91558083 132.03384161 -121.94726562 128.15429688 C-121.948878 125.65364627 -121.94829942 123.15299309 -121.9453125 120.65234375 C-121.95654648 119.51027969 -121.96778046 118.36821564 -121.97935486 117.19154358 C-121.87965139 105.48481503 -119.01786088 92.18893643 -110.64453125 83.453125 C-106.02945131 79.3359375 -106.02945131 79.3359375 -103.44921875 79.3359375 C-103.44921875 78.6759375 -103.44921875 78.0159375 -103.44921875 77.3359375 C-101.76690406 76.3685305 -100.07806678 75.41246304 -98.38671875 74.4609375 C-97.44699219 73.92726563 -96.50726563 73.39359375 -95.5390625 72.84375 C-88.75434435 69.53287616 -82.9113335 69.05011984 -75.47485352 69.10888672 C-74.49847427 69.10859467 -73.52209503 69.10830261 -72.51612854 69.10800171 C-69.30753513 69.10938858 -66.09917756 69.12491958 -62.890625 69.140625 C-60.65860623 69.14435741 -58.42658582 69.14720331 -56.19456482 69.14920044 C-50.33378538 69.15681891 -44.47310583 69.1764521 -38.61236572 69.1986084 C-32.62635652 69.2191053 -26.6403311 69.22821038 -20.65429688 69.23828125 C-8.91922706 69.25969964 2.81576877 69.29381404 14.55078125 69.3359375 C14.55078125 67.6859375 14.55078125 66.0359375 14.55078125 64.3359375 C-7.22921875 64.3359375 -29.00921875 64.3359375 -51.44921875 64.3359375 C-51.44921875 27.86692924 -51.44921875 27.86692924 -38.44921875 13.3359375 C-37.70671875 12.4284375 -36.96421875 11.5209375 -36.19921875 10.5859375 C-25.33003996 1.69297304 -13.53268091 0.02447991 0 0 Z M-31.76171875 26.5234375 C-33.94201356 30.15726218 -34.39164244 33.25476374 -33.44921875 37.3359375 C-31.43697236 40.83048753 -28.80085299 43.10151468 -25.44921875 45.3359375 C-20.63381251 45.80958402 -18.3980692 45.82793403 -14.07421875 43.5859375 C-10.97306807 40.92780835 -9.65764463 39.52894026 -9.26953125 35.4453125 C-9.0629361 30.0166301 -9.0629361 30.0166301 -11.44921875 25.3359375 C-19.18983079 19.97705224 -24.71033465 19.8532093 -31.76171875 26.5234375 Z " fill="#356D99" transform="translate(233.44921875,112.6640625)"/>
<path d="M0 0 C-2 3 -2 3 -5.70874023 4.17529297 C-12.30778076 5.444494 -18.96785901 5.24825311 -25.66015625 5.1953125 C-27.0597666 5.19157474 -28.45937961 5.18873138 -29.85899353 5.18673706 C-33.51353387 5.17916061 -37.16791108 5.15956486 -40.8223877 5.1373291 C-44.56320999 5.11674041 -48.30405906 5.10770771 -52.04492188 5.09765625 C-59.363355 5.07631224 -66.6816545 5.04225024 -74 5 C-74 5.66 -74 6.32 -74 7 C-75.89453221 7.64964023 -77.79068649 8.29455115 -79.6875 8.9375 C-81.27111328 9.47697266 -81.27111328 9.47697266 -82.88671875 10.02734375 C-86 11 -86 11 -88.82421875 11.5078125 C-89.90123047 11.75144531 -89.90123047 11.75144531 -91 12 C-92.16666667 13.91666667 -92.16666667 13.91666667 -93 16 C-93.99 16.66 -94.98 17.32 -96 18 C-99.69591265 22.08540062 -99.69591265 22.08540062 -102 27 C-105.0625 28.1875 -105.0625 28.1875 -108 29 C-104.52207931 19.46915965 -97.76365007 12.88986272 -89 8 C-85.39545055 6.42719262 -81.76876849 5.11979383 -78 4 C-77.41082291 3.82326752 -76.82164581 3.64653503 -76.21461487 3.46444702 C-73.4779809 2.89052263 -70.91793927 2.85972851 -68.12084961 2.84228516 C-66.93539047 2.83202301 -65.74993134 2.82176086 -64.52854919 2.81118774 C-63.2494014 2.80388641 -61.9702536 2.79658508 -60.65234375 2.7890625 C-59.31676928 2.77608332 -57.98120271 2.76226553 -56.64564514 2.74765015 C-50.98787594 2.68631671 -45.33012646 2.63223606 -39.67211914 2.59863281 C-36.20487831 2.57749294 -32.73801861 2.54203354 -29.270998 2.49787521 C-27.32877403 2.4771123 -25.38640506 2.47169999 -23.44407654 2.46670532 C-16.58343919 2.37258173 -10.6335387 1.69051621 -4.09962463 -0.4581604 C-2 -1 -2 -1 0 0 Z " fill="#EACC71" transform="translate(294,250)"/>
<path d="M0 0 C4.43727178 -0.11756758 8.87413528 -0.18770716 13.3125 -0.25 C15.17745117 -0.30027344 15.17745117 -0.30027344 17.08007812 -0.3515625 C27.75665845 -0.46365258 36.37628176 1.48430178 45 8 C45.6703125 8.46535156 46.340625 8.93070313 47.03125 9.41015625 C50.98204089 12.20863313 53.88517528 14.50599747 56 19 C52.61267683 18.41597876 51.38095083 17.38095083 49 15 C47.02379014 13.95377125 45.0262871 12.94560065 43 12 C43 10.68 43 9.36 43 8 C41.02 7.67 39.04 7.34 37 7 C37 6.34 37 5.68 37 5 C35.9275 5.020625 34.855 5.04125 33.75 5.0625 C30 5 30 5 28.02294922 4.5 C25.88527793 3.97164485 24.08047729 3.90081281 21.8828125 3.9375 C21.11066406 3.94523438 20.33851563 3.95296875 19.54296875 3.9609375 C17.93880004 3.98685299 16.33463334 4.01289342 14.73046875 4.0390625 C10.35827131 4.08271173 6.30782583 3.88649792 2 3 C2.01047363 3.6391333 2.02094727 4.2782666 2.03173828 4.93676758 C2.07388495 7.89530335 2.09950945 10.85377561 2.125 13.8125 C2.14175781 14.81732422 2.15851563 15.82214844 2.17578125 16.85742188 C2.29529862 35.44237333 2.29529862 35.44237333 -3.125 41.6875 C-3.93324219 42.65236328 -3.93324219 42.65236328 -4.7578125 43.63671875 C-5.16773438 44.08660156 -5.57765625 44.53648437 -6 45 C-6 41.94473413 -5.27184174 39.80954951 -4.2722168 36.95874023 C-0.15047984 24.85725247 -0.0779738 12.6822092 0 0 Z " fill="#EDD06B" transform="translate(324,184)"/>
<path d="M0 0 C1.65 0 3.3 0 5 0 C4.01 0.33 3.02 0.66 2 1 C2 2.32 2 3.64 2 5 C2.82463242 4.99777939 3.64926483 4.99555878 4.49888611 4.99327087 C12.25398257 4.97326948 20.00906661 4.95802665 27.76418209 4.94818783 C31.751572 4.94295964 35.73894067 4.93586316 39.72631836 4.92456055 C43.57125114 4.91372939 47.41616345 4.90772268 51.26111031 4.90512276 C52.73118983 4.90326892 54.20126818 4.89964909 55.67133904 4.89426994 C57.72354467 4.88705645 59.77566467 4.88600919 61.82788086 4.88647461 C63.58327431 4.88314369 63.58327431 4.88314369 65.37413025 4.87974548 C68 5 68 5 69 6 C69.25498212 9.30448256 69.1852477 12.62437089 69.1875 15.9375 C69.19974609 16.85080078 69.21199219 17.76410156 69.22460938 18.70507812 C69.24016842 26.03339065 69.16270886 33.75593671 65 40 C64.97264382 38.29175867 64.95344494 36.58338595 64.9375 34.875 C64.92589844 33.92367187 64.91429687 32.97234375 64.90234375 31.9921875 C65 29 65 29 65.50219727 26.30517578 C66.06673975 22.55687946 66.11009196 18.90306908 66.0625 15.125 C66.05798828 14.43664062 66.05347656 13.74828125 66.04882812 13.0390625 C66.03716336 11.35933665 66.01923271 9.67965625 66 8 C65.20264435 8.00444122 64.4052887 8.00888245 63.58377075 8.01345825 C56.07916722 8.05348833 48.57461527 8.08396056 41.06993294 8.10362434 C37.21145203 8.11407343 33.35305915 8.128253 29.49462891 8.15087891 C25.77287808 8.1725674 22.05121206 8.18456014 18.32940292 8.18975449 C16.90758809 8.19345745 15.48577803 8.20068819 14.06399918 8.21146011 C12.07672886 8.22592119 10.08937369 8.22681646 8.10205078 8.22705078 C6.96953888 8.231492 5.83702698 8.23593323 4.67019653 8.24050903 C2 8 2 8 0 6 C-0.125 2.875 -0.125 2.875 0 0 Z " fill="#DFC56D" transform="translate(250,318)"/>
<path d="M0 0 C0.33 0 0.66 0 1 0 C1.02689216 1.47906892 1.04634621 2.95827483 1.0625 4.4375 C1.07410156 5.26121094 1.08570313 6.08492188 1.09765625 6.93359375 C1 9 1 9 0 10 C-0.10949741 11.77714398 -0.14909269 13.55863796 -0.16113281 15.33911133 C-0.17074036 16.48152786 -0.1803479 17.6239444 -0.19024658 18.80097961 C-0.19449646 20.04872665 -0.19874634 21.29647369 -0.203125 22.58203125 C-0.20882507 23.86172287 -0.21452515 25.14141449 -0.22039795 26.45988464 C-0.23092803 29.1811869 -0.23675489 31.90245951 -0.24023438 34.6237793 C-0.24566837 38.07879653 -0.26957601 41.53340943 -0.29820633 44.98830128 C-0.32156696 48.31120166 -0.32330061 51.6340532 -0.328125 54.95703125 C-0.3466452 56.795252 -0.3466452 56.795252 -0.36553955 58.67060852 C-0.34761103 65.70252845 0.41973198 71.83163641 2.45294189 78.57572937 C3 81 3 81 2 84 C1.35004703 82.58521865 0.70521278 81.16808513 0.0625 79.75 C-0.29714844 78.96109375 -0.65679687 78.1721875 -1.02734375 77.359375 C-5.58280767 66.30917336 -4.15941685 52.72223554 -4.13037109 40.9609375 C-4.12499447 38.37233668 -4.13035736 35.7839082 -4.13671875 33.1953125 C-4.14875719 9.5601796 -4.14875719 9.5601796 0 0 Z " fill="#F1D471" transform="translate(185,280)"/>
<path d="M0 0 C1.65 0 3.3 0 5 0 C2.16195007 3.15559397 -0.19233362 4.77506744 -4.1875 6.1875 C-5.50814453 6.67283203 -5.50814453 6.67283203 -6.85546875 7.16796875 C-14.29063354 9.13528565 -21.88476059 9.14628189 -29.53125 9.09375 C-30.55553101 9.09016479 -31.57981201 9.08657959 -32.63513184 9.08288574 C-46.22086639 9.01492938 -59.80514564 8.77258217 -73.38879395 8.53643799 C-76.97010852 8.47462692 -80.55146216 8.41516494 -84.1328125 8.35546875 C-91.08858016 8.23919766 -98.04430353 8.12045334 -105 8 C-105 7.67 -105 7.34 -105 7 C-103.35867348 6.99786247 -103.35867348 6.99786247 -101.68418884 6.99568176 C-91.31377921 6.97892839 -80.9437578 6.93590201 -70.57355404 6.86790943 C-65.24356017 6.83378704 -59.91384845 6.80855253 -54.58374023 6.80444336 C-49.42872864 6.8001286 -44.27435194 6.77140513 -39.11953926 6.72656822 C-37.16425859 6.71369402 -35.20890155 6.70924927 -33.25358391 6.71384621 C-21.18315771 6.73559077 -11.20966654 5.72173627 0 1 C0 0.67 0 0.34 0 0 Z " fill="#F0D87D" transform="translate(363,310)"/>
<path d="M0 0 C2.68475092 2.34723938 3.84717014 4.56471634 5.125 7.875 C5.45757812 8.71804687 5.79015625 9.56109375 6.1328125 10.4296875 C7.66822476 14.98059409 8.12758505 19.17029486 8.14526367 23.96435547 C8.15164352 25.14262909 8.15802338 26.32090271 8.16459656 27.53488159 C8.16570938 28.79954254 8.1668222 30.06420349 8.16796875 31.3671875 C8.17129715 32.67527374 8.17462555 33.98335999 8.17805481 35.33108521 C8.18403024 38.09654567 8.18589634 40.86197495 8.18530273 43.62744141 C8.1852012 47.15672919 8.19885126 50.6858154 8.21607494 54.21505547 C8.22992188 57.59910227 8.22928504 60.98311277 8.23046875 64.3671875 C8.23765427 65.62779999 8.24483978 66.88841248 8.25224304 68.18722534 C8.23670314 74.17046807 8.09666919 79.36698686 6 85 C5.67 85 5.34 85 5 85 C5.04543945 83.76588379 5.04543945 83.76588379 5.09179688 82.50683594 C5.7830858 63.32622694 6.14769038 44.19520465 6 25 C5.67 25 5.34 25 5 25 C4.83564453 23.48019531 4.83564453 23.48019531 4.66796875 21.9296875 C4.50840107 20.57805539 4.34821167 19.22649657 4.1875 17.875 C4.11724609 17.20984375 4.04699219 16.5446875 3.97460938 15.859375 C3.41849367 11.32147087 2.08164793 8.02642039 0 4 C0 2.68 0 1.36 0 0 Z " fill="#EFCD66" transform="translate(380,203)"/>
<path d="M0 0 C1 3 1 3 1 7 C22.12 7 43.24 7 65 7 C64.67 7.66 64.34 8.32 64 9 C42.55 9 21.1 9 -1 9 C-1 1 -1 1 0 0 Z " fill="#6A8DA5" transform="translate(183,168)"/>
<path d="M0 0 C0.33 0 0.66 0 1 0 C1 8.58 1 17.16 1 26 C-3.063125 26.0825 -7.12625 26.165 -11.3125 26.25 C-12.56973877 26.28641602 -13.82697754 26.32283203 -15.12231445 26.36035156 C-26.2867198 26.46882028 -34.90269258 23.36029516 -44 17 C-43.34 16.34 -42.68 15.68 -42 15 C-41.01 15 -40.02 15 -39 15 C-39 15.99 -39 16.98 -39 18 C-36.69 18.33 -34.38 18.66 -32 19 C-32 19.66 -32 20.32 -32 21 C-24.7721496 22.68841633 -17.7825742 23.386847 -10.375 23.625 C-6.95125 23.74875 -3.5275 23.8725 0 24 C0 16.08 0 8.16 0 0 Z " fill="#5C7E93" transform="translate(174,290)"/>
<path d="M0 0 C0 0.99 0 1.98 0 3 C-1.89453221 3.64964023 -3.79068649 4.29455115 -5.6875 4.9375 C-6.74324219 5.29714844 -7.79898438 5.65679687 -8.88671875 6.02734375 C-12 7 -12 7 -14.82421875 7.5078125 C-15.54222656 7.67023438 -16.26023438 7.83265625 -17 8 C-18.16666667 9.91666667 -18.16666667 9.91666667 -19 12 C-19.99 12.66 -20.98 13.32 -22 14 C-25.69591265 18.08540062 -25.69591265 18.08540062 -28 23 C-31.0625 24.1875 -31.0625 24.1875 -34 25 C-30.51961613 15.46240959 -23.76179359 8.90152511 -15 4 C-9.94192827 1.73258854 -5.57664371 0 0 0 Z " fill="#F3D56B" transform="translate(220,254)"/>
<path d="M0 0 C0.99 0 1.98 0 3 0 C3 20.79 3 41.58 3 63 C2.34 63 1.68 63 1 63 C0.67 42.21 0.34 21.42 0 0 Z " fill="#5B829B" transform="translate(315,148)"/>
<path d="M0 0 C0.77155426 -0.00029205 1.54310852 -0.00058411 2.33804321 -0.00088501 C4.86488455 0.00049807 7.39142365 0.0160106 9.91821289 0.03173828 C11.67940612 0.03547205 13.44060143 0.0383173 15.20179749 0.04031372 C19.81973077 0.04792151 24.43753669 0.06754529 29.05541992 0.08972168 C33.77464068 0.1102418 38.49388218 0.11932859 43.21313477 0.12939453 C52.45993527 0.15079404 61.70664158 0.18489528 70.95336914 0.22705078 C70.95336914 0.55705078 70.95336914 0.88705078 70.95336914 1.22705078 C32.83836914 1.72205078 32.83836914 1.72205078 -6.04663086 2.22705078 C-6.04663086 2.55705078 -6.04663086 2.88705078 -6.04663086 3.22705078 C-8.68663086 3.22705078 -11.32663086 3.22705078 -14.04663086 3.22705078 C-13.71663086 4.21705078 -13.38663086 5.20705078 -13.04663086 6.22705078 C-15.04663086 8.22705078 -15.04663086 8.22705078 -18.67163086 8.35205078 C-19.78538086 8.31080078 -20.89913086 8.26955078 -22.04663086 8.22705078 C-22.37663086 8.88705078 -22.70663086 9.54705078 -23.04663086 10.22705078 C-24.03663086 10.22705078 -25.02663086 10.22705078 -26.04663086 10.22705078 C-26.04663086 9.56705078 -26.04663086 8.90705078 -26.04663086 8.22705078 C-24.36431617 7.25964378 -22.67547889 6.30357632 -20.98413086 5.35205078 C-20.0444043 4.81837891 -19.10467773 4.28470703 -18.13647461 3.73486328 C-12.15888906 0.81786199 -6.59081547 -0.06641745 0 0 Z " fill="#7695AB" transform="translate(156.046630859375,181.77294921875)"/>
<path d="M0 0 C0.33 0.99 0.66 1.98 1 3 C0.484375 2.835 -0.03125 2.67 -0.5625 2.5 C-5.5416903 1.47862763 -10.59608992 1.23182795 -15 4 C-17.30837698 8.30197528 -17.092952 12.14034722 -16.6796875 16.8515625 C-15.72495762 19.86938684 -14.54780858 21.12488016 -12 23 C-8.72599522 23.48263789 -8.72599522 23.48263789 -5.25 23.25 C-4.07953125 23.21390625 -2.9090625 23.1778125 -1.703125 23.140625 C-0.81109375 23.09421875 0.0809375 23.0478125 1 23 C1 23.66 1 24.32 1 25 C-1.55919182 26.27959591 -3.45484028 26.16816536 -6.3125 26.1875 C-7.72982422 26.20876953 -7.72982422 26.20876953 -9.17578125 26.23046875 C-12.20618416 25.98317446 -14.30700327 25.40240833 -17 24 C-20.68596558 17.89909145 -20.66049712 11.75049855 -19.6953125 4.80859375 C-19 3 -19 3 -15.625 1.25 C-10.47921785 -0.480854 -5.36514418 -0.26628473 0 0 Z " fill="#EECE68" transform="translate(294,341)"/>
<path d="M0 0 C0.33 1.32 0.66 2.64 1 4 C5.05606165 3.53199289 8.46588679 3.12046792 12 1 C12 1.99 12 2.98 12 4 C11.34 4 10.68 4 10 4 C10 4.99 10 5.98 10 7 C16.435 6.505 16.435 6.505 23 6 C23 6.99 23 7.98 23 9 C22.41992188 8.96519531 21.83984375 8.93039063 21.2421875 8.89453125 C15.990866 8.71255476 12.60488781 9.16622289 8 12 C7.01 11.01 6.02 10.02 5 9 C4.01 9.495 4.01 9.495 3 10 C2.01 9.34 1.02 8.68 0 8 C-0.66 8.66 -1.32 9.32 -2 10 C-2 9.34 -2 8.68 -2 8 C-3.65 8.66 -5.3 9.32 -7 10 C-5.33248852 6.05860922 -2.77289351 3.2107188 0 0 Z " fill="#336E9B" transform="translate(195,126)"/>
<path d="M0 0 C1.65 0 3.3 0 5 0 C4.01 0.33 3.02 0.66 2 1 C2 2.32 2 3.64 2 5 C3.08925781 4.98839844 4.17851562 4.97679687 5.30078125 4.96484375 C25.87255431 4.82755559 46.43686595 5.47538754 67 6 C66.67 6.66 66.34 7.32 66 8 C57.68999208 8.04628625 49.38003779 8.0818502 41.06993294 8.10362434 C37.21145203 8.11407343 33.35305915 8.128253 29.49462891 8.15087891 C25.77287808 8.1725674 22.05121206 8.18456014 18.32940292 8.18975449 C16.90758809 8.19345745 15.48577803 8.20068819 14.06399918 8.21146011 C12.07672886 8.22592119 10.08937369 8.22681646 8.10205078 8.22705078 C6.96953888 8.231492 5.83702698 8.23593323 4.67019653 8.24050903 C2 8 2 8 0 6 C-0.125 2.875 -0.125 2.875 0 0 Z " fill="#EFCC59" transform="translate(250,318)"/>
<path d="M0 0 C0.33 0.66 0.66 1.32 1 2 C1.66 2.33 2.32 2.66 3 3 C1.88625 3.37125 0.7725 3.7425 -0.375 4.125 C-3.61378762 5.4794021 -3.89272441 5.76212803 -5.4375 9.1875 C-5.623125 10.115625 -5.80875 11.04375 -6 12 C-6.66 12 -7.32 12 -8 12 C-7.938125 12.7425 -7.87625 13.485 -7.8125 14.25 C-8.03239994 17.47519908 -8.78252188 18.69723426 -11 21 C-11.66 21 -12.32 21 -13 21 C-13.33 22.32 -13.66 23.64 -14 25 C-15 23 -15 23 -14.21484375 20.4609375 C-10.81677011 12.25152412 -7.37736655 5.21968515 0 0 Z " fill="#62849F" transform="translate(128,192)"/>
<path d="M0 0 C0.33 0 0.66 0 1 0 C1.02689216 1.47906892 1.04634621 2.95827483 1.0625 4.4375 C1.07410156 5.26121094 1.08570313 6.08492188 1.09765625 6.93359375 C1 9 1 9 0 10 C-0.29964406 12.06778858 -0.53954611 14.1442949 -0.75390625 16.22265625 C-0.95209961 18.11274414 -0.95209961 18.11274414 -1.15429688 20.04101562 C-1.2904591 21.38150082 -1.42652556 22.72199574 -1.5625 24.0625 C-1.70207106 25.40694293 -1.84203986 26.75134463 -1.98242188 28.09570312 C-2.32554138 31.3967494 -2.66454667 34.69816731 -3 38 C-3.33 38 -3.66 38 -4 38 C-4.26279111 9.82295342 -4.26279111 9.82295342 0 0 Z " fill="#F0D986" transform="translate(185,280)"/>
<path d="M0 0 C8.53200876 1.0665011 15.78862151 6.34411064 22 12 C24.0625 14.9375 24.0625 14.9375 25 17 C21.61267683 16.41597876 20.38095083 15.38095083 18 13 C16.02379014 11.95377125 14.0262871 10.94560065 12 10 C12 8.68 12 7.36 12 6 C9.03 5.505 9.03 5.505 6 5 C6 4.34 6 3.68 6 3 C4.02 2.34 2.04 1.68 0 1 C0 0.67 0 0.34 0 0 Z " fill="#F0D477" transform="translate(355,186)"/>
<path d="M0 0 C6.42959149 5.11742996 12.85090456 11.22711076 16 19 C16 20.32 16 21.64 16 23 C14.0625 22.5 14.0625 22.5 12 21 C11.31209578 18.30341548 11.18053536 15.7982981 11 13 C10.236875 12.773125 9.47375 12.54625 8.6875 12.3125 C5.38753486 10.70088912 4.68027471 9.20779717 3 6 C2.443125 5.278125 1.88625 4.55625 1.3125 3.8125 C0 2 0 2 0 0 Z " fill="#688CA1" transform="translate(299,121)"/>
<path d="M0 0 C0 0.99 0 1.98 0 3 C2.31 3.33 4.62 3.66 7 4 C7 4.66 7 5.32 7 6 C10.3 6.66 13.6 7.32 17 8 C14 10 14 10 12.0546875 9.93359375 C6.16049287 8.5920835 0.98439352 6.47127406 -4 3 C-4.33 2.34 -4.66 1.68 -5 1 C-3 0 -3 0 0 0 Z " fill="#57819D" transform="translate(135,305)"/>
<path d="M0 0 C0.33 0 0.66 0 1 0 C1.18175781 0.61488281 1.36351562 1.22976563 1.55078125 1.86328125 C1.80214844 2.67152344 2.05351562 3.47976563 2.3125 4.3125 C2.55613281 5.11300781 2.79976563 5.91351563 3.05078125 6.73828125 C4.10940496 9.26068095 4.72419581 10.46971787 7 12 C10.20138068 12.3636162 10.20138068 12.3636162 13.6875 12.1875 C14.86699219 12.16042969 16.04648437 12.13335937 17.26171875 12.10546875 C18.16535156 12.07066406 19.06898438 12.03585937 20 12 C20 12.66 20 13.32 20 14 C17.44080818 15.27959591 15.54515972 15.16816536 12.6875 15.1875 C11.27017578 15.20876953 11.27017578 15.20876953 9.82421875 15.23046875 C6.81618285 14.98499971 4.68911875 14.35399488 2 13 C-0.55963546 8.8558283 -0.15981417 4.7145181 0 0 Z " fill="#F0DB87" transform="translate(275,352)"/>
<path d="M0 0 C0.33 0 0.66 0 1 0 C1.05905417 3.29158865 1.09394375 6.58303756 1.125 9.875 C1.14175781 10.7928125 1.15851563 11.710625 1.17578125 12.65625 C1.22761513 20.01666163 1.18448167 27.72327749 -3 34 C-3.18451025 22.47835991 -3.18451025 22.47835991 -2 17 C-1.34 17 -0.68 17 0 17 C0 11.39 0 5.78 0 0 Z " fill="#F5E38A" transform="translate(318,324)"/>
<path d="M0 0 C1.98 0 3.96 0 6 0 C5.01 0.495 5.01 0.495 4 1 C4 1.66 4 2.32 4 3 C1.625 5.625 1.625 5.625 -1 8 C-1.66 8 -2.32 8 -3 8 C-3.2475 8.7425 -3.495 9.485 -3.75 10.25 C-5.09147301 13.20124062 -6.60905526 14.84814974 -9 17 C-8.67 14.36 -8.34 11.72 -8 9 C-6.68 9 -5.36 9 -4 9 C-3.67 6.69 -3.34 4.38 -3 2 C-2.01 2 -1.02 2 0 2 C0 1.34 0 0.68 0 0 Z " fill="#6688A4" transform="translate(190,257)"/>
<path d="M0 0 C1.32 0.33 2.64 0.66 4 1 C4 1.66 4 2.32 4 3 C4.99 3.33 5.98 3.66 7 4 C7 4.66 7 5.32 7 6 C7.680625 6.268125 8.36125 6.53625 9.0625 6.8125 C10.031875 7.204375 11.00125 7.59625 12 8 C13.19625 8.45375 14.3925 8.9075 15.625 9.375 C18.90400463 10.95378001 20.19612579 11.92280282 22 15 C14.17626448 12.94787265 8.0593383 9.39643633 2 4 C0.68359375 1.74609375 0.68359375 1.74609375 0 0 Z " fill="#F0D67C" transform="translate(192,370)"/>
<path d="M0 0 C2.35953094 2.35953094 2.49141413 3.77895617 3 7 C3.66 7 4.32 7 5 7 C5.21755666 12.4389165 5.10428384 16.87080814 3 22 C1.35 22 -0.3 22 -2 22 C-1.34 20.96875 -0.68 19.9375 0 18.875 C1.96701054 15.37653125 2.6776015 13.06560901 2 9 C0.8310457 6.51093352 -0.5108366 4.32681781 -2 2 C-1.34 2 -0.68 2 0 2 C0 1.34 0 0.68 0 0 Z " fill="#ECCF69" transform="translate(297,342)"/>
<path d="M0 0 C0.99 0 1.98 0 3 0 C-0.06984177 7.53506617 -7.77138891 12.85712561 -15 16 C-15.99 16 -16.98 16 -18 16 C-18 15.34 -18 14.68 -18 14 C-11.375 11 -11.375 11 -8 11 C-8 10.34 -8 9.68 -8 9 C-7.34 9 -6.68 9 -6 9 C-5.67 8.01 -5.34 7.02 -5 6 C-4.01 6 -3.02 6 -2 6 C-1.855625 5.195625 -1.71125 4.39125 -1.5625 3.5625 C-1 1 -1 1 0 0 Z " fill="#F0D781" transform="translate(306,368)"/>
<path d="M0 0 C5.62867478 4.98539766 7.28764089 12.89422716 8.21484375 20.08984375 C7.93156833 22.60841972 6.90873095 23.41848007 5 25 C4.83564453 23.48019531 4.83564453 23.48019531 4.66796875 21.9296875 C4.50840107 20.57805539 4.34821167 19.22649657 4.1875 17.875 C4.11724609 17.20984375 4.04699219 16.5446875 3.97460938 15.859375 C3.41849367 11.32147087 2.08164793 8.02642039 0 4 C0 2.68 0 1.36 0 0 Z " fill="#F3D473" transform="translate(380,203)"/>
<path d="M0 0 C1.18771723 3.42943519 0.80226223 5.37784675 -0.4375 8.75 C-0.72496094 9.54921875 -1.01242188 10.3484375 -1.30859375 11.171875 C-1.53675781 11.77515625 -1.76492187 12.3784375 -2 13 C-2.66 13 -3.32 13 -4 13 C-4 19.6 -4 26.2 -4 33 C-4.33 33 -4.66 33 -5 33 C-6.03194763 10.40510967 -6.03194763 10.40510967 0 0 Z " fill="#7292AB" transform="translate(187,136)"/>
<path d="M0 0 C0.66 0 1.32 0 2 0 C0.90536167 6.82043881 -2.51063722 13.64636745 -8 18 C-8.66 18 -9.32 18 -10 18 C-10 17.01 -10 16.02 -10 15 C-9.34 15 -8.68 15 -8 15 C-7.7525 14.484375 -7.505 13.96875 -7.25 13.4375 C-5.89828941 10.80166435 -4.4319485 8.24946288 -2.953125 5.68359375 C-1.89877357 3.8211943 -0.92606555 1.92930323 0 0 Z " fill="#EDD878" transform="translate(383,288)"/>
<path d="M0 0 C1.65 0 3.3 0 5 0 C4.01 0.33 3.02 0.66 2 1 C2 2.32 2 3.64 2 5 C8.6 5 15.2 5 22 5 C22 5.33 22 5.66 22 6 C20.46279297 6.09087891 20.46279297 6.09087891 18.89453125 6.18359375 C17.53384305 6.26805026 16.17316657 6.35269567 14.8125 6.4375 C14.13896484 6.47681641 13.46542969 6.51613281 12.77148438 6.55664062 C9.81933603 6.74385003 7.02318413 6.99465468 4.13671875 7.66015625 C3.07904297 7.82837891 3.07904297 7.82837891 2 8 C0 6 0 6 -0.125 2.875 C-0.08375 1.92625 -0.0425 0.9775 0 0 Z " fill="#EFD77D" transform="translate(250,318)"/>
<path d="M0 0 C0.33 0 0.66 0 1 0 C2.03368414 11.48537938 2.03368414 11.48537938 -2 16.75 C-2.9727562 17.85786122 -3.96368711 18.95135005 -5 20 C-5 17.26373728 -4.68067618 15.5632483 -3.90625 12.98828125 C-3.68066406 12.23095703 -3.45507812 11.47363281 -3.22265625 10.69335938 C-2.98417969 9.90767578 -2.74570312 9.12199219 -2.5 8.3125 C-2.26152344 7.51521484 -2.02304687 6.71792969 -1.77734375 5.89648438 C-1.18854411 3.92989359 -0.59475009 1.96479939 0 0 Z " fill="#F2D980" transform="translate(323,209)"/>
<path d="M0 0 C4.08319884 -0.0871142 8.16615864 -0.14043048 12.25 -0.1875 C13.40886719 -0.21263672 14.56773437 -0.23777344 15.76171875 -0.26367188 C16.87675781 -0.27333984 17.99179687 -0.28300781 19.140625 -0.29296875 C20.16704102 -0.3086792 21.19345703 -0.32438965 22.25097656 -0.34057617 C25.36219561 0.04487237 26.7062117 0.91975476 29 3 C27.329375 2.7525 27.329375 2.7525 25.625 2.5 C19.79884206 1.81732018 13.97574201 1.97510353 8.12158203 2.125 C6.08086664 2.15612296 4.03915794 2.08557367 2 2 C1.34 1.34 0.68 0.68 0 0 Z " fill="#F5CC49" transform="translate(330,186)"/>
<path d="M0 0 C1.93166016 0.01740234 1.93166016 0.01740234 3.90234375 0.03515625 C5.19269531 0.04417969 6.48304688 0.05320313 7.8125 0.0625 C8.81152344 0.07410156 9.81054688 0.08570313 10.83984375 0.09765625 C10.83984375 1.08765625 10.83984375 2.07765625 10.83984375 3.09765625 C10.25976562 3.06285156 9.6796875 3.02804688 9.08203125 2.9921875 C3.83070975 2.81021101 0.44473156 3.26387914 -4.16015625 6.09765625 C-4.20287725 4.4315372 -4.20079457 2.7638274 -4.16015625 1.09765625 C-3.16015625 0.09765625 -3.16015625 0.09765625 0 0 Z " fill="#7093AD" transform="translate(207.16015625,131.90234375)"/>
<path d="M0 0 C0 0.66 0 1.32 0 2 C-0.7425 2.268125 -1.485 2.53625 -2.25 2.8125 C-5.02423915 3.86882225 -5.02423915 3.86882225 -7.125 5.6875 C-7.74375 6.120625 -8.3625 6.55375 -9 7 C-9.99 6.67 -10.98 6.34 -12 6 C-4.89473684 -1.63157895 -4.89473684 -1.63157895 0 0 Z " fill="#64859F" transform="translate(208,119)"/>
<path d="M0 0 C4.85963179 0.60745397 8.7405518 2.72758967 13 5 C13 5.99 13 6.98 13 8 C12.67 7.34 12.34 6.68 12 6 C8.97065509 5.34227572 8.97065509 5.34227572 6 5 C6 4.34 6 3.68 6 3 C4.02 2.34 2.04 1.68 0 1 C0 0.67 0 0.34 0 0 Z " fill="#EEDA88" transform="translate(355,186)"/>
<path d="M0 0 C-0.99 1.485 -0.99 1.485 -2 3 C-5.625 3.1875 -5.625 3.1875 -9 3 C-9.33 3.66 -9.66 4.32 -10 5 C-10.99 5 -11.98 5 -13 5 C-13 4.34 -13 3.68 -13 3 C-8.1942374 -0.17180332 -5.81427302 -1.70173845 0 0 Z " fill="#6587A3" transform="translate(143,187)"/>
<path d="M0 0 C0.66 0.66 1.32 1.32 2 2 C-4.93 3.485 -4.93 3.485 -12 5 C-12.33 4.34 -12.66 3.68 -13 3 C-8.45967044 0.82064181 -5.14912794 -0.59873581 0 0 Z " fill="#678AA2" transform="translate(221,245)"/>
<path d="M0 0 C0.93423645 3.01031744 1.04449911 3.86650268 0 7 C-3.5625 8.6875 -3.5625 8.6875 -7 10 C-5.33248852 6.05860922 -2.77289351 3.2107188 0 0 Z " fill="#658AA4" transform="translate(195,126)"/>
<path d="M0 0 C1.43836751 0.11458693 2.87570966 0.24209116 4.3125 0.375 C5.51326172 0.47941406 5.51326172 0.47941406 6.73828125 0.5859375 C9 1 9 1 12 3 C7.31034294 4.11658501 4.46236469 3.80619523 0 2 C0 1.34 0 0.68 0 0 Z " fill="#6287A3" transform="translate(140,311)"/>
<path d="M0 0 C0.99386719 0.00902344 1.98773438 0.01804687 3.01171875 0.02734375 C4.15060547 0.04474609 4.15060547 0.04474609 5.3125 0.0625 C5.6425 1.0525 5.9725 2.0425 6.3125 3.0625 C5.796875 2.8975 5.28125 2.7325 4.75 2.5625 C-0.07015584 1.57375008 -4.44532901 1.34751057 -8.6875 4.0625 C-8.6875 3.0725 -8.6875 2.0825 -8.6875 1.0625 C-5.53819107 0.01273036 -3.29935544 -0.03881595 0 0 Z " fill="#EEDA7F" transform="translate(288.6875,340.9375)"/>
<path d="M0 0 C-0.99 1.485 -0.99 1.485 -2 3 C-4.6015625 3.29296875 -4.6015625 3.29296875 -7.625 3.1875 C-9.12933594 3.14689453 -9.12933594 3.14689453 -10.6640625 3.10546875 C-11.82035156 3.05326172 -11.82035156 3.05326172 -13 3 C-3.70474138 -1.85237069 -3.70474138 -1.85237069 0 0 Z " fill="#F2D57A" transform="translate(294,250)"/>
<path d="M0 0 C2.87255066 2.42195448 3.70838919 4.59742703 4.6875 8.1875 C4.93886719 9.08855469 5.19023437 9.98960937 5.44921875 10.91796875 C5.63097656 11.60503906 5.81273437 12.29210937 6 13 C3.1251845 10.28623859 1.56683293 7.65594351 0 4 C0 2.68 0 1.36 0 0 Z " fill="#ECDB89" transform="translate(380,203)"/>
<path d="M0 0 C0.33 0.66 0.66 1.32 1 2 C1.66 2.33 2.32 2.66 3 3 C1.2984375 3.680625 1.2984375 3.680625 -0.4375 4.375 C-4.04721692 5.57095806 -4.04721692 5.57095806 -5 8 C-5.66 8 -6.32 8 -7 8 C-5.50902342 4.2047869 -3.24299151 2.38957269 0 0 Z " fill="#87A2B9" transform="translate(128,192)"/>
<path d="M0 0 C0.66 0.33 1.32 0.66 2 1 C0.8125 3.4375 0.8125 3.4375 -1 6 C-3.6875 6.8125 -3.6875 6.8125 -6 7 C-4.625 5 -4.625 5 -3 3 C-2.34 3 -1.68 3 -1 3 C-0.67 2.01 -0.34 1.02 0 0 Z " fill="#F2DB8C" transform="translate(309,237)"/>
<path d="M0 0 C0.66 0 1.32 0 2 0 C2.33 0.99 2.66 1.98 3 3 C2.01 4.485 2.01 4.485 1 6 C0.34 6 -0.32 6 -1 6 C-1.33 7.32 -1.66 8.64 -2 10 C-3 8 -3 8 -2.44140625 6.0546875 C-2.15136719 5.33539063 -1.86132812 4.61609375 -1.5625 3.875 C-1.27503906 3.15054688 -0.98757812 2.42609375 -0.69140625 1.6796875 C-0.46324219 1.12539062 -0.23507813 0.57109375 0 0 Z " fill="#7190A9" transform="translate(116,207)"/>
<path d="M0 0 C1.98 0 3.96 0 6 0 C5.01 0.495 5.01 0.495 4 1 C4 1.66 4 2.32 4 3 C1.5 4.625 1.5 4.625 -1 6 C-1 3 -1 3 0 0 Z " fill="#5C7D94" transform="translate(190,257)"/>
<path d="M0 0 C0.75 1.75 0.75 1.75 1 4 C-0.8125 6.25 -0.8125 6.25 -3 8 C-3.66 8 -4.32 8 -5 8 C-5 7.01 -5 6.02 -5 5 C-4.34 5 -3.68 5 -3 5 C-2.5359375 4.0409375 -2.5359375 4.0409375 -2.0625 3.0625 C-1 1 -1 1 0 0 Z " fill="#F3DB92" transform="translate(378,298)"/>
<path d="M0 0 C0.99 0.33 1.98 0.66 3 1 C3.33 2.98 3.66 4.96 4 7 C2.68 6.34 1.36 5.68 0 5 C0 3.35 0 1.7 0 0 Z " fill="#557A93" transform="translate(311,137)"/>
<path d="M0 0 C0.33 0.66 0.66 1.32 1 2 C-2.41176471 8.70588235 -2.41176471 8.70588235 -5 10 C-4.38545304 6.00544473 -2.29353263 3.25533664 0 0 Z " fill="#EED589" transform="translate(314,358)"/>
<path d="M0 0 C0.66 0.33 1.32 0.66 2 1 C1.67 2.32 1.34 3.64 1 5 C-0.98 5.33 -2.96 5.66 -5 6 C-5 5.34 -5 4.68 -5 4 C-3.37373596 2.61767557 -1.7074998 1.28062485 0 0 Z " fill="#F4D97C" transform="translate(200,261)"/>
<path d="M0 0 C2.76223278 2.76223278 2.57856291 5.20706617 3 9 C-0.875 4.25 -0.875 4.25 -2 2 C-1.34 2 -0.68 2 0 2 C0 1.34 0 0.68 0 0 Z " fill="#F0D579" transform="translate(297,342)"/>
<path d="M0 0 C2.31 0.33 4.62 0.66 7 1 C5.35 2.32 3.7 3.64 2 5 C1.01 4.01 0.02 3.02 -1 2 C-0.67 1.34 -0.34 0.68 0 0 Z " fill="#5B809E" transform="translate(195,252)"/>
<path d="M0 0 C0.33 0.66 0.66 1.32 1 2 C1.66 2 2.32 2 3 2 C3 5.63 3 9.26 3 13 C2.67 13 2.34 13 2 13 C1.855625 11.783125 1.71125 10.56625 1.5625 9.3125 C1.17219047 6.17329623 0.67648144 3.0924866 0 0 Z " fill="#447397" transform="translate(113,217)"/>
<path d="M0 0 C0.66 0 1.32 0 2 0 C0.99806563 3.79303725 0.18975773 6.71536341 -2 10 C-2.33 8.35 -2.66 6.7 -3 5 C-2.01 5 -1.02 5 0 5 C0 3.35 0 1.7 0 0 Z " fill="#779DB2" transform="translate(315,212)"/>
<path d="M0 0 C1.22589844 0.15275391 1.22589844 0.15275391 2.4765625 0.30859375 C3.41628906 0.43427734 3.41628906 0.43427734 4.375 0.5625 C4.375 0.8925 4.375 1.2225 4.375 1.5625 C1.075 1.8925 -2.225 2.2225 -5.625 2.5625 C-5.955 1.9025 -6.285 1.2425 -6.625 0.5625 C-4.10446405 -0.69776798 -2.7707902 -0.35624445 0 0 Z " fill="#6B8CAC" transform="translate(283.625,243.4375)"/>
<path d="M0 0 C3.82097239 0.53069061 6.06171403 1.49701566 9 4 C7.02 4 5.04 4 3 4 C2.67 3.01 2.34 2.02 2 1 C1.34 0.67 0.68 0.34 0 0 Z " fill="#7792AB" transform="translate(288,116)"/>
</svg>
