<?xml version="1.0" encoding="UTF-8"?>
<svg version="1.1" xmlns="http://www.w3.org/2000/svg" width="612" height="408">
<path d="M0 0 C6.75 1.625 6.75 1.625 9 5 C11.36257068 6.32292627 13.68488969 7.53025957 16.125 8.6875 C16.78371094 9.00783203 17.44242188 9.32816406 18.12109375 9.65820312 C19.74388294 10.44607904 21.37149192 11.22401377 23 12 C23 12.66 23 13.32 23 14 C24.32 14 25.64 14 27 14 C27 14.66 27 15.32 27 16 C27.86044922 16.18755859 27.86044922 16.18755859 28.73828125 16.37890625 C31.05826154 17.01599928 33.03541386 17.86751346 35.1875 18.9375 C35.88230469 19.27652344 36.57710937 19.61554687 37.29296875 19.96484375 C39 21 39 21 40 23 C42.52733235 23.65555119 42.52733235 23.65555119 45 24 C45 24.66 45 25.32 45 26 C46.32 26 47.64 26 49 26 C49.66 26.99 50.32 27.98 51 29 C52.33076989 29.34342449 53.66431979 29.67619874 55 30 C56 31 57 32 58 33 C58.75152344 33.2990625 59.50304687 33.598125 60.27734375 33.90625 C63.11384495 35.04573398 65.53221351 36.44894633 68.125 38.0625 C70.80251948 39.72679402 72.99972402 40.99990801 76 42 C76.33 42.66 76.66 43.32 77 44 C78.7117096 45.01960978 78.7117096 45.01960978 80.75 45.9375 C87.11699779 49.01793598 87.11699779 49.01793598 90 51 C90 51.66 90 52.32 90 53 C91.07314453 53.16822266 91.07314453 53.16822266 92.16796875 53.33984375 C95.19115998 54.04456005 97.56322688 55.13287798 100.3125 56.5625 C101.19550781 57.01753906 102.07851563 57.47257812 102.98828125 57.94140625 C103.98408203 58.46541016 103.98408203 58.46541016 105 59 C105 59.66 105 60.32 105 61 C105.94875 61.144375 106.8975 61.28875 107.875 61.4375 C111 62 111 62 113 63 C113 63.66 113 64.32 113 65 C113.639375 65.103125 114.27875 65.20625 114.9375 65.3125 C115.9584375 65.6528125 115.9584375 65.6528125 117 66 C117.33 66.99 117.66 67.98 118 69 C118.928125 69.144375 119.85625 69.28875 120.8125 69.4375 C124 70 124 70 127 71 C127 71.66 127 72.32 127 73 C127.61875 73.144375 128.2375 73.28875 128.875 73.4375 C131 74 131 74 133 75 C133 75.66 133 76.32 133 77 C134.32 77 135.64 77 137 77 C137.33 77.66 137.66 78.32 138 79 C139.77487446 79.91926318 139.77487446 79.91926318 141.9375 80.75 C146.4653631 82.67398017 150.56449927 85.03848103 154.73828125 87.6328125 C156.78525315 88.87018757 158.8453356 89.96457775 161 91 C161 91.66 161 92.32 161 93 C162.32 93.33 163.64 93.66 165 94 C165.06948318 102.03195042 165.12280239 110.06377545 165.15543652 118.09595203 C165.17109859 121.82555055 165.19234629 125.55494358 165.22631836 129.28442383 C165.25889319 132.88299774 165.27684894 136.48137389 165.28463173 140.08008385 C165.29017868 141.45364178 165.30101052 142.82718878 165.31719017 144.20066261 C165.33893676 146.12300707 165.34022517 148.04555015 165.34057617 149.96801758 C165.35056892 151.61015984 165.35056892 151.61015984 165.36076355 153.28547668 C165 156 165 156 163.65840149 157.7832489 C161.26683588 159.53791453 158.67046916 160.7181748 156 162 C153.41985099 163.51033113 150.88990616 165.07077461 148.375 166.6875 C146 168 146 168 143 168 C143 168.66 143 169.32 143 170 C140 172 140 172 137 172 C137 172.66 137 173.32 137 174 C136.37351562 174.26554688 135.74703125 174.53109375 135.1015625 174.8046875 C133.87566406 175.33449219 133.87566406 175.33449219 132.625 175.875 C131.81289063 176.22304687 131.00078125 176.57109375 130.1640625 176.9296875 C127.86197701 177.92446067 127.86197701 177.92446067 126 180 C124.34302621 180.69040574 122.6744239 181.3530635 121 182 C116.26360939 184.09171685 116.26360939 184.09171685 113 188 C110.69 187.67 108.38 187.34 106 187 C105.67 186.01 105.34 185.02 105 184 C103.01793275 183.28177034 101.01226057 182.62869059 99 182 C96.00606796 180.62704509 93.0999692 179.09942961 90.1875 177.5625 C89.41212891 177.16740234 88.63675781 176.77230469 87.83789062 176.36523438 C86.7328418 175.78418945 86.7328418 175.78418945 85.60546875 175.19140625 C84.93668701 174.84279541 84.26790527 174.49418457 83.57885742 174.13500977 C82 173 82 173 81 170 C79.67288808 169.64270064 78.33737094 169.31674575 77 169 C75.81858282 168.35983674 74.65287586 167.69024113 73.5 167 C71.4658247 165.78472183 70.00672278 165.00163527 67.6875 164.4375 C66 164 66 164 64 161 C62.03120677 159.93988057 60.02081924 158.95723017 58 158 C52.54839751 155.16449159 47.24654013 152.24518144 42.1875 148.75 C38.88984991 146.47657516 35.85578692 145.15673607 32 144 C31.67 143.34 31.34 142.68 31 142 C29.11461256 140.96188023 27.19089824 139.99271099 25.25 139.0625 C21.37666153 137.19738259 17.65963695 135.25585661 14 133 C10.3836148 130.88730927 6.74845587 128.87422793 3 127 C3 146.8 3 166.6 3 187 C4.32 187.33 5.64 187.66 7 188 C7.33 188.99 7.66 189.98 8 191 C9.3303125 191.1546875 9.3303125 191.1546875 10.6875 191.3125 C14.08109013 192.01683003 16.14218967 193.09479311 19 195 C19.66 195.33 20.32 195.66 21 196 C21 196.66 21 197.32 21 198 C21.66 198 22.32 198 23 198 C23 198.66 23 199.32 23 200 C24.32 200 25.64 200 27 200 C27 200.66 27 201.32 27 202 C28.423125 202.2165625 28.423125 202.2165625 29.875 202.4375 C33 203 33 203 35 204 C35 204.66 35 205.32 35 206 C36.5159375 206.37125 36.5159375 206.37125 38.0625 206.75 C42.13378354 207.89660638 45.40244406 209.79741473 49 212 C49 212.66 49 213.32 49 214 C50.65 214 52.3 214 54 214 C56.10449721 217.44962163 56.24332803 220.14130431 56.22705078 224.14550781 C56.22689972 225.38649231 56.22674866 226.62747681 56.22659302 227.90606689 C56.21638061 229.2550879 56.20594864 230.60410727 56.1953125 231.953125 C56.19158049 233.3374613 56.18873441 234.72180025 56.18673706 236.10614014 C56.17911534 239.7426691 56.15947955 243.37903731 56.1373291 247.01550293 C56.11683909 250.72906317 56.10772861 254.44264948 56.09765625 258.15625 C56.07623215 265.43757314 56.04211401 272.71876401 56 280 C55.34 280 54.68 280 54 280 C54 280.66 54 281.32 54 282 C53.360625 282.12375 52.72125 282.2475 52.0625 282.375 C51.0415625 282.684375 51.0415625 282.684375 50 283 C49.67 283.66 49.34 284.32 49 285 C46.68020619 286.03101947 44.34570085 287.02936517 42 288 C41.01 288.66 40.02 289.32 39 290 C37.68 290 36.36 290 35 290 C34.67 291.32 34.34 292.64 34 294 C33.360625 294.12375 32.72125 294.2475 32.0625 294.375 C31.381875 294.58125 30.70125 294.7875 30 295 C29.67 295.66 29.34 296.32 29 297 C26.35139573 297.59355614 23.70802678 297.74209269 21 298 C21 298.99 21 299.98 21 301 C20.32453125 301.32613281 19.6490625 301.65226562 18.953125 301.98828125 C18.06109375 302.42527344 17.1690625 302.86226563 16.25 303.3125 C14.92742187 303.95638672 14.92742187 303.95638672 13.578125 304.61328125 C10.98653572 305.91436812 10.98653572 305.91436812 8.859375 307.66796875 C7 309 7 309 4 309 C4.02117889 310.17937889 4.02117889 310.17937889 4.04278564 311.38258362 C4.16550339 318.81267347 4.23018123 326.23998338 4.23059464 333.6710062 C4.23283005 337.49123853 4.25705634 341.30863057 4.33251953 345.12817383 C4.40460761 348.81865685 4.41764752 352.50516909 4.39070892 356.19621086 C4.39065335 357.6000824 4.41145491 359.00412251 4.4539566 360.40735054 C4.58048171 364.8562226 4.49012776 368.78586942 3 373 C-1.23473108 376.92424569 -6.11024009 380 -12 380 C-12 380.66 -12 381.32 -12 382 C-13.32 382 -14.64 382 -16 382 C-16 382.66 -16 383.32 -16 384 C-18.46210835 386.36362402 -20.29046449 387.08012813 -23.625 388 C-27.25073889 388.68257524 -27.25073889 388.68257524 -29 392 C-32.12992024 393.74693223 -35.31289031 395.12947185 -38.625 396.5 C-41.50085222 397.77815654 -43.54750544 399.09250423 -46 401 C-46.66 401 -47.32 401 -48 401 C-48 401.66 -48 402.32 -48 403 C-51 405 -51 405 -54 405 C-54 404.34 -54 403.68 -54 403 C-54.9590625 402.6596875 -54.9590625 402.6596875 -55.9375 402.3125 C-59.37937321 400.83741148 -62.56388931 399.06766778 -65.81640625 397.21875 C-67.85118171 396.08306137 -69.90761898 395.02483968 -72 394 C-72 393.34 -72 392.68 -72 392 C-72.74378906 391.88914062 -73.48757813 391.77828125 -74.25390625 391.6640625 C-77.11537245 390.97210055 -78.59438338 390.11029825 -80.9375 388.375 C-85.88020993 384.92255437 -91.13801221 382.3769262 -96.5703125 379.80859375 C-104.31918318 375.72234418 -104.31918318 375.72234418 -107 373 C-107.71468609 370.09220667 -107.92562879 368.27558251 -107.84178162 365.37541199 C-107.84776259 364.61568268 -107.85374356 363.85595337 -107.85990578 363.07320195 C-107.87142424 360.53093725 -107.83296808 357.99191697 -107.79467773 355.44995117 C-107.79270293 353.62657752 -107.7938121 351.8031983 -107.79777527 349.97982788 C-107.79978465 345.03144719 -107.75861611 340.08425301 -107.70975757 335.13614821 C-107.66601334 329.96454994 -107.66188763 324.79292478 -107.65357971 319.62117004 C-107.63181843 309.8285591 -107.57436906 300.03649486 -107.50413328 290.24412471 C-107.42590519 279.09556784 -107.38740715 267.94698493 -107.35226524 256.79822195 C-107.27908709 233.86517814 -107.15595382 210.93261969 -107 188 C-107.53109375 188.34933594 -108.0621875 188.69867188 -108.609375 189.05859375 C-109.31578125 189.51363281 -110.0221875 189.96867188 -110.75 190.4375 C-111.44609375 190.88996094 -112.1421875 191.34242188 -112.859375 191.80859375 C-114.94093943 192.9671287 -116.70027285 193.46002214 -119 194 C-119.680625 194.515625 -120.36125 195.03125 -121.0625 195.5625 C-123 197 -123 197 -126 197 C-126 197.66 -126 198.32 -126 199 C-127.26691507 199.67408308 -128.53870749 200.33900497 -129.8125 201 C-130.52019531 201.37125 -131.22789062 201.7425 -131.95703125 202.125 C-134 203 -134 203 -137 203 C-137 203.66 -137 204.32 -137 205 C-142.75 208 -142.75 208 -145 208 C-145 208.66 -145 209.32 -145 210 C-147 211 -149 212 -151 213 C-152.051875 213.5878125 -152.051875 213.5878125 -153.125 214.1875 C-155 215 -155 215 -159 215 C-159 215.66 -159 216.32 -159 217 C-159.99 217.33 -160.98 217.66 -162 218 C-162.66 217.67 -163.32 217.34 -164 217 C-164 216.34 -164 215.68 -164 215 C-165.299375 214.62875 -165.299375 214.62875 -166.625 214.25 C-169.50718547 213.1825239 -171.62970951 212.01154215 -174.12109375 210.26171875 C-181.32326942 205.42533052 -189.08309822 201.35634236 -196.72265625 197.26171875 C-199 196 -199 196 -202 194 C-202 193.34 -202 192.68 -202 192 C-203.11375 191.855625 -204.2275 191.71125 -205.375 191.5625 C-209 191 -209 191 -211 190 C-211 189.34 -211 188.68 -211 188 C-212.32 187.67 -213.64 187.34 -215 187 C-215.82538305 183.37593397 -216.14445204 179.99311767 -216.19287109 176.27929688 C-216.20893402 175.15463013 -216.22499695 174.02996338 -216.24154663 172.87121582 C-216.28615427 167.7622963 -216.32701358 162.65350211 -216.35009766 157.54443359 C-216.36346467 154.84780162 -216.39138 152.15192141 -216.43212891 149.45556641 C-216.48678052 145.56389592 -216.50874987 141.67325204 -216.5234375 137.78125 C-216.54610687 136.57593628 -216.56877625 135.37062256 -216.59213257 134.12878418 C-216.56857594 124.83299005 -216.56857594 124.83299005 -213.6027832 121.78637695 C-211.367383 120.25214721 -209.26396086 118.83973402 -206.8125 117.6875 C-206.13832031 117.36136719 -205.46414062 117.03523438 -204.76953125 116.69921875 C-203 116 -203 116 -201 116 C-201 115.34 -201 114.68 -201 114 C-199.68 114 -198.36 114 -197 114 C-197 113.34 -197 112.68 -197 112 C-196.01 112 -195.02 112 -194 112 C-194 111.34 -194 110.68 -194 110 C-190.86501708 108.14223235 -188.62528568 107.79859524 -185 108 C-184.79375 107.401875 -184.5875 106.80375 -184.375 106.1875 C-182.44680579 103.1199183 -180.29483508 102.49765231 -177 101 C-174.6723789 99.68127951 -172.35940128 98.33996033 -170.05078125 96.98828125 C-168 96 -168 96 -165 96 C-164.505 94.515 -164.505 94.515 -164 93 C-161.67328146 92.31060191 -159.33932406 91.64533078 -157 91 C-155.98360991 90.01666324 -154.98507709 89.01470347 -154 88 C-152.50847973 87.0561681 -150.98499142 86.16145329 -149.4375 85.3125 C-148.65246094 84.87550781 -147.86742187 84.43851562 -147.05859375 83.98828125 C-145 83 -145 83 -143 83 C-143 82.34 -143 81.68 -143 81 C-142.29875 80.7525 -141.5975 80.505 -140.875 80.25 C-137.85445734 79.0426709 -137.85445734 79.0426709 -134.875 76.875 C-132 75 -132 75 -129 75 C-129 74.34 -129 73.68 -129 73 C-128.16855469 72.59007813 -127.33710938 72.18015625 -126.48046875 71.7578125 C-125.39378906 71.21898438 -124.30710937 70.68015625 -123.1875 70.125 C-122.10855469 69.59132813 -121.02960938 69.05765625 -119.91796875 68.5078125 C-116.92161735 67.02778861 -116.92161735 67.02778861 -114 65 C-113.01 65 -112.02 65 -111 65 C-111 64.34 -111 63.68 -111 63 C-107.91190305 61.23537317 -106.76687864 61 -103 61 C-103 60.34 -103 59.68 -103 59 C-102.03578125 58.52949219 -101.0715625 58.05898438 -100.078125 57.57421875 C-98.80197704 56.94552821 -97.52594126 56.31660993 -96.25 55.6875 C-95.29867187 55.2244043 -95.29867187 55.2244043 -94.328125 54.75195312 C-91.63096924 53.41742293 -89.13017629 52.09942775 -86.734375 50.26953125 C-85 49 -85 49 -82 49 C-82 48.34 -82 47.68 -82 47 C-78.38944263 44.78945467 -75.25061157 42.93687175 -71.125 41.9375 C-70.09375 41.628125 -69.0625 41.31875 -68 41 C-67.67 40.01 -67.34 39.02 -67 38 C-63.76223566 36.07275932 -60.83900482 34.95777176 -57.1875 34 C-55.6096875 33.505 -55.6096875 33.505 -54 33 C-53.67 32.01 -53.34 31.02 -53 30 C-51.67203709 29.64587656 -50.33783393 29.31478446 -49 29 C-48.566875 28.54625 -48.13375 28.0925 -47.6875 27.625 C-45.66902371 25.68128209 -43.52611457 24.91134534 -40.953125 23.87890625 C-38.85230385 22.93353673 -36.99890078 21.8089627 -35.0625 20.5625 C-24.84090909 14 -24.84090909 14 -20 14 C-20 13.34 -20 12.68 -20 12 C-17.35261084 10.5393715 -16.10551666 10 -13 10 C-13 9.34 -13 8.68 -13 8 C-12.22914063 7.59007812 -11.45828125 7.18015625 -10.6640625 6.7578125 C-9.66117188 6.21898437 -8.65828125 5.68015625 -7.625 5.125 C-6.12839844 4.32449219 -6.12839844 4.32449219 -4.6015625 3.5078125 C-1.94651605 2.1179862 -1.94651605 2.1179862 0 0 Z " fill="#D69348" transform="translate(334,1)"/>
<path d="M0 0 C6.75 1.625 6.75 1.625 9 5 C11.36257068 6.32292627 13.68488969 7.53025957 16.125 8.6875 C16.78371094 9.00783203 17.44242188 9.32816406 18.12109375 9.65820312 C19.74388294 10.44607904 21.37149192 11.22401377 23 12 C23 12.66 23 13.32 23 14 C24.32 14 25.64 14 27 14 C27 14.66 27 15.32 27 16 C27.86044922 16.18755859 27.86044922 16.18755859 28.73828125 16.37890625 C31.05826154 17.01599928 33.03541386 17.86751346 35.1875 18.9375 C35.88230469 19.27652344 36.57710937 19.61554687 37.29296875 19.96484375 C39 21 39 21 40 23 C42.52733235 23.65555119 42.52733235 23.65555119 45 24 C45 24.66 45 25.32 45 26 C46.32 26 47.64 26 49 26 C49.66 26.99 50.32 27.98 51 29 C52.33076989 29.34342449 53.66431979 29.67619874 55 30 C56 31 57 32 58 33 C58.75152344 33.2990625 59.50304687 33.598125 60.27734375 33.90625 C63.11384495 35.04573398 65.53221351 36.44894633 68.125 38.0625 C70.80251948 39.72679402 72.99972402 40.99990801 76 42 C76.33 42.66 76.66 43.32 77 44 C78.7117096 45.01960978 78.7117096 45.01960978 80.75 45.9375 C87.11699779 49.01793598 87.11699779 49.01793598 90 51 C90 51.66 90 52.32 90 53 C91.07314453 53.16822266 91.07314453 53.16822266 92.16796875 53.33984375 C95.19115998 54.04456005 97.56322688 55.13287798 100.3125 56.5625 C101.19550781 57.01753906 102.07851563 57.47257812 102.98828125 57.94140625 C103.98408203 58.46541016 103.98408203 58.46541016 105 59 C105 59.66 105 60.32 105 61 C105.94875 61.144375 106.8975 61.28875 107.875 61.4375 C111 62 111 62 113 63 C113 63.66 113 64.32 113 65 C113.639375 65.103125 114.27875 65.20625 114.9375 65.3125 C115.9584375 65.6528125 115.9584375 65.6528125 117 66 C117.33 66.99 117.66 67.98 118 69 C118.928125 69.144375 119.85625 69.28875 120.8125 69.4375 C124 70 124 70 127 71 C127 71.66 127 72.32 127 73 C127.61875 73.144375 128.2375 73.28875 128.875 73.4375 C131 74 131 74 133 75 C133 75.66 133 76.32 133 77 C134.32 77 135.64 77 137 77 C137.33 77.66 137.66 78.32 138 79 C139.77487446 79.91926318 139.77487446 79.91926318 141.9375 80.75 C146.4653631 82.67398017 150.56449927 85.03848103 154.73828125 87.6328125 C156.78525315 88.87018757 158.8453356 89.96457775 161 91 C161 91.66 161 92.32 161 93 C162.32 93.33 163.64 93.66 165 94 C165.06948318 102.03195042 165.12280239 110.06377545 165.15543652 118.09595203 C165.17109859 121.82555055 165.19234629 125.55494358 165.22631836 129.28442383 C165.25889319 132.88299774 165.27684894 136.48137389 165.28463173 140.08008385 C165.29017868 141.45364178 165.30101052 142.82718878 165.31719017 144.20066261 C165.33893676 146.12300707 165.34022517 148.04555015 165.34057617 149.96801758 C165.35056892 151.61015984 165.35056892 151.61015984 165.36076355 153.28547668 C165 156 165 156 163.65840149 157.7832489 C161.26683588 159.53791453 158.67046916 160.7181748 156 162 C153.41985099 163.51033113 150.88990616 165.07077461 148.375 166.6875 C146 168 146 168 143 168 C143 168.66 143 169.32 143 170 C140 172 140 172 137 172 C137 172.66 137 173.32 137 174 C136.37351562 174.26554688 135.74703125 174.53109375 135.1015625 174.8046875 C133.87566406 175.33449219 133.87566406 175.33449219 132.625 175.875 C131.81289063 176.22304687 131.00078125 176.57109375 130.1640625 176.9296875 C127.86197701 177.92446067 127.86197701 177.92446067 126 180 C124.34302621 180.69040574 122.6744239 181.3530635 121 182 C116.26360939 184.09171685 116.26360939 184.09171685 113 188 C110.69 187.67 108.38 187.34 106 187 C105.67 186.01 105.34 185.02 105 184 C103.0187415 183.27954236 101.01495907 182.61998741 99 182 C97.30792999 181.0436126 95.63183107 180.05589069 94 179 C94.598125 178.855625 95.19625 178.71125 95.8125 178.5625 C97.56150404 178.1127561 99.28677023 177.57107659 101 177 C101.66 177.99 102.32 178.98 103 180 C103 179.67 103 179.34 103 179 C104.98 179 106.96 179 109 179 C109 161.18 109 143.36 109 125 C107.35 124.34 105.7 123.68 104 123 C102.33333333 122.33333333 100.66666667 121.66666667 99 121 C99 120.34 99 119.68 99 119 C98.236875 118.855625 97.47375 118.71125 96.6875 118.5625 C91.7435144 117.52771232 89.81632688 115.96768746 86.5 112.375 C84.9332241 110.751108 84.9332241 110.751108 82 110 C82 109.34 82 108.68 82 108 C80.329375 107.7834375 80.329375 107.7834375 78.625 107.5625 C75 107 75 107 73 106 C73 105.34 73 104.68 73 104 C71.02 103.34 69.04 102.68 67 102 C67 101.34 67 100.68 67 100 C66.195625 99.814375 66.195625 99.814375 65.375 99.625 C62.5361714 98.87793984 59.77776798 97.94696636 57 97 C57 96.01 57 95.02 57 94 C56.154375 93.938125 55.30875 93.87625 54.4375 93.8125 C50.23212309 92.81850182 47.13611074 90.97837736 44 88 C44 87.34 44 86.68 44 86 C41.03 85.34 38.06 84.68 35 84 C35 83.34 35 82.68 35 82 C34.278125 81.9175 33.55625 81.835 32.8125 81.75 C29.43462862 80.8492343 27.65121773 79.2326044 25 77 C24.01 76.67 23.02 76.34 22 76 C22 75.34 22 74.68 22 74 C21.401875 73.855625 20.80375 73.71125 20.1875 73.5625 C18.43849596 73.1127561 16.71322977 72.57107659 15 72 C15 71.34 15 70.68 15 70 C13.68 70 12.36 70 11 70 C11 69.01 11 68.02 11 67 C8.69 66.67 6.38 66.34 4 66 C4 65.01 4 64.02 4 63 C1.53199953 64.15173355 -0.04783565 65.04783565 -2 67 C-3.65984798 67.68346682 -5.32836805 68.34588315 -7 69 C-9.0572621 70.0085406 -11.0963856 71.04774744 -13.1328125 72.09765625 C-15 73 -15 73 -18 74 C-18 74.66 -18 75.32 -18 76 C-18.99 76 -19.98 76 -21 76 C-21 76.66 -21 77.32 -21 78 C-22.32 78 -23.64 78 -25 78 C-25 78.99 -25 79.98 -25 81 C-26.06541016 81.29003906 -26.06541016 81.29003906 -27.15234375 81.5859375 C-28.53099609 81.97652344 -28.53099609 81.97652344 -29.9375 82.375 C-30.85402344 82.63023438 -31.77054688 82.88546875 -32.71484375 83.1484375 C-35.16745087 83.76660104 -35.16745087 83.76660104 -36 86 C-37.32 86 -38.64 86 -40 86 C-40 86.66 -40 87.32 -40 88 C-43.08809695 89.76462683 -44.23312136 90 -48 90 C-48 90.99 -48 91.98 -48 93 C-48.969375 93.28875 -49.93875 93.5775 -50.9375 93.875 C-54.10664203 94.64214682 -54.10664203 94.64214682 -55 97 C-58.29150026 98.52384271 -61.55931072 99.85310357 -65 101 C-65 101.66 -65 102.32 -65 103 C-68.465 103.495 -68.465 103.495 -72 104 C-72 104.99 -72 105.98 -72 107 C-76 108.33333333 -80 109.66666667 -84 111 C-84 111.66 -84 112.32 -84 113 C-84.66 113 -85.32 113 -86 113 C-86 113.66 -86 114.32 -86 115 C-86.721875 115.268125 -87.44375 115.53625 -88.1875 115.8125 C-91.04139298 116.93232412 -91.04139298 116.93232412 -93.625 118.625 C-96 120 -96 120 -99 120 C-99 120.66 -99 121.32 -99 122 C-100.24735567 122.6509259 -101.49801832 123.29551669 -102.75 123.9375 C-103.79414063 124.47697266 -103.79414063 124.47697266 -104.859375 125.02734375 C-106.90224433 125.95558182 -108.81115376 126.53166578 -111 127 C-111 127.66 -111 128.32 -111 129 C-111.80050781 129.32871094 -111.80050781 129.32871094 -112.6171875 129.6640625 C-117.93789078 131.92858327 -122.82815655 134.58078652 -127.73828125 137.6328125 C-133.30857143 141 -133.30857143 141 -137 141 C-137 141.66 -137 142.32 -137 143 C-137.66 143 -138.32 143 -139 143 C-139 143.66 -139 144.32 -139 145 C-140.98 145 -142.96 145 -145 145 C-145 145.66 -145 146.32 -145 147 C-146.32 147 -147.64 147 -149 147 C-149 147.99 -149 148.98 -149 150 C-150.98 150.33 -152.96 150.66 -155 151 C-155 151.99 -155 152.98 -155 154 C-159.69475367 154.92053993 -162.72807938 155.31904262 -167 153 C-167.99 152.01 -167.99 152.01 -169 151 C-171.57061311 150.35232207 -171.57061311 150.35232207 -174 150 C-174 149.01 -174 148.02 -174 147 C-174.66 147 -175.32 147 -176 147 C-176 146.34 -176 145.68 -176 145 C-177.98 145 -179.96 145 -182 145 C-182.23976562 144.37480469 -182.47953125 143.74960938 -182.7265625 143.10546875 C-184.33443553 140.44705291 -185.43273249 140.15803535 -188.375 139.3125 C-189.14585937 139.08175781 -189.91671875 138.85101563 -190.7109375 138.61328125 C-192.80234124 138.05295636 -194.89671524 137.51381614 -197 137 C-197.495 135.02 -197.495 135.02 -198 133 C-199.32 133 -200.64 133 -202 133 C-202 132.34 -202 131.68 -202 131 C-204.64 130.34 -207.28 129.68 -210 129 C-210 128.34 -210 127.68 -210 127 C-210.66 127 -211.32 127 -212 127 C-212 126.34 -212 125.68 -212 125 C-214.25995562 126.82786051 -214.25995562 126.82786051 -214.20254517 129.51834106 C-214.18033905 130.5797934 -214.15813293 131.64124573 -214.13525391 132.73486328 C-214.11508209 133.93595734 -214.09491028 135.13705139 -214.0741272 136.37454224 C-214.04193085 137.67664642 -214.0097345 138.97875061 -213.9765625 140.3203125 C-213.95039832 141.6626519 -213.92513107 143.00500905 -213.90072632 144.34738159 C-213.83404596 147.88216607 -213.75516017 151.41657757 -213.67376709 154.9510498 C-213.59287524 158.55706454 -213.52347765 162.16329822 -213.453125 165.76953125 C-213.31335983 172.84661152 -213.1607048 179.92336178 -213 187 C-213.66 187 -214.32 187 -215 187 C-215.82538305 183.37593397 -216.14445204 179.99311767 -216.19287109 176.27929688 C-216.20893402 175.15463013 -216.22499695 174.02996338 -216.24154663 172.87121582 C-216.28615427 167.7622963 -216.32701358 162.65350211 -216.35009766 157.54443359 C-216.36346467 154.84780162 -216.39138 152.15192141 -216.43212891 149.45556641 C-216.48678052 145.56389592 -216.50874987 141.67325204 -216.5234375 137.78125 C-216.54610687 136.57593628 -216.56877625 135.37062256 -216.59213257 134.12878418 C-216.56857594 124.83299005 -216.56857594 124.83299005 -213.6027832 121.78637695 C-211.367383 120.25214721 -209.26396086 118.83973402 -206.8125 117.6875 C-206.13832031 117.36136719 -205.46414062 117.03523438 -204.76953125 116.69921875 C-203 116 -203 116 -201 116 C-201 115.34 -201 114.68 -201 114 C-199.68 114 -198.36 114 -197 114 C-197 113.34 -197 112.68 -197 112 C-196.01 112 -195.02 112 -194 112 C-194 111.34 -194 110.68 -194 110 C-190.86501708 108.14223235 -188.62528568 107.79859524 -185 108 C-184.79375 107.401875 -184.5875 106.80375 -184.375 106.1875 C-182.44680579 103.1199183 -180.29483508 102.49765231 -177 101 C-174.6723789 99.68127951 -172.35940128 98.33996033 -170.05078125 96.98828125 C-168 96 -168 96 -165 96 C-164.505 94.515 -164.505 94.515 -164 93 C-161.67328146 92.31060191 -159.33932406 91.64533078 -157 91 C-155.98360991 90.01666324 -154.98507709 89.01470347 -154 88 C-152.50847973 87.0561681 -150.98499142 86.16145329 -149.4375 85.3125 C-148.65246094 84.87550781 -147.86742187 84.43851562 -147.05859375 83.98828125 C-145 83 -145 83 -143 83 C-143 82.34 -143 81.68 -143 81 C-142.29875 80.7525 -141.5975 80.505 -140.875 80.25 C-137.85445734 79.0426709 -137.85445734 79.0426709 -134.875 76.875 C-132 75 -132 75 -129 75 C-129 74.34 -129 73.68 -129 73 C-128.16855469 72.59007813 -127.33710938 72.18015625 -126.48046875 71.7578125 C-125.39378906 71.21898438 -124.30710937 70.68015625 -123.1875 70.125 C-122.10855469 69.59132813 -121.02960938 69.05765625 -119.91796875 68.5078125 C-116.92161735 67.02778861 -116.92161735 67.02778861 -114 65 C-113.01 65 -112.02 65 -111 65 C-111 64.34 -111 63.68 -111 63 C-107.91190305 61.23537317 -106.76687864 61 -103 61 C-103 60.34 -103 59.68 -103 59 C-102.03578125 58.52949219 -101.0715625 58.05898438 -100.078125 57.57421875 C-98.80197704 56.94552821 -97.52594126 56.31660993 -96.25 55.6875 C-95.29867187 55.2244043 -95.29867187 55.2244043 -94.328125 54.75195312 C-91.63096924 53.41742293 -89.13017629 52.09942775 -86.734375 50.26953125 C-85 49 -85 49 -82 49 C-82 48.34 -82 47.68 -82 47 C-78.38944263 44.78945467 -75.25061157 42.93687175 -71.125 41.9375 C-70.09375 41.628125 -69.0625 41.31875 -68 41 C-67.67 40.01 -67.34 39.02 -67 38 C-63.76223566 36.07275932 -60.83900482 34.95777176 -57.1875 34 C-55.6096875 33.505 -55.6096875 33.505 -54 33 C-53.67 32.01 -53.34 31.02 -53 30 C-51.67203709 29.64587656 -50.33783393 29.31478446 -49 29 C-48.566875 28.54625 -48.13375 28.0925 -47.6875 27.625 C-45.66902371 25.68128209 -43.52611457 24.91134534 -40.953125 23.87890625 C-38.85230385 22.93353673 -36.99890078 21.8089627 -35.0625 20.5625 C-24.84090909 14 -24.84090909 14 -20 14 C-20 13.34 -20 12.68 -20 12 C-17.35261084 10.5393715 -16.10551666 10 -13 10 C-13 9.34 -13 8.68 -13 8 C-12.22914063 7.59007812 -11.45828125 7.18015625 -10.6640625 6.7578125 C-9.66117188 6.21898437 -8.65828125 5.68015625 -7.625 5.125 C-6.12839844 4.32449219 -6.12839844 4.32449219 -4.6015625 3.5078125 C-1.94651605 2.1179862 -1.94651605 2.1179862 0 0 Z " fill="#E4B952" transform="translate(334,1)"/>
<path d="M0 0 C0.00142502 0.74502274 0.00285004 1.49004547 0.00431824 2.25764465 C0.02214304 9.27663855 0.0637398 16.29499396 0.13209057 23.31364918 C0.16639191 26.92215611 0.19147523 30.53023832 0.19555664 34.13891602 C0.19983318 37.62117915 0.22823915 41.10248372 0.27343178 44.58444786 C0.29275582 46.56025946 0.28704304 48.53626424 0.28105164 50.51216125 C0.30069473 51.71317978 0.32033783 52.9141983 0.34057617 54.15161133 C0.34723801 55.21084305 0.35389984 56.27007477 0.36076355 57.36140442 C0.74755303 60.24322997 0.74755303 60.24322997 3.54121399 61.74052429 C4.35261337 62.15615128 5.16401276 62.57177826 6 63 C6 63.66 6 64.32 6 65 C8.64 65.33 11.28 65.66 14 66 C14 66.99 14 67.98 14 69 C15.32 69 16.64 69 18 69 C18 69.66 18 70.32 18 71 C19.32 71 20.64 71 22 71 C22 71.66 22 72.32 22 73 C22.99 73 23.98 73 25 73 C25 73.66 25 74.32 25 75 C25.680625 75.0825 26.36125 75.165 27.0625 75.25 C30.05636399 76.01439081 32.33267623 77.23334827 34.96484375 78.82421875 C38.13748817 80.65716687 41.45559917 82.18626979 44.765625 83.75390625 C46.9438039 84.96865986 48.30316167 86.20135137 50 88 C51.65261839 89.02304948 53.31791365 90.02616054 55 91 C56 92 56 92 56.12025452 94.43605042 C56.11803391 95.51748825 56.11581329 96.59892609 56.11352539 97.71313477 C56.11341209 99.54492027 56.11341209 99.54492027 56.11329651 101.41371155 C56.10818911 102.75627686 56.10297311 104.09884175 56.09765625 105.44140625 C56.09579199 106.80761158 56.09436813 108.17381757 56.09336853 109.5400238 C56.08954394 113.14201695 56.07971417 116.74397 56.06866455 120.34594727 C56.05844916 124.01903745 56.05387064 127.69213409 56.04882812 131.36523438 C56.03809184 138.57684123 56.02101614 145.788415 56 153 C55.01 152.67 54.02 152.34 53 152 C53 151.34 53 150.68 53 150 C51.02 149.67 49.04 149.34 47 149 C47 148.34 47 147.68 47 147 C46.05125 146.690625 45.1025 146.38125 44.125 146.0625 C41 145 41 145 39 144 C39 143.34 39 142.68 39 142 C38.01 142 37.02 142 36 142 C36 141.34 36 140.68 36 140 C35.01 140 34.02 140 33 140 C33 139.34 33 138.68 33 138 C31.6078125 137.7834375 31.6078125 137.7834375 30.1875 137.5625 C24.54153846 136.56615385 24.54153846 136.56615385 22.625 134.5625 C20.62064885 132.63523928 18.56472264 132.01239052 16 131 C15.67 130.34 15.34 129.68 15 129 C13.03700146 128.15934368 11.03929129 127.53482652 9.0078125 126.87890625 C6.7718909 125.9001468 5.53483908 124.88717636 4 123 C4 122.34 4 121.68 4 121 C2.68 121 1.36 121 0 121 C0.16330276 121.55768444 0.32660551 122.11536888 0.49485683 122.68995285 C1.04270686 125.19530077 1.10683716 127.39700777 1.08229065 129.96075439 C1.07525116 130.95912323 1.06821167 131.95749207 1.06095886 132.9861145 C1.04801285 134.07512054 1.03506683 135.16412659 1.02172852 136.28613281 C1.01212097 137.43763824 1.00251343 138.58914368 0.99261475 139.77554321 C0.95961216 143.58479909 0.91928435 147.39394074 0.87890625 151.203125 C0.85460638 153.84299313 0.83076276 156.48286549 0.80735779 159.1227417 C0.7512623 165.36294605 0.68989663 171.603087 0.62663645 177.84322238 C0.55486407 184.94834227 0.48896848 192.05351286 0.42356598 199.15869379 C0.28891542 213.7725276 0.14688647 228.38628412 0 243 C-1.4424984 242.70317568 -2.8836563 242.39983191 -4.32421875 242.09375 C-5.12690186 241.92552734 -5.92958496 241.75730469 -6.7565918 241.58398438 C-9.54535883 240.85803697 -11.63260591 239.62335595 -14 238 C-15.32608822 237.31903578 -16.65686601 236.64669414 -18 236 C-18 235.34 -18 234.68 -18 234 C-18.74378906 233.88914062 -19.48757813 233.77828125 -20.25390625 233.6640625 C-23.11537245 232.97210055 -24.59438338 232.11029825 -26.9375 230.375 C-32.92174401 226.19617198 -39.43943446 223.15429751 -46 220 C-46 219.01 -46 218.02 -46 217 C-46.66 217 -47.32 217 -48 217 C-48 216.34 -48 215.68 -48 215 C-48.99 215 -49.98 215 -51 215 C-52.24454028 197.36806771 -52.15426852 179.72922736 -52.13037109 162.06420898 C-52.12466951 157.792603 -52.12805253 153.52105931 -52.1338253 149.24945545 C-52.16789986 119.33171718 -52.16789986 119.33171718 -51.3425293 107.39367676 C-50.83399023 99.09142651 -50.96105781 90.77833134 -51.0078125 82.46484375 C-51.01172626 81.67656378 -51.01564003 80.88828381 -51.01967239 80.07611656 C-51.05667476 72.67359879 -51.10230127 65.27118885 -51.17138672 57.86889648 C-51.20891625 53.78161042 -51.23200363 49.69445938 -51.24569321 45.60702705 C-51.25374317 44.05958769 -51.26734609 42.51216679 -51.28662491 40.96482658 C-51.31295505 38.82134593 -51.3209807 36.6785337 -51.32470703 34.53491211 C-51.33438507 33.31758896 -51.34406311 32.10026581 -51.35403442 30.84605408 C-51.23720306 29.90685623 -51.1203717 28.96765839 -51 28 C-48 26 -48 26 -45 26 C-45 25.34 -45 24.68 -45 24 C-43.865625 23.731875 -42.73125 23.46375 -41.5625 23.1875 C-40.386875 22.795625 -39.21125 22.40375 -38 22 C-37.67 21.01 -37.34 20.02 -37 19 C-33.535 18.505 -33.535 18.505 -30 18 C-29.67 17.01 -29.34 16.02 -29 15 C-26.66185003 13.87588944 -24.41744424 12.90590542 -22 12 C-21.030625 11.608125 -20.06125 11.21625 -19.0625 10.8125 C-18.0415625 10.4103125 -18.0415625 10.4103125 -17 10 C-17 9.34 -17 8.68 -17 8 C-14.09399739 6.74335022 -12.20395416 6 -9 6 C-9 5.34 -9 4.68 -9 4 C-7.68872739 3.3309224 -6.3759455 2.66480194 -5.0625 2 C-4.33160156 1.62875 -3.60070312 1.2575 -2.84765625 0.875 C-1 0 -1 0 0 0 Z " fill="#C66C40" transform="translate(280,159)"/>
<path d="M0 0 C2.475 0.495 2.475 0.495 5 1 C5 1.66 5 2.32 5 3 C3.68 2.67 2.36 2.34 1 2 C1 21.8 1 41.6 1 62 C2.32 62.33 3.64 62.66 5 63 C5.495 64.485 5.495 64.485 6 66 C6.886875 66.103125 7.77375 66.20625 8.6875 66.3125 C12.08109013 67.01683003 14.14218967 68.09479311 17 70 C17.66 70.33 18.32 70.66 19 71 C19 71.66 19 72.32 19 73 C19.66 73 20.32 73 21 73 C21 73.66 21 74.32 21 75 C22.32 75 23.64 75 25 75 C25 75.66 25 76.32 25 77 C25.94875 77.144375 26.8975 77.28875 27.875 77.4375 C31 78 31 78 33 79 C33 79.66 33 80.32 33 81 C34.5159375 81.37125 34.5159375 81.37125 36.0625 81.75 C40.13378354 82.89660638 43.40244406 84.79741473 47 87 C47 87.66 47 88.32 47 89 C48.65 89 50.3 89 52 89 C54.10449721 92.44962163 54.24332803 95.14130431 54.22705078 99.14550781 C54.22689972 100.38649231 54.22674866 101.62747681 54.22659302 102.90606689 C54.21638061 104.2550879 54.20594864 105.60410727 54.1953125 106.953125 C54.19158049 108.3374613 54.18873441 109.72180025 54.18673706 111.10614014 C54.17911534 114.7426691 54.15947955 118.37903731 54.1373291 122.01550293 C54.11683909 125.72906317 54.10772861 129.44264948 54.09765625 133.15625 C54.07623215 140.43757314 54.04211401 147.71876401 54 155 C53.34 155 52.68 155 52 155 C52 155.66 52 156.32 52 157 C51.360625 157.12375 50.72125 157.2475 50.0625 157.375 C49.381875 157.58125 48.70125 157.7875 48 158 C47.67 158.66 47.34 159.32 47 160 C44.68020619 161.03101947 42.34570085 162.02936517 40 163 C39.01 163.66 38.02 164.32 37 165 C35.68 165 34.36 165 33 165 C32.67 166.32 32.34 167.64 32 169 C31.360625 169.12375 30.72125 169.2475 30.0625 169.375 C29.381875 169.58125 28.70125 169.7875 28 170 C27.67 170.66 27.34 171.32 27 172 C24.35139573 172.59355614 21.70802678 172.74209269 19 173 C19 173.99 19 174.98 19 176 C18.32453125 176.32613281 17.6490625 176.65226563 16.953125 176.98828125 C16.06109375 177.42527344 15.1690625 177.86226562 14.25 178.3125 C13.36828125 178.74175781 12.4865625 179.17101562 11.578125 179.61328125 C8.98653572 180.91436812 8.98653572 180.91436812 6.859375 182.66796875 C5 184 5 184 2 184 C2.01411926 184.78625259 2.02823853 185.57250519 2.04278564 186.38258362 C2.16550339 193.81267347 2.23018123 201.23998338 2.23059464 208.6710062 C2.23283005 212.49123853 2.25705634 216.30863057 2.33251953 220.12817383 C2.40460761 223.81865685 2.41764752 227.50516909 2.39070892 231.19621086 C2.39065335 232.6000824 2.41145491 234.00412251 2.4539566 235.40735054 C2.58048171 239.8562226 2.49012776 243.78586942 1 248 C-3.23473108 251.92424569 -8.11024009 255 -14 255 C-14 255.66 -14 256.32 -14 257 C-15.32 257 -16.64 257 -18 257 C-18 257.66 -18 258.32 -18 259 C-20.46210835 261.36362402 -22.29046449 262.08012813 -25.625 263 C-29.25073889 263.68257524 -29.25073889 263.68257524 -31 267 C-34.12992024 268.74693223 -37.31289031 270.12947185 -40.625 271.5 C-43.50085222 272.77815654 -45.54750544 274.09250423 -48 276 C-48.66 276 -49.32 276 -50 276 C-50 276.66 -50 277.32 -50 278 C-53 280 -53 280 -56 280 C-56 279.34 -56 278.68 -56 278 C-57.65 277.34 -59.3 276.68 -61 276 C-59.68 275.67 -58.36 275.34 -57 275 C-56.67 235.07 -56.34 195.14 -56 154 C-54.68 154 -53.36 154 -52 154 C-50.33333333 155.66666667 -48.66666667 157.33333333 -47 159 C-44.70777315 160.22252099 -42.4434616 161.08969078 -40 162 C-40 162.66 -40 163.32 -40 164 C-39.236875 164.12375 -38.47375 164.2475 -37.6875 164.375 C-35 165 -35 165 -32 167 C-32 167.66 -32 168.32 -32 169 C-29.03 169.66 -26.06 170.32 -23 171 C-23 171.66 -23 172.32 -23 173 C-22.01 173 -21.02 173 -20 173 C-20 173.66 -20 174.32 -20 175 C-19.01 175 -18.02 175 -17 175 C-17 175.66 -17 176.32 -17 177 C-16.05125 177.309375 -15.1025 177.61875 -14.125 177.9375 C-11 179 -11 179 -9 180 C-9 180.66 -9 181.32 -9 182 C-7.02 182.33 -5.04 182.66 -3 183 C-3 183.66 -3 184.32 -3 185 C-2.34 185 -1.68 185 -1 185 C-0.88418794 177.22893172 -0.7953272 169.45806525 -0.74093914 161.68635082 C-0.71483606 158.07761867 -0.67942778 154.46947652 -0.62280273 150.86108398 C-0.56850413 147.37918104 -0.53858482 143.89784576 -0.52561378 140.41555214 C-0.51186822 138.43945702 -0.47283075 136.46359059 -0.43351746 134.48783875 C-0.4331398 133.28682022 -0.43276215 132.0858017 -0.43237305 130.84838867 C-0.42126999 129.78915695 -0.41016693 128.72992523 -0.39872742 127.63859558 C-0.74588802 124.79365058 -0.74588802 124.79365058 -3.34797668 123.25947571 C-4.22314438 122.84384872 -5.09831207 122.42822174 -6 122 C-6.99 121.34 -7.98 120.68 -9 120 C-9 119.34 -9 118.68 -9 118 C-9.556875 117.88398438 -10.11375 117.76796875 -10.6875 117.6484375 C-13.31462476 116.91177752 -15.56313962 115.85085964 -18 114.625 C-18.845625 114.20476562 -19.69125 113.78453125 -20.5625 113.3515625 C-22.88454952 112.06401581 -24.8849589 110.59531946 -27 109 C-29.14733927 108.29485154 -29.14733927 108.29485154 -31 108 C-31 107.34 -31 106.68 -31 106 C-31.99 106 -32.98 106 -34 106 C-34 105.34 -34 104.68 -34 104 C-35.32 104 -36.64 104 -38 104 C-38 103.34 -38 102.68 -38 102 C-39.32 102 -40.64 102 -42 102 C-42 101.01 -42 100.02 -42 99 C-45.02734375 98.75585938 -45.02734375 98.75585938 -48.0546875 98.51171875 C-50 98 -50 98 -52 95 C-52.99 94.67 -53.98 94.34 -55 94 C-55 73.21 -55 52.42 -55 31 C-54.34 31 -53.68 31 -53 31 C-53 50.8 -53 70.6 -53 91 C-50.525 90.01 -50.525 90.01 -48 89 C-48 88.34 -48 87.68 -48 87 C-45.03 86.505 -45.03 86.505 -42 86 C-42 85.34 -42 84.68 -42 84 C-39.525 83.505 -39.525 83.505 -37 83 C-37 82.34 -37 81.68 -37 81 C-35 80 -33 79 -31 78 C-30.29875 77.608125 -29.5975 77.21625 -28.875 76.8125 C-27 76 -27 76 -23 76 C-22.505 74.515 -22.505 74.515 -22 73 C-21.34 73 -20.68 73 -20 73 C-20 72.34 -20 71.68 -20 71 C-19.00097656 70.51789063 -18.00195312 70.03578125 -16.97265625 69.5390625 C-15.66911549 68.90135911 -14.36573849 68.26332089 -13.0625 67.625 C-12.40314453 67.30789062 -11.74378906 66.99078125 -11.06445312 66.6640625 C-7.38695193 65.04522631 -7.38695193 65.04522631 -5 62 C-3.35 62 -1.7 62 0 62 C0 41.54 0 21.08 0 0 Z " fill="#D79349" transform="translate(336,126)"/>
<path d="M0 0 C0.66 0 1.32 0 2 0 C2 0.99 2 1.98 2 3 C4.31 3.33 6.62 3.66 9 4 C9 4.99 9 5.98 9 7 C10.32 7 11.64 7 13 7 C13 7.66 13 8.32 13 9 C13.598125 9.144375 14.19625 9.28875 14.8125 9.4375 C16.56150404 9.8872439 18.28677023 10.42892341 20 11 C20 11.66 20 12.32 20 13 C20.7425 13.0825 21.485 13.165 22.25 13.25 C25.5442086 14.14842053 26.66070899 15.58524799 29 18 C31.1381966 18.7872678 31.1381966 18.7872678 33 19 C33 19.66 33 20.32 33 21 C33.62648438 21.10957031 34.25296875 21.21914062 34.8984375 21.33203125 C35.71570313 21.49058594 36.53296875 21.64914063 37.375 21.8125 C38.18710937 21.96332031 38.99921875 22.11414063 39.8359375 22.26953125 C42 23 42 23 44 26 C45.84364511 27.18160983 45.84364511 27.18160983 47.9375 28.125 C48.62714844 28.45757812 49.31679688 28.79015625 50.02734375 29.1328125 C52.14177179 30.09853112 52.14177179 30.09853112 55 31 C55 31.99 55 32.98 55 34 C56.36125 34.185625 56.36125 34.185625 57.75 34.375 C60.58970323 34.92109677 62.52590591 35.57263803 65 37 C65 37.66 65 38.32 65 39 C66.98 39.66 68.96 40.32 71 41 C71 41.66 71 42.32 71 43 C73.97 43.66 76.94 44.32 80 45 C80 45.66 80 46.32 80 47 C81.98 47.495 81.98 47.495 84 48 C84 48.66 84 49.32 84 50 C85.65 50.66 87.3 51.32 89 52 C89 52.66 89 53.32 89 54 C89.763125 54.144375 90.52625 54.28875 91.3125 54.4375 C94 55 94 55 97 56 C97 56.66 97 57.32 97 58 C97.721875 58.103125 98.44375 58.20625 99.1875 58.3125 C102.27746686 59.06782523 104.39558686 60.19137976 107 62 C108.70199977 65.40399954 108.14145487 69.28691198 108.1328125 73.03125 C108.13376923 73.93693726 108.13472595 74.84262451 108.13571167 75.77575684 C108.13639337 77.69913807 108.1345398 79.6225216 108.13037109 81.54589844 C108.12507211 84.46034071 108.13029057 87.37462536 108.13671875 90.2890625 C108.136057 92.16145867 108.13477384 94.03385474 108.1328125 95.90625 C108.13483673 96.76706177 108.13686096 97.62787354 108.13894653 98.51477051 C108.1225571 102.84933135 108.00762921 107.17923753 107.74169922 111.50585938 C107.67388748 112.7266217 107.67388748 112.7266217 107.60470581 113.9720459 C107 116 107 116 105.1411438 117.21838379 C103.43741471 117.84032346 101.72062535 118.42645822 100 119 C99.67 117.35 99.34 115.7 99 114 C97.9171875 114.54720703 97.9171875 114.54720703 96.8125 115.10546875 C93.38358672 116.19605367 92.236185 115.75361363 89 114.3125 C88.13632812 113.92964844 87.27265625 113.54679687 86.3828125 113.15234375 C83.79816381 111.90239069 81.31993745 110.70128747 79 109 C79 108.34 79 107.68 79 107 C78.484375 106.9175 77.96875 106.835 77.4375 106.75 C74.54983339 105.8614872 72.25856781 104.45319147 69.67578125 102.91015625 C67.96026489 101.88580767 67.96026489 101.88580767 65.6875 101.4375 C64 101 64 101 62 98 C60.03120677 96.93988057 58.02081924 95.95723017 56 95 C50.54839751 92.16449159 45.24654013 89.24518144 40.1875 85.75 C36.88984991 83.47657516 33.85578692 82.15673607 30 81 C29.505 80.01 29.505 80.01 29 79 C27.11461256 77.96188023 25.19089824 76.99271099 23.25 76.0625 C19.37644223 74.19727698 15.66097519 72.25384496 12 70 C10.731674 69.26648071 9.46115135 68.53673312 8.1875 67.8125 C7.135625 67.214375 6.08375 66.61625 5 66 C5 65.01 5 64.02 5 63 C3.68 63 2.36 63 1 63 C-0.35144654 60.29710692 -0.11975165 58.19930194 -0.11352539 55.17333984 C-0.11341209 53.34166763 -0.11341209 53.34166763 -0.11329651 51.47299194 C-0.10818952 50.13564005 -0.10297352 48.79828857 -0.09765625 47.4609375 C-0.0957914 46.09616141 -0.09436781 44.73138466 -0.09336853 43.36660767 C-0.08954863 39.77284907 -0.07972283 36.17913083 -0.06866455 32.58538818 C-0.05843911 28.91891018 -0.05386848 25.25242565 -0.04882812 21.5859375 C-0.0381001 14.39060659 -0.02102999 7.19530895 0 0 Z " fill="#C66C40" transform="translate(336,64)"/>
<path d="M0 0 C2.475 0.495 2.475 0.495 5 1 C5 1.66 5 2.32 5 3 C3.68 2.67 2.36 2.34 1 2 C1 21.8 1 41.6 1 62 C2.32 62.33 3.64 62.66 5 63 C5.495 64.485 5.495 64.485 6 66 C6.886875 66.103125 7.77375 66.20625 8.6875 66.3125 C12.08109013 67.01683003 14.14218967 68.09479311 17 70 C17.66 70.33 18.32 70.66 19 71 C19 71.66 19 72.32 19 73 C19.66 73 20.32 73 21 73 C21 73.66 21 74.32 21 75 C22.32 75 23.64 75 25 75 C25 75.66 25 76.32 25 77 C25.94875 77.144375 26.8975 77.28875 27.875 77.4375 C31 78 31 78 33 79 C33 79.66 33 80.32 33 81 C34.5159375 81.37125 34.5159375 81.37125 36.0625 81.75 C40.13378354 82.89660638 43.40244406 84.79741473 47 87 C47 87.66 47 88.32 47 89 C48.65 89 50.3 89 52 89 C54.10449721 92.44962163 54.24332803 95.14130431 54.22705078 99.14550781 C54.22689972 100.38649231 54.22674866 101.62747681 54.22659302 102.90606689 C54.21638061 104.2550879 54.20594864 105.60410727 54.1953125 106.953125 C54.19158049 108.3374613 54.18873441 109.72180025 54.18673706 111.10614014 C54.17911534 114.7426691 54.15947955 118.37903731 54.1373291 122.01550293 C54.11683909 125.72906317 54.10772861 129.44264948 54.09765625 133.15625 C54.07623215 140.43757314 54.04211401 147.71876401 54 155 C53.34 155 52.68 155 52 155 C52 155.66 52 156.32 52 157 C50.35 157.33 48.7 157.66 47 158 C47 157.34 47 156.68 47 156 C47.66 156 48.32 156 49 156 C49 155.34 49 154.68 49 154 C49.99 154 50.98 154 52 154 C51.505 125.29 51.505 125.29 51 96 C42.72992413 99.03075649 42.72992413 99.03075649 40 102 C37.67724823 102.40047444 35.34260643 102.7397104 33 103 C33 103.99 33 104.98 33 106 C31.68 106 30.36 106 29 106 C29 106.99 29 107.98 29 109 C27.02 109.33 25.04 109.66 23 110 C23 110.66 23 111.32 23 112 C22.01 112 21.02 112 20 112 C20 112.66 20 113.32 20 114 C19.071875 114.28875 18.14375 114.5775 17.1875 114.875 C13.90208333 115.8875 13.90208333 115.8875 11 118 C10.01 118 9.02 118 8 118 C8 118.66 8 119.32 8 120 C7.34 120 6.68 120 6 120 C6 120.66 6 121.32 6 122 C0.72630218 123.07626486 -2.96783018 123.01286793 -8 121 C-8.33 120.01 -8.66 119.02 -9 118 C-10.81684423 117.40949981 -10.81684423 117.40949981 -13 117 C-14.68543441 116.24911736 -16.35167838 115.45418618 -18 114.625 C-18.845625 114.20476562 -19.69125 113.78453125 -20.5625 113.3515625 C-22.88454952 112.06401581 -24.8849589 110.59531946 -27 109 C-29.14733927 108.29485154 -29.14733927 108.29485154 -31 108 C-31 107.34 -31 106.68 -31 106 C-31.99 106 -32.98 106 -34 106 C-34 105.34 -34 104.68 -34 104 C-35.32 104 -36.64 104 -38 104 C-38 103.34 -38 102.68 -38 102 C-39.32 102 -40.64 102 -42 102 C-42 101.01 -42 100.02 -42 99 C-44.01822917 98.83723958 -46.03645833 98.67447917 -48.0546875 98.51171875 C-50 98 -50 98 -52 95 C-52.99 94.67 -53.98 94.34 -55 94 C-55 73.21 -55 52.42 -55 31 C-54.34 31 -53.68 31 -53 31 C-53 50.8 -53 70.6 -53 91 C-50.525 90.01 -50.525 90.01 -48 89 C-48 88.34 -48 87.68 -48 87 C-45.03 86.505 -45.03 86.505 -42 86 C-42 85.34 -42 84.68 -42 84 C-39.525 83.505 -39.525 83.505 -37 83 C-37 82.34 -37 81.68 -37 81 C-35 80 -33 79 -31 78 C-30.29875 77.608125 -29.5975 77.21625 -28.875 76.8125 C-27 76 -27 76 -23 76 C-22.505 74.515 -22.505 74.515 -22 73 C-21.34 73 -20.68 73 -20 73 C-20 72.34 -20 71.68 -20 71 C-19.00097656 70.51789063 -18.00195312 70.03578125 -16.97265625 69.5390625 C-15.66911549 68.90135911 -14.36573849 68.26332089 -13.0625 67.625 C-12.40314453 67.30789062 -11.74378906 66.99078125 -11.06445312 66.6640625 C-7.38695193 65.04522631 -7.38695193 65.04522631 -5 62 C-3.35 62 -1.7 62 0 62 C0 41.54 0 21.08 0 0 Z " fill="#E5B954" transform="translate(336,126)"/>
<path d="M0 0 C0.99 0 1.98 0 3 0 C3 18.81 3 37.62 3 57 C2.01 57.495 2.01 57.495 1 58 C0.896875 58.78375 0.79375 59.5675 0.6875 60.375 C0 63 0 63 -2 64.5 C-2.99 64.995 -3.98 65.49 -5 66 C-6.54192068 66.89539605 -8.08356918 67.79126091 -9.625 68.6875 C-12.48413441 70.34150437 -13.63950489 71 -17 71 C-17 71.66 -17 72.32 -17 73 C-20 75 -20 75 -23 75 C-23 75.66 -23 76.32 -23 77 C-23.62648438 77.26554687 -24.25296875 77.53109375 -24.8984375 77.8046875 C-25.71570313 78.15789062 -26.53296875 78.51109375 -27.375 78.875 C-28.18710937 79.22304687 -28.99921875 79.57109375 -29.8359375 79.9296875 C-32.13802299 80.92446067 -32.13802299 80.92446067 -34 83 C-35.65697379 83.69040574 -37.3255761 84.3530635 -39 85 C-43.73639061 87.09171685 -43.73639061 87.09171685 -47 91 C-50.465 90.505 -50.465 90.505 -54 90 C-54.33 89.01 -54.66 88.02 -55 87 C-56.9812585 86.27954236 -58.98504093 85.61998741 -61 85 C-62.69207001 84.0436126 -64.36816893 83.05589069 -66 82 C-65.1028125 81.7834375 -65.1028125 81.7834375 -64.1875 81.5625 C-62.43849596 81.1127561 -60.71322977 80.57107659 -59 80 C-58.34 80.99 -57.68 81.98 -57 83 C-57 82.67 -57 82.34 -57 82 C-55.02 82 -53.04 82 -51 82 C-50.99191315 81.35298126 -50.98382629 80.70596252 -50.97549438 80.03933716 C-50.88964128 73.32370872 -50.79014685 66.60838204 -50.68261719 59.89306641 C-50.64426127 57.38465429 -50.60942025 54.87618592 -50.578125 52.36767578 C-50.53261791 48.76834971 -50.4746 45.16941317 -50.4140625 41.5703125 C-50.40251129 40.44319855 -50.39096008 39.31608459 -50.37905884 38.15481567 C-50.35918915 37.11388763 -50.33931946 36.07295959 -50.31884766 35.00048828 C-50.30552399 34.08115509 -50.29220032 33.1618219 -50.2784729 32.21463013 C-50 30 -50 30 -48 28 C-47.01 28 -46.02 28 -45 28 C-45 27.34 -45 26.68 -45 26 C-42.48213784 22.59348061 -38.8707551 21.42606767 -35 20 C-33.68 20 -32.36 20 -31 20 C-31 19.01 -31 18.02 -31 17 C-29.02 16.67 -27.04 16.34 -25 16 C-25 15.34 -25 14.68 -25 14 C-23.35546875 12.7109375 -23.35546875 12.7109375 -21.1875 11.375 C-20.47980469 10.92898437 -19.77210938 10.48296875 -19.04296875 10.0234375 C-17 9 -17 9 -14 9 C-14 8.34 -14 7.68 -14 7 C-12.88625 6.9175 -11.7725 6.835 -10.625 6.75 C-6.94246056 6.42126213 -6.94246056 6.42126213 -5.5625 3.9375 C-5.2840625 2.9784375 -5.2840625 2.9784375 -5 2 C-3.35 2 -1.7 2 0 2 C0 1.34 0 0.68 0 0 Z " fill="#D79348" transform="translate(494,98)"/>
<path d="M0 0 C0.66 0 1.32 0 2 0 C2 0.66 2 1.32 2 2 C2.66 2 3.32 2 4 2 C4 2.66 4 3.32 4 4 C4.763125 3.95875 5.52625 3.9175 6.3125 3.875 C9 4 9 4 12 6 C12 6.66 12 7.32 12 8 C13.32 8 14.64 8 16 8 C16.33 9.32 16.66 10.64 17 12 C17.99 12.1546875 17.99 12.1546875 19 12.3125 C29.08196721 14.62295082 29.08196721 14.62295082 32 19 C35.06556598 19.73343428 35.06556598 19.73343428 38 20 C38 20.66 38 21.32 38 22 C38.66 22 39.32 22 40 22 C40 22.99 40 23.98 40 25 C40.763125 24.938125 41.52625 24.87625 42.3125 24.8125 C45.53016907 25.03698854 45.89962531 25.71698403 48 28 C49.32139502 28.37789428 50.65514115 28.71672707 52 29 C53.94895497 36.31821034 54.27271293 43.07244352 54.1875 50.625 C54.18685547 51.718125 54.18621094 52.81125 54.18554688 53.9375 C54.13773229 62.71413269 54.13773229 62.71413269 53.45703125 67.02734375 C52.9735142 70.17227089 53.32506774 72.80597612 53.80859375 75.93359375 C54.12816046 79.38360984 53.548085 82.58969336 53 86 C48.125 85.125 48.125 85.125 47 84 C46.34 84.66 45.68 85.32 45 86 C38.99590388 84.77188943 34.36877774 82.0265969 29.14453125 78.87890625 C25.25090361 76.55240327 21.274353 74.4040218 17.27734375 72.26171875 C15 71 15 71 12 69 C12 68.34 12 67.68 12 67 C10.88625 66.855625 9.7725 66.71125 8.625 66.5625 C5 66 5 66 3 65 C3 64.34 3 63.68 3 63 C2.34 63 1.68 63 1 63 C-0.33017653 60.33964694 -0.16895238 58.26000498 -0.22119141 55.28100586 C-0.24436432 54.0831395 -0.26753723 52.88527313 -0.29141235 51.65110779 C-0.32118668 49.70265709 -0.32118668 49.70265709 -0.3515625 47.71484375 C-0.37467306 46.37487823 -0.39806334 45.0349175 -0.42172241 43.69496155 C-0.47018272 40.88644521 -0.51511614 38.07789976 -0.55761719 35.26928711 C-0.61250732 31.66191574 -0.67632537 28.05476714 -0.74279213 24.44759274 C-0.79276023 21.68109125 -0.83792874 18.9145275 -0.88163376 16.14792061 C-0.91379917 14.16854844 -0.95012281 12.18924528 -0.98648071 10.20994568 C-1.0033493 9.01523148 -1.0202179 7.82051727 -1.03759766 6.58959961 C-1.05456696 5.53195908 -1.07153625 4.47431854 -1.08901978 3.3846283 C-1 1 -1 1 0 0 Z " fill="#C66D40" transform="translate(120,126)"/>
<path d="M0 0 C0.65617521 17.9994445 1.10504538 35.98778486 1.125 54 C1.12749756 54.77176575 1.12999512 55.54353149 1.13256836 56.33868408 C1.13458252 57.093974 1.13659668 57.84926392 1.13867188 58.62744141 C1.14072632 59.28193268 1.14278076 59.93642395 1.14489746 60.61074829 C1.11693887 66.42747583 1.02372529 72.21566413 0.63756466 78.02075386 C-0.1288796 89.60045253 -0.12810565 101.15756171 -0.09765625 112.7578125 C-0.09578571 114.88442959 -0.09436482 117.01104712 -0.09336853 119.13766479 C-0.08959337 124.67109415 -0.07980728 130.20449627 -0.06866455 135.73791504 C-0.05834143 141.40990836 -0.05384782 147.08190619 -0.04882812 152.75390625 C-0.0381793 163.83594931 -0.02116484 174.91797237 0 186 C0.99 186 1.98 186 3 186 C3 186.66 3 187.32 3 188 C3.66 188 4.32 188 5 188 C4.67 188.66 4.34 189.32 4 190 C1.04509544 188.46902084 1.04509544 188.46902084 -2 186 C-2.60819027 183.21444693 -2.79024634 181.2801859 -2.7215271 178.4956665 C-2.72665365 177.73679162 -2.7317802 176.97791673 -2.7370621 176.19604564 C-2.74695229 173.65099345 -2.71393912 171.10831029 -2.68115234 168.56347656 C-2.67946006 166.7402502 -2.68040959 164.91701975 -2.68380737 163.09379578 C-2.68553121 158.14135406 -2.65021833 153.18978157 -2.60836363 148.23754215 C-2.57089434 143.06325227 -2.56733427 137.88894319 -2.56021118 132.71453857 C-2.54155116 122.91488112 -2.49229839 113.11562455 -2.43211424 103.31614375 C-2.36508516 92.16033441 -2.33206915 81.00450608 -2.30194163 69.84854555 C-2.23920045 46.89880798 -2.13364283 23.94942644 -2 1 C-2.53109375 1.34933594 -3.0621875 1.69867188 -3.609375 2.05859375 C-4.31578125 2.51363281 -5.0221875 2.96867188 -5.75 3.4375 C-6.79414063 4.11619141 -6.79414063 4.11619141 -7.859375 4.80859375 C-9.94093943 5.9671287 -11.70027285 6.46002214 -14 7 C-14.680625 7.515625 -15.36125 8.03125 -16.0625 8.5625 C-18 10 -18 10 -21 10 C-21 10.66 -21 11.32 -21 12 C-22.8125 13.0625 -22.8125 13.0625 -25 14 C-25.99 13.67 -26.98 13.34 -28 13 C-26 10 -26 10 -22.875 9.3125 C-21.451875 9.1578125 -21.451875 9.1578125 -20 9 C-20 8.34 -20 7.68 -20 7 C-19.34 7 -18.68 7 -18 7 C-18 6.34 -18 5.68 -18 5 C-15.03 4.34 -12.06 3.68 -9 3 C-9 2.01 -9 1.02 -9 0 C-5.64998162 -1.11667279 -3.40745188 -0.76286236 0 0 Z " fill="#D39C78" transform="translate(229,188)"/>
<path d="M0 0 C1.98 0 3.96 0 6 0 C4.6875 1.5 4.6875 1.5 3 3 C2.01 3 1.02 3 0 3 C0.01411926 3.78625259 0.02823853 4.57250519 0.04278564 5.38258362 C0.16550339 12.81267347 0.23018123 20.23998338 0.23059464 27.6710062 C0.23283005 31.49123853 0.25705634 35.30863057 0.33251953 39.12817383 C0.40460761 42.81865685 0.41764752 46.50516909 0.39070892 50.19621086 C0.39065335 51.6000824 0.41145491 53.00412251 0.4539566 54.40735054 C0.58049513 58.85669437 0.48856668 62.78499679 -1 67 C-4.59066792 70.37487347 -8.30821112 72.49982428 -13 74 C-13.99 73.67 -14.98 73.34 -16 73 C-15.505 72.01 -15.505 72.01 -15 71 C-13.68 71 -12.36 71 -11 71 C-11 70.34 -11 69.68 -11 69 C-10.195625 68.71125 -9.39125 68.4225 -8.5625 68.125 C-5.8673532 67.26737432 -5.8673532 67.26737432 -5 65 C-4.34 65 -3.68 65 -3 65 C-3.00222061 64.25497726 -3.00444122 63.50995453 -3.00672913 62.74235535 C-3.02676019 55.72369072 -3.04198853 48.70503599 -3.05181217 41.68635082 C-3.05703236 38.07791615 -3.06411436 34.46950508 -3.07543945 30.86108398 C-3.086299 27.37923767 -3.09228336 23.89741408 -3.09487724 20.41555214 C-3.0976261 18.43964005 -3.10543327 16.4637371 -3.11329651 14.48783875 C-3.11337204 13.28682022 -3.11344757 12.0858017 -3.11352539 10.84838867 C-3.115746 9.78915695 -3.11796661 8.72992523 -3.12025452 7.63859558 C-3 5 -3 5 -2 2 C-1.34 2 -0.68 2 0 2 C0 1.34 0 0.68 0 0 Z " fill="#E0BA8C" transform="translate(338,307)"/>
<path d="M0 0 C1.32 0.33 2.64 0.66 4 1 C4 1.66 4 2.32 4 3 C5.32 3.33 6.64 3.66 8 4 C8.06948318 12.03195042 8.12280239 20.06377545 8.15543652 28.09595203 C8.17109859 31.82555055 8.19234629 35.55494358 8.22631836 39.28442383 C8.25889319 42.88299774 8.27684894 46.48137389 8.28463173 50.08008385 C8.29017868 51.45364178 8.30101052 52.82718878 8.31719017 54.20066261 C8.33893676 56.12300707 8.34022517 58.04555015 8.34057617 59.96801758 C8.34723801 61.06277908 8.35389984 62.15754059 8.36076355 63.28547668 C8 66 8 66 6.60371399 67.8769989 C5 69 5 69 3 69 C3.33 67.35 3.66 65.7 4 64 C4.66 64 5.32 64 6 64 C5.67 63.34 5.34 62.68 5 62 C4.93788787 60.24245597 4.94214265 58.48239116 4.97827148 56.72412109 C4.99836777 55.6231308 5.01846405 54.5221405 5.03916931 53.38778687 C5.07972191 51.59868393 5.07972191 51.59868393 5.12109375 49.7734375 C5.14470474 48.55548492 5.16831573 47.33753235 5.19264221 46.08267212 C5.26941624 42.18000019 5.35338157 38.27751988 5.4375 34.375 C5.49070691 31.73438448 5.54344739 29.09375952 5.59570312 26.453125 C5.72504996 19.9686306 5.86030646 13.48427931 6 7 C5.34 7 4.68 7 4 7 C4 6.01 4 5.02 4 4 C2.68 3.67 1.36 3.34 0 3 C0 2.01 0 1.02 0 0 Z " fill="#E6CBA0" transform="translate(491,91)"/>
<path d="M0 0 C1.65 0 3.3 0 5 0 C7.10449721 3.44962163 7.24332803 6.14130431 7.22705078 10.14550781 C7.22689972 11.38649231 7.22674866 12.62747681 7.22659302 13.90606689 C7.21638061 15.2550879 7.20594864 16.60410727 7.1953125 17.953125 C7.19158049 19.3374613 7.18873441 20.72180025 7.18673706 22.10614014 C7.17911534 25.7426691 7.15947955 29.37903731 7.1373291 33.01550293 C7.11683909 36.72906317 7.10772861 40.44264948 7.09765625 44.15625 C7.07623215 51.43757314 7.04211401 58.71876401 7 66 C6.34 66 5.68 66 5 66 C5 66.66 5 67.32 5 68 C2.525 68.495 2.525 68.495 0 69 C0 68.34 0 67.68 0 67 C0.66 67 1.32 67 2 67 C2 66.34 2 65.68 2 65 C2.99 65 3.98 65 5 65 C4.505 33.32 4.505 33.32 4 1 C2.68 0.67 1.36 0.34 0 0 Z " fill="#E1BB81" transform="translate(383,215)"/>
<path d="M0 0 C0.66 0 1.32 0 2 0 C2.01030746 0.75977142 2.02061493 1.51954285 2.03123474 2.30233765 C2.12911217 9.45383955 2.23161256 16.605253 2.33933926 23.75661278 C2.39456189 27.43341429 2.44798081 31.11022376 2.49731445 34.78710938 C2.54496779 38.33385866 2.59731091 41.88051026 2.65294075 45.4271431 C2.67335992 46.7819336 2.69207374 48.13675088 2.70907402 49.49158859 C2.73312739 51.38556789 2.76374383 53.27946043 2.79467773 55.17333984 C2.81799416 56.79216568 2.81799416 56.79216568 2.84178162 58.44369507 C2.83212193 60.99016557 2.83212193 60.99016557 4 63 C2.68 63 1.36 63 0 63 C0 42.21 0 21.42 0 0 Z " fill="#E9AB65" transform="translate(281,157)"/>
<path d="M0 0 C0.33 0 0.66 0 1 0 C1 19.14 1 38.28 1 58 C-0.485 58.495 -0.485 58.495 -2 59 C-2 58.34 -2 57.68 -2 57 C-3.19625 56.9175 -4.3925 56.835 -5.625 56.75 C-10.04377027 56.2232071 -12.51439983 54.70134013 -16 52 C-15.401875 51.855625 -14.80375 51.71125 -14.1875 51.5625 C-12.43849596 51.1127561 -10.71322977 50.57107659 -9 50 C-8.34 50.99 -7.68 51.98 -7 53 C-7 52.67 -7 52.34 -7 52 C-5.02 52 -3.04 52 -1 52 C-0.67 34.84 -0.34 17.68 0 0 Z " fill="#CF8048" transform="translate(444,128)"/>
<path d="M0 0 C0.99 0 1.98 0 3 0 C3 0.66 3 1.32 3 2 C2.37351562 2.26554688 1.74703125 2.53109375 1.1015625 2.8046875 C0.28429687 3.15789062 -0.53296875 3.51109375 -1.375 3.875 C-2.18710937 4.22304687 -2.99921875 4.57109375 -3.8359375 4.9296875 C-6.13802299 5.92446067 -6.13802299 5.92446067 -8 8 C-9.65697379 8.69040574 -11.3255761 9.3530635 -13 10 C-17.73639061 12.09171685 -17.73639061 12.09171685 -21 16 C-23.31 15.67 -25.62 15.34 -28 15 C-28.33 14.01 -28.66 13.02 -29 12 C-28.01 12 -27.02 12 -26 12 C-26 12.66 -26 13.32 -26 14 C-24.68 14 -23.36 14 -22 14 C-22 12.35 -22 10.7 -22 9 C-20.68 8.34 -19.36 7.68 -18 7 C-18 6.34 -18 5.68 -18 5 C-13.25 5.875 -13.25 5.875 -11 7 C-11 6.34 -11 5.68 -11 5 C-10.28972656 4.72285156 -9.57945312 4.44570312 -8.84765625 4.16015625 C-7.46900391 3.61681641 -7.46900391 3.61681641 -6.0625 3.0625 C-5.14597656 2.70285156 -4.22945313 2.34320313 -3.28515625 1.97265625 C-1.07581467 1.2003782 -1.07581467 1.2003782 0 0 Z " fill="#D79F5D" transform="translate(468,173)"/>
<path d="M0 0 C5.29860806 1.2976183 9.34525646 3.15015702 14 6 C14 6.99 14 7.98 14 9 C15.32 9 16.64 9 18 9 C19.125 12.75 19.125 12.75 18 15 C15.4375 15.625 15.4375 15.625 13 16 C12.67 15.01 12.34 14.02 12 13 C9.98491642 12.26676204 9.98491642 12.26676204 8 12 C8.04125 11.21625 8.0825 10.4325 8.125 9.625 C8.28728734 6.83883881 8.28728734 6.83883881 6 5 C5.34 4.87625 4.68 4.7525 4 4.625 C2 4 2 4 0.75 1.9375 C0.5025 1.298125 0.255 0.65875 0 0 Z " fill="#E3B958" transform="translate(369,207)"/>
<path d="M0 0 C3.465 1.485 3.465 1.485 7 3 C7 3.99 7 4.98 7 6 C7.99 6 8.98 6 10 6 C10 5.34 10 4.68 10 4 C12.31 2.68 14.62 1.36 17 0 C17 0.66 17 1.32 17 2 C18.32 2.33 19.64 2.66 21 3 C16.9728176 5.20536179 13.56454251 6.45660208 9 7 C9 7.66 9 8.32 9 9 C8.01 9.33 7.02 9.66 6 10 C5.34 9.67 4.68 9.34 4 9 C4 8.34 4 7.68 4 7 C2.63875 6.5978125 2.63875 6.5978125 1.25 6.1875 C-1.71471963 5.10423706 -3.6169754 4.01640543 -6 2 C-4.35 2 -2.7 2 -1 2 C-0.67 1.34 -0.34 0.68 0 0 Z " fill="#D1895B" transform="translate(166,209)"/>
<path d="M0 0 C0 5.94 0 11.88 0 18 C-0.33 18 -0.66 18 -1 18 C-1 12.39 -1 6.78 -1 1 C-2.2375 1.804375 -3.475 2.60875 -4.75 3.4375 C-7.52238311 5.23954902 -9.79651223 6.24781839 -13 7 C-13.680625 7.515625 -14.36125 8.03125 -15.0625 8.5625 C-17 10 -17 10 -20 10 C-20 10.66 -20 11.32 -20 12 C-21.8125 13.0625 -21.8125 13.0625 -24 14 C-24.99 13.67 -25.98 13.34 -27 13 C-25 10 -25 10 -21.875 9.3125 C-20.451875 9.1578125 -20.451875 9.1578125 -19 9 C-19 8.34 -19 7.68 -19 7 C-18.34 7 -17.68 7 -17 7 C-17 6.34 -17 5.68 -17 5 C-14.03 4.34 -11.06 3.68 -8 3 C-8 2.01 -8 1.02 -8 0 C-4.63458162 -1.08174162 -3.70152678 -0.92538169 0 0 Z " fill="#E0B78A" transform="translate(228,188)"/>
<path d="M0 0 C0.66 0 1.32 0 2 0 C1.67 19.8 1.34 39.6 1 60 C2.65 60.33 4.3 60.66 6 61 C5.67 62.32 5.34 63.64 5 65 C4.34 65 3.68 65 3 65 C3 64.34 3 63.68 3 63 C2.34 63 1.68 63 1 63 C-0.33017653 60.33964694 -0.16895238 58.26000498 -0.22119141 55.28100586 C-0.24436432 54.0831395 -0.26753723 52.88527313 -0.29141235 51.65110779 C-0.32118668 49.70265709 -0.32118668 49.70265709 -0.3515625 47.71484375 C-0.37467306 46.37487823 -0.39806334 45.0349175 -0.42172241 43.69496155 C-0.47018272 40.88644521 -0.51511614 38.07789976 -0.55761719 35.26928711 C-0.61250732 31.66191574 -0.67632537 28.05476714 -0.74279213 24.44759274 C-0.79276023 21.68109125 -0.83792874 18.9145275 -0.88163376 16.14792061 C-0.91379917 14.16854844 -0.95012281 12.18924528 -0.98648071 10.20994568 C-1.0033493 9.01523148 -1.0202179 7.82051727 -1.03759766 6.58959961 C-1.05456696 5.53195908 -1.07153625 4.47431854 -1.08901978 3.3846283 C-1 1 -1 1 0 0 Z " fill="#C07C4B" transform="translate(120,126)"/>
<path d="M0 0 C0.66 0 1.32 0 2 0 C2 0.66 2 1.32 2 2 C2.763125 1.938125 3.52625 1.87625 4.3125 1.8125 C7 2 7 2 8.8125 3.5 C9.204375 3.995 9.59625 4.49 10 5 C8.700625 4.814375 7.40125 4.62875 6.0625 4.4375 C3.91424457 4.1018371 3.91424457 4.1018371 2 4 C0.33376422 5.66623578 0.83259309 7.68758912 0.79467773 9.97875977 C0.77473251 11.03978409 0.75478729 12.10080841 0.73423767 13.19398499 C0.71752518 14.348134 0.70081268 15.50228302 0.68359375 16.69140625 C0.66281265 17.86638168 0.64203156 19.04135712 0.62062073 20.25193787 C0.55499876 24.02206324 0.4961817 27.79226082 0.4375 31.5625 C0.3943268 34.11133573 0.35071292 36.66016403 0.30664062 39.20898438 C0.19930455 45.47257892 0.0975621 51.73624601 0 58 C-0.33 58 -0.66 58 -1 58 C-1.02312883 50.58540058 -1.04091785 43.17080889 -1.05181217 35.75618076 C-1.05703982 32.31359652 -1.06413531 28.87103688 -1.07543945 25.4284668 C-1.08834235 21.47444957 -1.09322918 17.52044244 -1.09765625 13.56640625 C-1.10281754 12.32476212 -1.10797882 11.08311798 -1.11329651 9.80384827 C-1.11337204 8.66274094 -1.11344757 7.52163361 -1.11352539 6.34594727 C-1.115746 5.335569 -1.11796661 4.32519073 -1.12025452 3.28419495 C-1 1 -1 1 0 0 Z " fill="#CD7A42" transform="translate(122,128)"/>
<path d="M0 0 C0.99 0.33 1.98 0.66 3 1 C2.34 1 1.68 1 1 1 C1 1.66 1 2.32 1 3 C-2.46153846 6 -2.46153846 6 -5 6 C-5.0825 6.763125 -5.165 7.52625 -5.25 8.3125 C-6 11 -6 11 -7.875 12.875 C-8.57625 13.24625 -9.2775 13.6175 -10 14 C-10.99 13.67 -11.98 13.34 -13 13 C-13 12.34 -13 11.68 -13 11 C-15.64 11.99 -18.28 12.98 -21 14 C-21 13.34 -21 12.68 -21 12 C-20.03578125 11.52949219 -19.0715625 11.05898438 -18.078125 10.57421875 C-16.80197704 9.94552821 -15.52594126 9.31660993 -14.25 8.6875 C-13.61578125 8.37876953 -12.9815625 8.07003906 -12.328125 7.75195312 C-9.63096924 6.41742293 -7.13017629 5.09942775 -4.734375 3.26953125 C-3 2 -3 2 0 2 C0 1.34 0 0.68 0 0 Z " fill="#E4B857" transform="translate(252,48)"/>
<path d="M0 0 C0.763125 0.061875 1.52625 0.12375 2.3125 0.1875 C-2.30412817 4.20843421 -8.35805513 9.1875 -14.6875 9.1875 C-14.6875 9.8475 -14.6875 10.5075 -14.6875 11.1875 C-16.6675 12.1775 -16.6675 12.1775 -18.6875 13.1875 C-18.40508359 11.72734709 -18.11123386 10.26940207 -17.8125 8.8125 C-17.65007812 8.00039062 -17.48765625 7.18828125 -17.3203125 6.3515625 C-16.6875 4.1875 -16.6875 4.1875 -14.6875 2.1875 C-12.36687354 2.33281437 -10.16358638 2.76608688 -7.87890625 3.19140625 C-5.59529382 3.43168777 -5.59529382 3.43168777 -4.0703125 1.7265625 C-2.6875 0.1875 -2.6875 0.1875 0 0 Z " fill="#D9A263" transform="translate(491.6875,159.8125)"/>
<path d="M0 0 C0.66 0.33 1.32 0.66 2 1 C1.01 1.33 0.02 1.66 -1 2 C-1 2.66 -1 3.32 -1 4 C-1.66 4 -2.32 4 -3 4 C-3.33 4.99 -3.66 5.98 -4 7 C-4.66 7 -5.32 7 -6 7 C-6.33 7.99 -6.66 8.98 -7 10 C-10.63 10.66 -14.26 11.32 -18 12 C-18 12.66 -18 13.32 -18 14 C-19.65 14 -21.3 14 -23 14 C-19.33611238 10.89873183 -15.59994682 8.52273001 -11.375 6.25 C-10.24835938 5.63640625 -9.12171875 5.0228125 -7.9609375 4.390625 C-5 3 -5 3 -2 3 C-2 2.34 -2 1.68 -2 1 C-1.34 0.67 -0.68 0.34 0 0 Z " fill="#E7C887" transform="translate(316,12)"/>
<path d="M0 0 C4 0 4 0 5.4375 1.375 C5.953125 1.91125 6.46875 2.4475 7 3 C7.75152344 3.30035156 8.50304687 3.60070313 9.27734375 3.91015625 C12.11585933 5.04637698 14.53170039 6.448627 17.125 8.0625 C19.80251948 9.72679402 21.99972402 10.99990801 25 12 C25.33 12.99 25.66 13.98 26 15 C25.34 15 24.68 15 24 15 C24 14.34 24 13.68 24 13 C21.69 12.67 19.38 12.34 17 12 C17 11.34 17 10.68 17 10 C14.69 9.67 12.38 9.34 10 9 C10 8.01 10 7.02 10 6 C7.03 5.505 7.03 5.505 4 5 C3.896875 4.360625 3.79375 3.72125 3.6875 3.0625 C3.460625 2.381875 3.23375 1.70125 3 1 C2.01 0.67 1.02 0.34 0 0 Z " fill="#E5C989" transform="translate(385,31)"/>
<path d="M0 0 C0.99 0.33 1.98 0.66 3 1 C2.34 1 1.68 1 1 1 C0.95875 1.5775 0.9175 2.155 0.875 2.75 C-0.44948372 6.15581529 -2.81429257 7.51129441 -6 9 C-9.62912527 10.17148961 -13.28837174 11.12822966 -17 12 C-16.67 11.34 -16.34 10.68 -16 10 C-15.34 10 -14.68 10 -14 10 C-14 9.34 -14 8.68 -14 8 C-12.948125 7.62875 -12.948125 7.62875 -11.875 7.25 C-8.85445734 6.0426709 -8.85445734 6.0426709 -5.875 3.875 C-3 2 -3 2 0 2 C0 1.34 0 0.68 0 0 Z " fill="#E5CB8F" transform="translate(205,74)"/>
<path d="M0 0 C0.33 0.99 0.66 1.98 1 3 C-0.24460783 3.67667998 -1.49596896 4.34094719 -2.75 5 C-3.44609375 5.37125 -4.1421875 5.7425 -4.859375 6.125 C-7 7 -7 7 -11 7 C-11 7.99 -11 8.98 -11 10 C-13.97 10.66 -16.94 11.32 -20 12 C-18 9 -18 9 -14.875 8.3125 C-13.451875 8.1578125 -13.451875 8.1578125 -12 8 C-11.67 7.01 -11.34 6.02 -11 5 C-9.67203709 4.64587656 -8.33783393 4.31478446 -7 4 C-6.505 3.505 -6.01 3.01 -5.5 2.5 C-3.72746073 0.72746073 -2.43379708 0.41962019 0 0 Z " fill="#E6CB96" transform="translate(292,26)"/>
<path d="M0 0 C2.475 0.495 2.475 0.495 5 1 C5.33 1.99 5.66 2.98 6 4 C6.886875 4.103125 7.77375 4.20625 8.6875 4.3125 C12.08109013 5.01683003 14.14218967 6.09479311 17 8 C17.66 8.33 18.32 8.66 19 9 C19 9.66 19 10.32 19 11 C19.66 11.33 20.32 11.66 21 12 C18.03 11.34 15.06 10.68 12 10 C12 9.34 12 8.68 12 8 C9.69 7.34 7.38 6.68 5 6 C5 5.01 5 4.02 5 3 C3.35 2.67 1.7 2.34 0 2 C0 1.34 0 0.68 0 0 Z " fill="#E2C281" transform="translate(336,188)"/>
<path d="M0 0 C0 0.66 0 1.32 0 2 C-2.31 2.33 -4.62 2.66 -7 3 C-7 3.66 -7 4.32 -7 5 C-8.32 5.33 -9.64 5.66 -11 6 C-11 6.66 -11 7.32 -11 8 C-11.66 8 -12.32 8 -13 8 C-13 8.66 -13 9.32 -13 10 C-16.83887763 11.48320272 -19.06204091 12.22419163 -23 11 C-22.38511719 10.66226563 -21.77023438 10.32453125 -21.13671875 9.9765625 C-20.32847656 9.53054687 -19.52023438 9.08453125 -18.6875 8.625 C-17.88699219 8.18414062 -17.08648437 7.74328125 -16.26171875 7.2890625 C-14.46472057 6.26486665 -12.72099292 5.14732862 -11 4 C-10.01 4 -9.02 4 -8 4 C-8 3.34 -8 2.68 -8 2 C-4.91190305 0.23537317 -3.76687864 0 0 0 Z " fill="#E7D099" transform="translate(231,62)"/>
<path d="M0 0 C1.67542976 0.28604898 3.34385343 0.61781233 5 1 C5 1.66 5 2.32 5 3 C3.68 3 2.36 3 1 3 C1 3.66 1 4.32 1 5 C-1.46210835 7.36362402 -3.29046449 8.08012813 -6.625 9 C-10.25073889 9.68257524 -10.25073889 9.68257524 -12 13 C-14.625 13.6875 -14.625 13.6875 -17 14 C-16.67 13.01 -16.34 12.02 -16 11 C-14.68 11 -13.36 11 -12 11 C-12 10.01 -12 9.02 -12 8 C-9.36 7.67 -6.72 7.34 -4 7 C-4 6.34 -4 5.68 -4 5 C-3.34 5 -2.68 5 -2 5 C-1.855625 4.360625 -1.71125 3.72125 -1.5625 3.0625 C-1 1 -1 1 0 0 Z " fill="#EBC391" transform="translate(317,380)"/>
<path d="M0 0 C-2.58789062 1.07421875 -2.58789062 1.07421875 -5.17578125 2.1484375 C-7.26533932 3.06806692 -7.26533932 3.06806692 -10 5 C-11.32 5 -12.64 5 -14 5 C-14.33 6.32 -14.66 7.64 -15 9 C-16.32 9 -17.64 9 -19 9 C-18.67 7.35 -18.34 5.7 -18 4 C-14.846632 3.29925156 -12.27275026 3 -9 3 C-9 2.01 -9 1.02 -9 0 C-5.62182575 -0.84454356 -3.32534757 -1.10844919 0 0 Z " fill="#DAAD70" transform="translate(383,286)"/>
<path d="M0 0 C1.0194119 0.98020375 2.02246356 1.97803008 3 3 C3.99 3 4.98 3 6 3 C6 3.66 6 4.32 6 5 C6.66 5.66 7.32 6.32 8 7 C7.01 7.495 7.01 7.495 6 8 C3.21484375 6.85546875 3.21484375 6.85546875 -0.0625 5.1875 C-1.14660156 4.64480469 -2.23070312 4.10210937 -3.34765625 3.54296875 C-6 2 -6 2 -7 0 C-4.26634878 -1.36682561 -2.89333621 -0.84683011 0 0 Z " fill="#D28C58" transform="translate(144,197)"/>
<path d="M0 0 C1.9375 0.3125 1.9375 0.3125 4 1 C4.33 1.99 4.66 2.98 5 4 C5.928125 4.144375 6.85625 4.28875 7.8125 4.4375 C11 5 11 5 14 6 C14 6.66 14 7.32 14 8 C14.61875 8.12375 15.2375 8.2475 15.875 8.375 C18 9 18 9 20 11 C13.80273597 10.60442996 9.11744914 8.52510982 4 5 C3.67 4.34 3.34 3.68 3 3 C2.01 2.67 1.02 2.34 0 2 C0 1.34 0 0.68 0 0 Z " fill="#E7CA8D" transform="translate(447,66)"/>
<path d="M0 0 C1.2684375 0.433125 1.2684375 0.433125 2.5625 0.875 C6.02361041 2.00772704 9.49372557 3.01824316 13 4 C13 4.66 13 5.32 13 6 C14.423125 5.938125 14.423125 5.938125 15.875 5.875 C19 6 19 6 21 8 C14.2280508 9.57205964 14.2280508 9.57205964 10.828125 7.98828125 C9.48052496 7.10423536 8.15512831 6.1849916 6.859375 5.2265625 C5.05327567 3.87550351 5.05327567 3.87550351 2.828125 3.5234375 C2.22484375 3.35070312 1.6215625 3.17796875 1 3 C0.67 2.01 0.34 1.02 0 0 Z " fill="#CF8D62" transform="translate(399,162)"/>
<path d="M0 0 C1.32 0 2.64 0 4 0 C4.33 0.66 4.66 1.32 5 2 C6.77487446 2.91926318 6.77487446 2.91926318 8.9375 3.75 C14.23980285 6.0090197 19.22830445 8.76241951 24 12 C24 12.33 24 12.66 24 13 C22.35 13 20.7 13 19 13 C19 12.34 19 11.68 19 11 C18.12794922 10.56494141 18.12794922 10.56494141 17.23828125 10.12109375 C15.85854501 9.43002167 14.48054579 8.73545322 13.10546875 8.03515625 C8.79797177 5.85070259 4.45828071 3.85761696 0 2 C0 1.34 0 0.68 0 0 Z " fill="#E4CB9C" transform="translate(467,78)"/>
<path d="M0 0 C-0.66 1.65 -1.32 3.3 -2 5 C-3.32 5 -4.64 5 -6 5 C-6 5.66 -6 6.32 -6 7 C-9.85756507 9.15305957 -12.55129785 10.39253254 -17 10 C-13.25 7 -13.25 7 -11 7 C-11 6.34 -11 5.68 -11 5 C-9.68 5 -8.36 5 -7 5 C-7 4.34 -7 3.68 -7 3 C-6.01 3 -5.02 3 -4 3 C-4 2.34 -4 1.68 -4 1 C-2 0 -2 0 0 0 Z " fill="#E5CB8F" transform="translate(144,110)"/>
<path d="M0 0 C0.33 0.66 0.66 1.32 1 2 C3.02463255 2.65213292 3.02463255 2.65213292 5 3 C0.9728176 5.20536179 -2.43545749 6.45660208 -7 7 C-7 7.66 -7 8.32 -7 9 C-7.99 9.33 -8.98 9.66 -10 10 C-10.66 9.67 -11.32 9.34 -12 9 C-11.67 8.34 -11.34 7.68 -11 7 C-8.4375 6.375 -8.4375 6.375 -6 6 C-6 5.34 -6 4.68 -6 4 C-4.03852126 2.61061923 -2.03833424 1.2739589 0 0 Z " fill="#DCA86F" transform="translate(182,209)"/>
<path d="M0 0 C5.75 -0.125 5.75 -0.125 8 1 C9 3 9 3 10 6 C10.99 6 11.98 6 13 6 C13 6.66 13 7.32 13 8 C13.99 8.33 14.98 8.66 16 9 C15.01 9.495 15.01 9.495 14 10 C11.72390931 8.80127864 9.60145838 7.56414091 7.4375 6.1875 C6.83486328 5.81818359 6.23222656 5.44886719 5.61132812 5.06835938 C1.13501913 2.27003827 1.13501913 2.27003827 0 0 Z " fill="#DB9872" transform="translate(372,146)"/>
<path d="M0 0 C0.66 0 1.32 0 2 0 C2 0.66 2 1.32 2 2 C1.34 2 0.68 2 0 2 C-0.33 3.32 -0.66 4.64 -1 6 C-6.75 7.125 -6.75 7.125 -9 6 C-9.33 6.99 -9.66 7.98 -10 9 C-11.32 8.67 -12.64 8.34 -14 8 C-13.01 8 -12.02 8 -11 8 C-10.67 7.01 -10.34 6.02 -10 5 C-7.67328146 4.31060191 -5.33932406 3.64533078 -3 3 C-1.22722741 1.47992158 -1.22722741 1.47992158 0 0 Z " fill="#E4C789" transform="translate(180,89)"/>
<path d="M0 0 C0.99 0 1.98 0 3 0 C3 0.99 3 1.98 3 3 C0 5 0 5 -3 5 C-3 5.66 -3 6.32 -3 7 C-4.8125 8.0625 -4.8125 8.0625 -7 9 C-7.99 8.67 -8.98 8.34 -10 8 C-8 5 -8 5 -4.875 4.3125 C-3.92625 4.209375 -2.9775 4.10625 -2 4 C-2 3.34 -2 2.68 -2 2 C-1.34 2 -0.68 2 0 2 C0 1.34 0 0.68 0 0 Z " fill="#E0B67A" transform="translate(211,193)"/>
<path d="M0 0 C2.16874252 0.50603992 3.99967627 0.99983813 6 2 C6 2.66 6 3.32 6 4 C7.423125 4.2165625 7.423125 4.2165625 8.875 4.4375 C12 5 12 5 14 6 C13.67 6.66 13.34 7.32 13 8 C11.5410574 7.52269162 10.08286504 7.04308958 8.625 6.5625 C7.81289063 6.29566406 7.00078125 6.02882813 6.1640625 5.75390625 C4 5 4 5 2 4 C2 3.01 2 2.02 2 1 C1.34 0.67 0.68 0.34 0 0 Z " fill="#E9CA8D" transform="translate(433,58)"/>
<path d="M0 0 C0.33 0 0.66 0 1 0 C1 5.28 1 10.56 1 16 C0.34 16 -0.32 16 -1 16 C-1 16.66 -1 17.32 -1 18 C-2.65 18.33 -4.3 18.66 -6 19 C-6 18.34 -6 17.68 -6 17 C-5.34 17 -4.68 17 -4 17 C-4 16.34 -4 15.68 -4 15 C-2.68 15 -1.36 15 0 15 C0 10.05 0 5.1 0 0 Z " fill="#E1C28D" transform="translate(389,265)"/>
<path d="M0 0 C0.33 0 0.66 0 1 0 C1 3.3 1 6.6 1 10 C2.65 10.33 4.3 10.66 6 11 C5.67 12.32 5.34 13.64 5 15 C4.34 15 3.68 15 3 15 C3 14.34 3 13.68 3 13 C2.34 13 1.68 13 1 13 C-0.32229189 10.35541621 -0.09677194 8.32238699 -0.0625 5.375 C-0.05347656 4.37210938 -0.04445313 3.36921875 -0.03515625 2.3359375 C-0.02355469 1.56507813 -0.01195313 0.79421875 0 0 Z " fill="#CB9065" transform="translate(120,176)"/>
<path d="M0 0 C5.29860806 1.2976183 9.34525646 3.15015702 14 6 C13.67 6.66 13.34 7.32 13 8 C11.20249935 7.43489946 9.41208377 6.84722594 7.625 6.25 C6.62726563 5.92515625 5.62953125 5.6003125 4.6015625 5.265625 C1.70207827 3.8550651 1.04162718 2.98683456 0 0 Z " fill="#E2C993" transform="translate(369,207)"/>
<path d="M0 0 C0.99 0.33 1.98 0.66 3 1 C3 1.66 3 2.32 3 3 C4.32 3 5.64 3 7 3 C7 3.66 7 4.32 7 5 C7.598125 5.12375 8.19625 5.2475 8.8125 5.375 C11 6 11 6 14 8 C8.25 8.125 8.25 8.125 6 7 C6 6.01 6 5.02 6 4 C4.35 4 2.7 4 1 4 C0.67 2.68 0.34 1.36 0 0 Z " fill="#EBD29C" transform="translate(354,12)"/>
<path d="M0 0 C-1.76371818 1.03307771 -3.53625033 2.05112049 -5.3125 3.0625 C-6.79169922 3.91521484 -6.79169922 3.91521484 -8.30078125 4.78515625 C-11 6 -11 6 -14 5 C-13.67 4.34 -13.34 3.68 -13 3 C-11.68 3 -10.36 3 -9 3 C-9 2.34 -9 1.68 -9 1 C-5.47051709 -0.66670026 -3.71727674 -1.13583456 0 0 Z " fill="#E3BC87" transform="translate(336,375)"/>
<path d="M0 0 C2.3125 -0.1875 2.3125 -0.1875 5 0 C6.5 1.375 6.5 1.375 8 3 C10.59915538 4.19027984 10.59915538 4.19027984 13 5 C13 5.66 13 6.32 13 7 C7.83572624 5.7605743 4.24563172 4.21011179 0 1 C0 0.67 0 0.34 0 0 Z " fill="#DBA780" transform="translate(415,172)"/>
<path d="M0 0 C-4.625 3 -4.625 3 -8 3 C-8 3.66 -8 4.32 -8 5 C-9.98 5.99 -9.98 5.99 -12 7 C-11.67 6.01 -11.34 5.02 -11 4 C-10.34 4 -9.68 4 -9 4 C-9 2.68 -9 1.36 -9 0 C-5.62182575 -0.84454356 -3.32534757 -1.10844919 0 0 Z " fill="#E0B781" transform="translate(485,166)"/>
<path d="M0 0 C0.66 0 1.32 0 2 0 C2.33 1.65 2.66 3.3 3 5 C3.99 5.33 4.98 5.66 6 6 C5.01 6.495 5.01 6.495 4 7 C1.8359375 6.00390625 1.8359375 6.00390625 -0.625 4.5625 C-1.44226563 4.08941406 -2.25953125 3.61632812 -3.1015625 3.12890625 C-3.72804688 2.75636719 -4.35453125 2.38382813 -5 2 C-4.360625 1.855625 -3.72125 1.71125 -3.0625 1.5625 C-1.02454854 1.18992819 -1.02454854 1.18992819 0 0 Z " fill="#D5946B" transform="translate(433,178)"/>
<path d="M0 0 C0.99 0 1.98 0 3 0 C3 0.66 3 1.32 3 2 C2.09507812 2.39832031 2.09507812 2.39832031 1.171875 2.8046875 C0.37265625 3.15789062 -0.4265625 3.51109375 -1.25 3.875 C-2.03890625 4.22304687 -2.8278125 4.57109375 -3.640625 4.9296875 C-5.78868608 5.90413905 -7.89829202 6.92986429 -10 8 C-9.75 6.10546875 -9.75 6.10546875 -9 4 C-7.1875 2.98828125 -7.1875 2.98828125 -5 2.3125 C-2.25399382 1.56825097 -2.25399382 1.56825097 0 0 Z " fill="#E1B985" transform="translate(468,173)"/>
<path d="M0 0 C2.97 0.495 2.97 0.495 6 1 C6 1.66 6 2.32 6 3 C7.32 3 8.64 3 10 3 C10.66 4.32 11.32 5.64 12 7 C7.76570244 5.68938409 3.92592596 4.05643741 0 2 C0 1.34 0 0.68 0 0 Z " fill="#E3CA8D" transform="translate(373,24)"/>
<path d="M0 0 C1.32 0 2.64 0 4 0 C4 0.66 4 1.32 4 2 C5.98 2 7.96 2 10 2 C10 1.34 10 0.68 10 0 C10.99 0.33 11.98 0.66 13 1 C12.34 1 11.68 1 11 1 C11 1.66 11 2.32 11 3 C8 5 8 5 5 5 C5 4.34 5 3.68 5 3 C2.525 2.01 2.525 2.01 0 1 C0 0.67 0 0.34 0 0 Z " fill="#E5BC96" transform="translate(275,401)"/>
<path d="M0 0 C1.67542976 0.28604898 3.34385343 0.61781233 5 1 C5 1.66 5 2.32 5 3 C3.68 3 2.36 3 1 3 C1 3.66 1 4.32 1 5 C-0.65 5.66 -2.3 6.32 -4 7 C-4 6.34 -4 5.68 -4 5 C-3.34 5 -2.68 5 -2 5 C-1.7834375 4.0409375 -1.7834375 4.0409375 -1.5625 3.0625 C-1 1 -1 1 0 0 Z " fill="#DCB175" transform="translate(317,380)"/>
<path d="M0 0 C0.99 0.66 1.98 1.32 3 2 C2.01 3.485 2.01 3.485 1 5 C-1.31 4.67 -3.62 4.34 -6 4 C-6.33 3.01 -6.66 2.02 -7 1 C-6.01 1 -5.02 1 -4 1 C-4 1.66 -4 2.32 -4 3 C-2.68 3 -1.36 3 0 3 C0 2.01 0 1.02 0 0 Z " fill="#E6B78D" transform="translate(446,184)"/>
<path d="M0 0 C5.7097955 0.41778991 8.60957142 2.57546571 13 6 C8.38269795 6 5.08817866 4.97363353 1.625 1.875 C1.08875 1.25625 0.5525 0.6375 0 0 Z " fill="#DDBA67" transform="translate(471,82)"/>
<path d="M0 0 C0 0.66 0 1.32 0 2 C-4.56864758 4.39853998 -9.15831437 6.24697589 -14 8 C-14 7.34 -14 6.68 -14 6 C-12.04414675 4.99515796 -10.08523763 3.99626195 -8.125 3 C-6.48917969 2.1646875 -6.48917969 2.1646875 -4.8203125 1.3125 C-2 0 -2 0 0 0 Z " fill="#E5CC8C" transform="translate(245,54)"/>
<path d="M0 0 C3.71888239 0.50712033 6.73454239 1.11608215 10 3 C10 3.33 10 3.66 10 4 C8.88625 4.309375 7.7725 4.61875 6.625 4.9375 C3.2054845 5.82326483 3.2054845 5.82326483 1 7 C1.66 5.02 2.32 3.04 3 1 C2.01 0.67 1.02 0.34 0 0 Z " fill="#E2C27B" transform="translate(423,54)"/>
<path d="M0 0 C6.64615385 1.47692308 6.64615385 1.47692308 8.4375 4.125 C8.7159375 5.053125 8.7159375 5.053125 9 6 C7.35 5.67 5.7 5.34 4 5 C4 4.34 4 3.68 4 3 C2.02 3 0.04 3 -2 3 C-1.34 2.01 -0.68 1.02 0 0 Z " fill="#E4C792" transform="translate(334,1)"/>
<path d="M0 0 C1.32 0.33 2.64 0.66 4 1 C4 1.66 4 2.32 4 3 C5.32 3.33 6.64 3.66 8 4 C8 5.65 8 7.3 8 9 C7.34 8.01 6.68 7.02 6 6 C5.01 6.495 5.01 6.495 4 7 C4 6.01 4 5.02 4 4 C2.68 3.67 1.36 3.34 0 3 C0 2.01 0 1.02 0 0 Z " fill="#E3CC9B" transform="translate(491,91)"/>
<path d="M0 0 C1.4606285 2.64738916 2 3.89448334 2 7 C0.66402348 6.19185349 -0.668725 5.37836819 -2 4.5625 C-2.7425 4.11003906 -3.485 3.65757812 -4.25 3.19140625 C-4.8275 2.79824219 -5.405 2.40507812 -6 2 C-6 1.67 -6 1.34 -6 1 C-4.02 0.67 -2.04 0.34 0 0 Z " fill="#D59773" transform="translate(157,204)"/>
<path d="M0 0 C0.33 1.32 0.66 2.64 1 4 C-5.625 5 -5.625 5 -9 5 C-3.375 1.125 -3.375 1.125 0 0 Z " fill="#E9C990" transform="translate(165,98)"/>
<path d="M0 0 C5.15464734 0.48324819 8.81550319 3.18610761 13 6 C12.01 6.495 12.01 6.495 11 7 C9.0546875 6.22265625 9.0546875 6.22265625 6.875 5.0625 C6.15054687 4.68222656 5.42609375 4.30195313 4.6796875 3.91015625 C4.12539063 3.60980469 3.57109375 3.30945313 3 3 C3 2.34 3 1.68 3 1 C2.01 0.67 1.02 0.34 0 0 Z " fill="#C6793B" transform="translate(305,234)"/>
<path d="M0 0 C3.37705625 0.53725895 6.696686 1.11064623 10 2 C10 3.32 10 4.64 10 6 C8.0625 5.625 8.0625 5.625 6 5 C5.67 4.34 5.34 3.68 5 3 C3.35636866 2.27840576 1.68949614 1.60648579 0 1 C0 0.67 0 0.34 0 0 Z " fill="#DEAC89" transform="translate(360,140)"/>
<path d="M0 0 C-0.33 0.66 -0.66 1.32 -1 2 C-3.28515625 2.4140625 -3.28515625 2.4140625 -6.0625 2.625 C-6.98160156 2.69976562 -7.90070313 2.77453125 -8.84765625 2.8515625 C-9.55792969 2.90054687 -10.26820313 2.94953125 -11 3 C-10 1 -10 1 -7.1875 -0.1875 C-4.14038924 -0.96421451 -2.86250637 -1.10096399 0 0 Z " fill="#E3C06D" transform="translate(338,4)"/>
<path d="M0 0 C0.33 0.99 0.66 1.98 1 3 C-1.375 4.5625 -1.375 4.5625 -4 6 C-4.66 5.67 -5.32 5.34 -6 5 C-5.25 3.0625 -5.25 3.0625 -4 1 C-1.875 0.25 -1.875 0.25 0 0 Z " fill="#E6C581" transform="translate(292,26)"/>
<path d="M0 0 C0.33 0.66 0.66 1.32 1 2 C3.02463255 2.65213292 3.02463255 2.65213292 5 3 C2.0173094 4.52448631 -0.818202 5.93940067 -4 7 C-4.33 6.34 -4.66 5.68 -5 5 C-4.360625 4.54625 -3.72125 4.0925 -3.0625 3.625 C-0.90297594 2.16078274 -0.90297594 2.16078274 0 0 Z " fill="#E4BB85" transform="translate(182,209)"/>
<path d="M0 0 C0.99 0.33 1.98 0.66 3 1 C2.34 1 1.68 1 1 1 C1 1.66 1 2.32 1 3 C-0.75 4.6875 -0.75 4.6875 -3 6 C-5.25 5.6875 -5.25 5.6875 -7 5 C-3.375 2 -3.375 2 0 2 C0 1.34 0 0.68 0 0 Z " fill="#E6C78E" transform="translate(252,48)"/>
<path d="M0 0 C2.64 0 5.28 0 8 0 C8 0.66 8 1.32 8 2 C8.66 2.66 9.32 3.32 10 4 C9.01 4.495 9.01 4.495 8 5 C6.0546875 4.22265625 6.0546875 4.22265625 3.875 3.0625 C3.15054688 2.68222656 2.42609375 2.30195313 1.6796875 1.91015625 C1.12539062 1.60980469 0.57109375 1.30945313 0 1 C0 0.67 0 0.34 0 0 Z " fill="#DB9E7B" transform="translate(142,200)"/>
<path d="M0 0 C4.31392226 0.4793247 6.16569547 1.7457985 9 5 C7.68 5 6.36 5 5 5 C5 4.34 5 3.68 5 3 C4.360625 2.87625 3.72125 2.7525 3.0625 2.625 C2.381875 2.41875 1.70125 2.2125 1 2 C0.67 1.34 0.34 0.68 0 0 Z " fill="#E1C784" transform="translate(411,46)"/>
<path d="M0 0 C0.99 0.495 0.99 0.495 2 1 C2 2.98 2 4.96 2 7 C2.66 7.33 3.32 7.66 4 8 C4 8.66 4 9.32 4 10 C2.68 10 1.36 10 0 10 C0 6.7 0 3.4 0 0 Z " fill="#DD9C5B" transform="translate(281,393)"/>
<path d="M0 0 C2.475 0.495 2.475 0.495 5 1 C5.33 1.99 5.66 2.98 6 4 C8.01508358 4.73323796 8.01508358 4.73323796 10 5 C8.35 5 6.7 5 5 5 C5 4.34 5 3.68 5 3 C3.35 2.67 1.7 2.34 0 2 C0 1.34 0 0.68 0 0 Z " fill="#E6C791" transform="translate(336,188)"/>
<path d="M0 0 C-6.625 3 -6.625 3 -10 3 C-9.67 2.01 -9.34 1.02 -9 0 C-5.62182575 -0.84454356 -3.32534757 -1.10844919 0 0 Z " fill="#E7C49C" transform="translate(383,286)"/>
<path d="M0 0 C5.66153846 1.47692308 5.66153846 1.47692308 7.375 4.125 C7.684375 5.053125 7.684375 5.053125 8 6 C2.25 3.375 2.25 3.375 0 0 Z " fill="#DDA679" transform="translate(351,134)"/>
<path d="M0 0 C3.73487777 0.4979837 5.81237635 0.87491756 9 3 C9 3.66 9 4.32 9 5 C5.54074837 3.7508258 2.85306797 2.32472205 0 0 Z " fill="#D4A071" transform="translate(341,129)"/>
<path d="M0 0 C2.31 0.66 4.62 1.32 7 2 C7 2.66 7 3.32 7 4 C4.69 3.67 2.38 3.34 0 3 C0 2.01 0 1.02 0 0 Z " fill="#E6AD5A" transform="translate(338,64)"/>
<path d="M0 0 C2.3125 0.1875 2.3125 0.1875 4 1 C2.02579865 3.52259061 1.03254358 3.9929808 -2.1875 4.6875 C-3.5796875 4.8421875 -3.5796875 4.8421875 -5 5 C-2.75 2.4375 -2.75 2.4375 0 0 Z " fill="#EAD09B" transform="translate(260,43)"/>
</svg>
